%TF.GenerationSoftware,KiCad,Pcbnew,10.0.4*%
%TF.CreationDate,2026-09-28T23:47:19-04:00*%
%TF.ProjectId,KSPMacroPad,4b53504d-6163-4726-9f50-61642e6b6963,3*%
%TF.SameCoordinates,Original*%
%TF.FileFunction,Profile,NP*%
%FSLAX46Y46*%
G04 Gerber Fmt 4.6, Leading zero omitted, Abs format (unit mm)*
G04 Created by KiCad (PCBNEW 10.0.4) date 2026-09-28 23:47:19*
%MOMM*%
%LPD*%
G01*
G04 APERTURE LIST*
%TA.AperFunction,Profile*%
%ADD10C,0.050000*%
%TD*%
%TA.AperFunction,Profile*%
%ADD11C,0.100000*%
%TD*%
G04 APERTURE END LIST*
D10*
X65500000Y-37250000D02*
X165500000Y-37250000D01*
X165500000Y-137250000D01*
X65500000Y-137250000D01*
X65500000Y-37250000D01*
%TO.C,LED16*%
D11*
X143300002Y-130600000D02*
X143300002Y-129194316D01*
X144205549Y-128397159D02*
X145794454Y-128397159D01*
X145794453Y-131397158D02*
X144205549Y-131397158D01*
X146700000Y-129194316D02*
X146700000Y-130600000D01*
X143250517Y-128977438D02*
G75*
G02*
X143300002Y-129194316I-450505J-216876D01*
G01*
X143250517Y-128977438D02*
G75*
G02*
X143953290Y-128328859I450515J216878D01*
G01*
X143300002Y-130600001D02*
G75*
G02*
X143250517Y-130816878I-499990J-1D01*
G01*
X143953290Y-131465455D02*
G75*
G02*
X143250517Y-130816878I-252258J431700D01*
G01*
X143953291Y-131465457D02*
G75*
G02*
X144205549Y-131397158I252261J-431710D01*
G01*
X144205548Y-128397158D02*
G75*
G02*
X143953290Y-128328859I3J500009D01*
G01*
X145794453Y-131397158D02*
G75*
G02*
X146046712Y-131465457I-3J-500012D01*
G01*
X146046712Y-128328860D02*
G75*
G02*
X145794454Y-128397160I-252262J431710D01*
G01*
X146046712Y-128328860D02*
G75*
G02*
X146749484Y-128977438I252258J-431700D01*
G01*
X146700000Y-129194315D02*
G75*
G02*
X146749479Y-128977435I500000J15D01*
G01*
X146749485Y-130816877D02*
G75*
G02*
X146046712Y-131465457I-450514J-216880D01*
G01*
X146749485Y-130816878D02*
G75*
G02*
X146700000Y-130600000I450515J216878D01*
G01*
%TO.C,LED3*%
X86749485Y-110816878D02*
G75*
G02*
X86700000Y-110600000I450515J216878D01*
G01*
X86749485Y-110816877D02*
G75*
G02*
X86046712Y-111465457I-450514J-216880D01*
G01*
X86700000Y-109194315D02*
G75*
G02*
X86749479Y-108977435I500000J15D01*
G01*
X86046712Y-108328860D02*
G75*
G02*
X86749484Y-108977438I252258J-431700D01*
G01*
X86046712Y-108328860D02*
G75*
G02*
X85794454Y-108397160I-252262J431710D01*
G01*
X85794453Y-111397158D02*
G75*
G02*
X86046712Y-111465457I-3J-500012D01*
G01*
X84205548Y-108397158D02*
G75*
G02*
X83953290Y-108328859I3J500009D01*
G01*
X83953291Y-111465457D02*
G75*
G02*
X84205549Y-111397158I252261J-431710D01*
G01*
X83953290Y-111465455D02*
G75*
G02*
X83250517Y-110816878I-252258J431700D01*
G01*
X83300002Y-110600001D02*
G75*
G02*
X83250517Y-110816878I-499990J-1D01*
G01*
X83250517Y-108977438D02*
G75*
G02*
X83953290Y-108328859I450515J216878D01*
G01*
X83250517Y-108977438D02*
G75*
G02*
X83300002Y-109194316I-450505J-216876D01*
G01*
X86700000Y-109194316D02*
X86700000Y-110600000D01*
X85794453Y-111397158D02*
X84205549Y-111397158D01*
X84205549Y-108397159D02*
X85794454Y-108397159D01*
X83300002Y-110600000D02*
X83300002Y-109194316D01*
%TO.C,LED4*%
X83300002Y-130600000D02*
X83300002Y-129194316D01*
X84205549Y-128397159D02*
X85794454Y-128397159D01*
X85794453Y-131397158D02*
X84205549Y-131397158D01*
X86700000Y-129194316D02*
X86700000Y-130600000D01*
X83250517Y-128977438D02*
G75*
G02*
X83300002Y-129194316I-450505J-216876D01*
G01*
X83250517Y-128977438D02*
G75*
G02*
X83953290Y-128328859I450515J216878D01*
G01*
X83300002Y-130600001D02*
G75*
G02*
X83250517Y-130816878I-499990J-1D01*
G01*
X83953290Y-131465455D02*
G75*
G02*
X83250517Y-130816878I-252258J431700D01*
G01*
X83953291Y-131465457D02*
G75*
G02*
X84205549Y-131397158I252261J-431710D01*
G01*
X84205548Y-128397158D02*
G75*
G02*
X83953290Y-128328859I3J500009D01*
G01*
X85794453Y-131397158D02*
G75*
G02*
X86046712Y-131465457I-3J-500012D01*
G01*
X86046712Y-128328860D02*
G75*
G02*
X85794454Y-128397160I-252262J431710D01*
G01*
X86046712Y-128328860D02*
G75*
G02*
X86749484Y-128977438I252258J-431700D01*
G01*
X86700000Y-129194315D02*
G75*
G02*
X86749479Y-128977435I500000J15D01*
G01*
X86749485Y-130816877D02*
G75*
G02*
X86046712Y-131465457I-450514J-216880D01*
G01*
X86749485Y-130816878D02*
G75*
G02*
X86700000Y-130600000I450515J216878D01*
G01*
%TO.C,LED7*%
X106749485Y-110816878D02*
G75*
G02*
X106700000Y-110600000I450515J216878D01*
G01*
X106749485Y-110816877D02*
G75*
G02*
X106046712Y-111465457I-450514J-216880D01*
G01*
X106700000Y-109194315D02*
G75*
G02*
X106749479Y-108977435I500000J15D01*
G01*
X106046712Y-108328860D02*
G75*
G02*
X106749484Y-108977438I252258J-431700D01*
G01*
X106046712Y-108328860D02*
G75*
G02*
X105794454Y-108397160I-252262J431710D01*
G01*
X105794453Y-111397158D02*
G75*
G02*
X106046712Y-111465457I-3J-500012D01*
G01*
X104205548Y-108397158D02*
G75*
G02*
X103953290Y-108328859I3J500009D01*
G01*
X103953291Y-111465457D02*
G75*
G02*
X104205549Y-111397158I252261J-431710D01*
G01*
X103953290Y-111465455D02*
G75*
G02*
X103250517Y-110816878I-252258J431700D01*
G01*
X103300002Y-110600001D02*
G75*
G02*
X103250517Y-110816878I-499990J-1D01*
G01*
X103250517Y-108977438D02*
G75*
G02*
X103953290Y-108328859I450515J216878D01*
G01*
X103250517Y-108977438D02*
G75*
G02*
X103300002Y-109194316I-450505J-216876D01*
G01*
X106700000Y-109194316D02*
X106700000Y-110600000D01*
X105794453Y-111397158D02*
X104205549Y-111397158D01*
X104205549Y-108397159D02*
X105794454Y-108397159D01*
X103300002Y-110600000D02*
X103300002Y-109194316D01*
%TO.C,LED8*%
X106749485Y-130816878D02*
G75*
G02*
X106700000Y-130600000I450515J216878D01*
G01*
X106749485Y-130816877D02*
G75*
G02*
X106046712Y-131465457I-450514J-216880D01*
G01*
X106700000Y-129194315D02*
G75*
G02*
X106749479Y-128977435I500000J15D01*
G01*
X106046712Y-128328860D02*
G75*
G02*
X106749484Y-128977438I252258J-431700D01*
G01*
X106046712Y-128328860D02*
G75*
G02*
X105794454Y-128397160I-252262J431710D01*
G01*
X105794453Y-131397158D02*
G75*
G02*
X106046712Y-131465457I-3J-500012D01*
G01*
X104205548Y-128397158D02*
G75*
G02*
X103953290Y-128328859I3J500009D01*
G01*
X103953291Y-131465457D02*
G75*
G02*
X104205549Y-131397158I252261J-431710D01*
G01*
X103953290Y-131465455D02*
G75*
G02*
X103250517Y-130816878I-252258J431700D01*
G01*
X103300002Y-130600001D02*
G75*
G02*
X103250517Y-130816878I-499990J-1D01*
G01*
X103250517Y-128977438D02*
G75*
G02*
X103953290Y-128328859I450515J216878D01*
G01*
X103250517Y-128977438D02*
G75*
G02*
X103300002Y-129194316I-450505J-216876D01*
G01*
X106700000Y-129194316D02*
X106700000Y-130600000D01*
X105794453Y-131397158D02*
X104205549Y-131397158D01*
X104205549Y-128397159D02*
X105794454Y-128397159D01*
X103300002Y-130600000D02*
X103300002Y-129194316D01*
%TO.C,LED11*%
X126749485Y-110816878D02*
G75*
G02*
X126700000Y-110600000I450515J216878D01*
G01*
X126749485Y-110816877D02*
G75*
G02*
X126046712Y-111465457I-450514J-216880D01*
G01*
X126700000Y-109194315D02*
G75*
G02*
X126749479Y-108977435I500000J15D01*
G01*
X126046712Y-108328860D02*
G75*
G02*
X126749484Y-108977438I252258J-431700D01*
G01*
X126046712Y-108328860D02*
G75*
G02*
X125794454Y-108397160I-252262J431710D01*
G01*
X125794453Y-111397158D02*
G75*
G02*
X126046712Y-111465457I-3J-500012D01*
G01*
X124205548Y-108397158D02*
G75*
G02*
X123953290Y-108328859I3J500009D01*
G01*
X123953291Y-111465457D02*
G75*
G02*
X124205549Y-111397158I252261J-431710D01*
G01*
X123953290Y-111465455D02*
G75*
G02*
X123250517Y-110816878I-252258J431700D01*
G01*
X123300002Y-110600001D02*
G75*
G02*
X123250517Y-110816878I-499990J-1D01*
G01*
X123250517Y-108977438D02*
G75*
G02*
X123953290Y-108328859I450515J216878D01*
G01*
X123250517Y-108977438D02*
G75*
G02*
X123300002Y-109194316I-450505J-216876D01*
G01*
X126700000Y-109194316D02*
X126700000Y-110600000D01*
X125794453Y-111397158D02*
X124205549Y-111397158D01*
X124205549Y-108397159D02*
X125794454Y-108397159D01*
X123300002Y-110600000D02*
X123300002Y-109194316D01*
%TO.C,LED12*%
X126749485Y-130816878D02*
G75*
G02*
X126700000Y-130600000I450515J216878D01*
G01*
X126749485Y-130816877D02*
G75*
G02*
X126046712Y-131465457I-450514J-216880D01*
G01*
X126700000Y-129194315D02*
G75*
G02*
X126749479Y-128977435I500000J15D01*
G01*
X126046712Y-128328860D02*
G75*
G02*
X126749484Y-128977438I252258J-431700D01*
G01*
X126046712Y-128328860D02*
G75*
G02*
X125794454Y-128397160I-252262J431710D01*
G01*
X125794453Y-131397158D02*
G75*
G02*
X126046712Y-131465457I-3J-500012D01*
G01*
X124205548Y-128397158D02*
G75*
G02*
X123953290Y-128328859I3J500009D01*
G01*
X123953291Y-131465457D02*
G75*
G02*
X124205549Y-131397158I252261J-431710D01*
G01*
X123953290Y-131465455D02*
G75*
G02*
X123250517Y-130816878I-252258J431700D01*
G01*
X123300002Y-130600001D02*
G75*
G02*
X123250517Y-130816878I-499990J-1D01*
G01*
X123250517Y-128977438D02*
G75*
G02*
X123953290Y-128328859I450515J216878D01*
G01*
X123250517Y-128977438D02*
G75*
G02*
X123300002Y-129194316I-450505J-216876D01*
G01*
X126700000Y-129194316D02*
X126700000Y-130600000D01*
X125794453Y-131397158D02*
X124205549Y-131397158D01*
X124205549Y-128397159D02*
X125794454Y-128397159D01*
X123300002Y-130600000D02*
X123300002Y-129194316D01*
%TO.C,LED15*%
X146749485Y-110816878D02*
G75*
G02*
X146700000Y-110600000I450515J216878D01*
G01*
X146749485Y-110816877D02*
G75*
G02*
X146046712Y-111465457I-450514J-216880D01*
G01*
X146700000Y-109194315D02*
G75*
G02*
X146749479Y-108977435I500000J15D01*
G01*
X146046712Y-108328860D02*
G75*
G02*
X146749484Y-108977438I252258J-431700D01*
G01*
X146046712Y-108328860D02*
G75*
G02*
X145794454Y-108397160I-252262J431710D01*
G01*
X145794453Y-111397158D02*
G75*
G02*
X146046712Y-111465457I-3J-500012D01*
G01*
X144205548Y-108397158D02*
G75*
G02*
X143953290Y-108328859I3J500009D01*
G01*
X143953291Y-111465457D02*
G75*
G02*
X144205549Y-111397158I252261J-431710D01*
G01*
X143953290Y-111465455D02*
G75*
G02*
X143250517Y-110816878I-252258J431700D01*
G01*
X143300002Y-110600001D02*
G75*
G02*
X143250517Y-110816878I-499990J-1D01*
G01*
X143250517Y-108977438D02*
G75*
G02*
X143953290Y-108328859I450515J216878D01*
G01*
X143250517Y-108977438D02*
G75*
G02*
X143300002Y-109194316I-450505J-216876D01*
G01*
X146700000Y-109194316D02*
X146700000Y-110600000D01*
X145794453Y-111397158D02*
X144205549Y-111397158D01*
X144205549Y-108397159D02*
X145794454Y-108397159D01*
X143300002Y-110600000D02*
X143300002Y-109194316D01*
%TO.C,LED9*%
X123300002Y-70600000D02*
X123300002Y-69194316D01*
X124205549Y-68397159D02*
X125794454Y-68397159D01*
X125794453Y-71397158D02*
X124205549Y-71397158D01*
X126700000Y-69194316D02*
X126700000Y-70600000D01*
X123250517Y-68977438D02*
G75*
G02*
X123300002Y-69194316I-450505J-216876D01*
G01*
X123250517Y-68977438D02*
G75*
G02*
X123953290Y-68328859I450515J216878D01*
G01*
X123300002Y-70600001D02*
G75*
G02*
X123250517Y-70816878I-499990J-1D01*
G01*
X123953290Y-71465455D02*
G75*
G02*
X123250517Y-70816878I-252258J431700D01*
G01*
X123953291Y-71465457D02*
G75*
G02*
X124205549Y-71397158I252261J-431710D01*
G01*
X124205548Y-68397158D02*
G75*
G02*
X123953290Y-68328859I3J500009D01*
G01*
X125794453Y-71397158D02*
G75*
G02*
X126046712Y-71465457I-3J-500012D01*
G01*
X126046712Y-68328860D02*
G75*
G02*
X125794454Y-68397160I-252262J431710D01*
G01*
X126046712Y-68328860D02*
G75*
G02*
X126749484Y-68977438I252258J-431700D01*
G01*
X126700000Y-69194315D02*
G75*
G02*
X126749479Y-68977435I500000J15D01*
G01*
X126749485Y-70816877D02*
G75*
G02*
X126046712Y-71465457I-450514J-216880D01*
G01*
X126749485Y-70816878D02*
G75*
G02*
X126700000Y-70600000I450515J216878D01*
G01*
%TO.C,LED5*%
X103300002Y-70600000D02*
X103300002Y-69194316D01*
X104205549Y-68397159D02*
X105794454Y-68397159D01*
X105794453Y-71397158D02*
X104205549Y-71397158D01*
X106700000Y-69194316D02*
X106700000Y-70600000D01*
X103250517Y-68977438D02*
G75*
G02*
X103300002Y-69194316I-450505J-216876D01*
G01*
X103250517Y-68977438D02*
G75*
G02*
X103953290Y-68328859I450515J216878D01*
G01*
X103300002Y-70600001D02*
G75*
G02*
X103250517Y-70816878I-499990J-1D01*
G01*
X103953290Y-71465455D02*
G75*
G02*
X103250517Y-70816878I-252258J431700D01*
G01*
X103953291Y-71465457D02*
G75*
G02*
X104205549Y-71397158I252261J-431710D01*
G01*
X104205548Y-68397158D02*
G75*
G02*
X103953290Y-68328859I3J500009D01*
G01*
X105794453Y-71397158D02*
G75*
G02*
X106046712Y-71465457I-3J-500012D01*
G01*
X106046712Y-68328860D02*
G75*
G02*
X105794454Y-68397160I-252262J431710D01*
G01*
X106046712Y-68328860D02*
G75*
G02*
X106749484Y-68977438I252258J-431700D01*
G01*
X106700000Y-69194315D02*
G75*
G02*
X106749479Y-68977435I500000J15D01*
G01*
X106749485Y-70816877D02*
G75*
G02*
X106046712Y-71465457I-450514J-216880D01*
G01*
X106749485Y-70816878D02*
G75*
G02*
X106700000Y-70600000I450515J216878D01*
G01*
%TO.C,LED14*%
X143300002Y-90600000D02*
X143300002Y-89194316D01*
X144205549Y-88397159D02*
X145794454Y-88397159D01*
X145794453Y-91397158D02*
X144205549Y-91397158D01*
X146700000Y-89194316D02*
X146700000Y-90600000D01*
X143250517Y-88977438D02*
G75*
G02*
X143300002Y-89194316I-450505J-216876D01*
G01*
X143250517Y-88977438D02*
G75*
G02*
X143953290Y-88328859I450515J216878D01*
G01*
X143300002Y-90600001D02*
G75*
G02*
X143250517Y-90816878I-499990J-1D01*
G01*
X143953290Y-91465455D02*
G75*
G02*
X143250517Y-90816878I-252258J431700D01*
G01*
X143953291Y-91465457D02*
G75*
G02*
X144205549Y-91397158I252261J-431710D01*
G01*
X144205548Y-88397158D02*
G75*
G02*
X143953290Y-88328859I3J500009D01*
G01*
X145794453Y-91397158D02*
G75*
G02*
X146046712Y-91465457I-3J-500012D01*
G01*
X146046712Y-88328860D02*
G75*
G02*
X145794454Y-88397160I-252262J431710D01*
G01*
X146046712Y-88328860D02*
G75*
G02*
X146749484Y-88977438I252258J-431700D01*
G01*
X146700000Y-89194315D02*
G75*
G02*
X146749479Y-88977435I500000J15D01*
G01*
X146749485Y-90816877D02*
G75*
G02*
X146046712Y-91465457I-450514J-216880D01*
G01*
X146749485Y-90816878D02*
G75*
G02*
X146700000Y-90600000I450515J216878D01*
G01*
%TO.C,LED2*%
X83300002Y-90600000D02*
X83300002Y-89194316D01*
X84205549Y-88397159D02*
X85794454Y-88397159D01*
X85794453Y-91397158D02*
X84205549Y-91397158D01*
X86700000Y-89194316D02*
X86700000Y-90600000D01*
X83250517Y-88977438D02*
G75*
G02*
X83300002Y-89194316I-450505J-216876D01*
G01*
X83250517Y-88977438D02*
G75*
G02*
X83953290Y-88328859I450515J216878D01*
G01*
X83300002Y-90600001D02*
G75*
G02*
X83250517Y-90816878I-499990J-1D01*
G01*
X83953290Y-91465455D02*
G75*
G02*
X83250517Y-90816878I-252258J431700D01*
G01*
X83953291Y-91465457D02*
G75*
G02*
X84205549Y-91397158I252261J-431710D01*
G01*
X84205548Y-88397158D02*
G75*
G02*
X83953290Y-88328859I3J500009D01*
G01*
X85794453Y-91397158D02*
G75*
G02*
X86046712Y-91465457I-3J-500012D01*
G01*
X86046712Y-88328860D02*
G75*
G02*
X85794454Y-88397160I-252262J431710D01*
G01*
X86046712Y-88328860D02*
G75*
G02*
X86749484Y-88977438I252258J-431700D01*
G01*
X86700000Y-89194315D02*
G75*
G02*
X86749479Y-88977435I500000J15D01*
G01*
X86749485Y-90816877D02*
G75*
G02*
X86046712Y-91465457I-450514J-216880D01*
G01*
X86749485Y-90816878D02*
G75*
G02*
X86700000Y-90600000I450515J216878D01*
G01*
%TO.C,LED1*%
X83300002Y-70600000D02*
X83300002Y-69194316D01*
X84205549Y-68397159D02*
X85794454Y-68397159D01*
X85794453Y-71397158D02*
X84205549Y-71397158D01*
X86700000Y-69194316D02*
X86700000Y-70600000D01*
X83250517Y-68977438D02*
G75*
G02*
X83300002Y-69194316I-450505J-216876D01*
G01*
X83250517Y-68977438D02*
G75*
G02*
X83953290Y-68328859I450515J216878D01*
G01*
X83300002Y-70600001D02*
G75*
G02*
X83250517Y-70816878I-499990J-1D01*
G01*
X83953290Y-71465455D02*
G75*
G02*
X83250517Y-70816878I-252258J431700D01*
G01*
X83953291Y-71465457D02*
G75*
G02*
X84205549Y-71397158I252261J-431710D01*
G01*
X84205548Y-68397158D02*
G75*
G02*
X83953290Y-68328859I3J500009D01*
G01*
X85794453Y-71397158D02*
G75*
G02*
X86046712Y-71465457I-3J-500012D01*
G01*
X86046712Y-68328860D02*
G75*
G02*
X85794454Y-68397160I-252262J431710D01*
G01*
X86046712Y-68328860D02*
G75*
G02*
X86749484Y-68977438I252258J-431700D01*
G01*
X86700000Y-69194315D02*
G75*
G02*
X86749479Y-68977435I500000J15D01*
G01*
X86749485Y-70816877D02*
G75*
G02*
X86046712Y-71465457I-450514J-216880D01*
G01*
X86749485Y-70816878D02*
G75*
G02*
X86700000Y-70600000I450515J216878D01*
G01*
%TO.C,LED6*%
X103300002Y-90600000D02*
X103300002Y-89194316D01*
X104205549Y-88397159D02*
X105794454Y-88397159D01*
X105794453Y-91397158D02*
X104205549Y-91397158D01*
X106700000Y-89194316D02*
X106700000Y-90600000D01*
X103250517Y-88977438D02*
G75*
G02*
X103300002Y-89194316I-450505J-216876D01*
G01*
X103250517Y-88977438D02*
G75*
G02*
X103953290Y-88328859I450515J216878D01*
G01*
X103300002Y-90600001D02*
G75*
G02*
X103250517Y-90816878I-499990J-1D01*
G01*
X103953290Y-91465455D02*
G75*
G02*
X103250517Y-90816878I-252258J431700D01*
G01*
X103953291Y-91465457D02*
G75*
G02*
X104205549Y-91397158I252261J-431710D01*
G01*
X104205548Y-88397158D02*
G75*
G02*
X103953290Y-88328859I3J500009D01*
G01*
X105794453Y-91397158D02*
G75*
G02*
X106046712Y-91465457I-3J-500012D01*
G01*
X106046712Y-88328860D02*
G75*
G02*
X105794454Y-88397160I-252262J431710D01*
G01*
X106046712Y-88328860D02*
G75*
G02*
X106749484Y-88977438I252258J-431700D01*
G01*
X106700000Y-89194315D02*
G75*
G02*
X106749479Y-88977435I500000J15D01*
G01*
X106749485Y-90816877D02*
G75*
G02*
X106046712Y-91465457I-450514J-216880D01*
G01*
X106749485Y-90816878D02*
G75*
G02*
X106700000Y-90600000I450515J216878D01*
G01*
%TO.C,LED13*%
X143300002Y-70600000D02*
X143300002Y-69194316D01*
X144205549Y-68397159D02*
X145794454Y-68397159D01*
X145794453Y-71397158D02*
X144205549Y-71397158D01*
X146700000Y-69194316D02*
X146700000Y-70600000D01*
X143250517Y-68977438D02*
G75*
G02*
X143300002Y-69194316I-450505J-216876D01*
G01*
X143250517Y-68977438D02*
G75*
G02*
X143953290Y-68328859I450515J216878D01*
G01*
X143300002Y-70600001D02*
G75*
G02*
X143250517Y-70816878I-499990J-1D01*
G01*
X143953290Y-71465455D02*
G75*
G02*
X143250517Y-70816878I-252258J431700D01*
G01*
X143953291Y-71465457D02*
G75*
G02*
X144205549Y-71397158I252261J-431710D01*
G01*
X144205548Y-68397158D02*
G75*
G02*
X143953290Y-68328859I3J500009D01*
G01*
X145794453Y-71397158D02*
G75*
G02*
X146046712Y-71465457I-3J-500012D01*
G01*
X146046712Y-68328860D02*
G75*
G02*
X145794454Y-68397160I-252262J431710D01*
G01*
X146046712Y-68328860D02*
G75*
G02*
X146749484Y-68977438I252258J-431700D01*
G01*
X146700000Y-69194315D02*
G75*
G02*
X146749479Y-68977435I500000J15D01*
G01*
X146749485Y-70816877D02*
G75*
G02*
X146046712Y-71465457I-450514J-216880D01*
G01*
X146749485Y-70816878D02*
G75*
G02*
X146700000Y-70600000I450515J216878D01*
G01*
%TO.C,LED10*%
X123300002Y-90600000D02*
X123300002Y-89194316D01*
X124205549Y-88397159D02*
X125794454Y-88397159D01*
X125794453Y-91397158D02*
X124205549Y-91397158D01*
X126700000Y-89194316D02*
X126700000Y-90600000D01*
X123250517Y-88977438D02*
G75*
G02*
X123300002Y-89194316I-450505J-216876D01*
G01*
X123250517Y-88977438D02*
G75*
G02*
X123953290Y-88328859I450515J216878D01*
G01*
X123300002Y-90600001D02*
G75*
G02*
X123250517Y-90816878I-499990J-1D01*
G01*
X123953290Y-91465455D02*
G75*
G02*
X123250517Y-90816878I-252258J431700D01*
G01*
X123953291Y-91465457D02*
G75*
G02*
X124205549Y-91397158I252261J-431710D01*
G01*
X124205548Y-88397158D02*
G75*
G02*
X123953290Y-88328859I3J500009D01*
G01*
X125794453Y-91397158D02*
G75*
G02*
X126046712Y-91465457I-3J-500012D01*
G01*
X126046712Y-88328860D02*
G75*
G02*
X125794454Y-88397160I-252262J431710D01*
G01*
X126046712Y-88328860D02*
G75*
G02*
X126749484Y-88977438I252258J-431700D01*
G01*
X126700000Y-89194315D02*
G75*
G02*
X126749479Y-88977435I500000J15D01*
G01*
X126749485Y-90816877D02*
G75*
G02*
X126046712Y-91465457I-450514J-216880D01*
G01*
X126749485Y-90816878D02*
G75*
G02*
X126700000Y-90600000I450515J216878D01*
G01*
%TO.C,LED20*%
X69305684Y-127800000D02*
X67900000Y-127800000D01*
X67102842Y-128705547D02*
X67102842Y-130294451D01*
X70102841Y-130294451D02*
X70102841Y-128705546D01*
X67900000Y-131199998D02*
X69305684Y-131199998D01*
X69522562Y-127750515D02*
G75*
G02*
X69305685Y-127799983I-216862J450615D01*
G01*
X69522562Y-127750515D02*
G75*
G02*
X70171141Y-128453288I216878J-450515D01*
G01*
X67900000Y-127800000D02*
G75*
G02*
X67683122Y-127750515I0J500000D01*
G01*
X67034543Y-128453288D02*
G75*
G02*
X67683121Y-127750520I431697J252258D01*
G01*
X67034543Y-128453288D02*
G75*
G02*
X67102842Y-128705547I-431713J-252262D01*
G01*
X70102841Y-128705546D02*
G75*
G02*
X70171141Y-128453288I500009J-4D01*
G01*
X67102842Y-130294451D02*
G75*
G02*
X67034543Y-130546709I-500009J3D01*
G01*
X70171141Y-130546710D02*
G75*
G02*
X70102842Y-130294452I431710J252261D01*
G01*
X70171141Y-130546710D02*
G75*
G02*
X69522562Y-131249483I-431701J-252258D01*
G01*
X69305684Y-131199998D02*
G75*
G02*
X69522562Y-131249483I2J-499990D01*
G01*
X67683122Y-131249483D02*
G75*
G02*
X67034545Y-130546710I-216877J450515D01*
G01*
X67683122Y-131249483D02*
G75*
G02*
X67899999Y-131199998I216876J-450505D01*
G01*
%TO.C,LED18*%
X67694316Y-46700000D02*
X69100000Y-46700000D01*
X69897158Y-45794453D02*
X69897158Y-44205549D01*
X66897159Y-44205549D02*
X66897159Y-45794454D01*
X69100000Y-43300002D02*
X67694316Y-43300002D01*
X67477438Y-46749485D02*
G75*
G02*
X67694315Y-46700017I216862J-450615D01*
G01*
X67477438Y-46749485D02*
G75*
G02*
X66828859Y-46046712I-216878J450515D01*
G01*
X69100000Y-46700000D02*
G75*
G02*
X69316878Y-46749485I0J-500000D01*
G01*
X69965457Y-46046712D02*
G75*
G02*
X69316879Y-46749480I-431697J-252258D01*
G01*
X69965457Y-46046712D02*
G75*
G02*
X69897158Y-45794453I431713J252262D01*
G01*
X66897159Y-45794454D02*
G75*
G02*
X66828859Y-46046712I-500009J4D01*
G01*
X69897158Y-44205549D02*
G75*
G02*
X69965457Y-43953291I500009J-3D01*
G01*
X66828859Y-43953290D02*
G75*
G02*
X66897158Y-44205548I-431710J-252261D01*
G01*
X66828859Y-43953290D02*
G75*
G02*
X67477438Y-43250517I431701J252258D01*
G01*
X67694316Y-43300002D02*
G75*
G02*
X67477438Y-43250517I-2J499990D01*
G01*
X69316878Y-43250517D02*
G75*
G02*
X69965455Y-43953290I216877J-450515D01*
G01*
X69316878Y-43250517D02*
G75*
G02*
X69100001Y-43300002I-216876J450505D01*
G01*
%TO.C,LED19*%
X161694316Y-131200000D02*
X163100000Y-131200000D01*
X163897158Y-130294453D02*
X163897158Y-128705549D01*
X160897159Y-128705549D02*
X160897159Y-130294454D01*
X163100000Y-127800002D02*
X161694316Y-127800002D01*
X161477438Y-131249485D02*
G75*
G02*
X161694315Y-131200017I216862J-450615D01*
G01*
X161477438Y-131249485D02*
G75*
G02*
X160828859Y-130546712I-216878J450515D01*
G01*
X163100000Y-131200000D02*
G75*
G02*
X163316878Y-131249485I0J-500000D01*
G01*
X163965457Y-130546712D02*
G75*
G02*
X163316879Y-131249480I-431697J-252258D01*
G01*
X163965457Y-130546712D02*
G75*
G02*
X163897158Y-130294453I431713J252262D01*
G01*
X160897159Y-130294454D02*
G75*
G02*
X160828859Y-130546712I-500009J4D01*
G01*
X163897158Y-128705549D02*
G75*
G02*
X163965457Y-128453291I500009J-3D01*
G01*
X160828859Y-128453290D02*
G75*
G02*
X160897158Y-128705548I-431710J-252261D01*
G01*
X160828859Y-128453290D02*
G75*
G02*
X161477438Y-127750517I431701J252258D01*
G01*
X161694316Y-127800002D02*
G75*
G02*
X161477438Y-127750517I-2J499990D01*
G01*
X163316878Y-127750517D02*
G75*
G02*
X163965455Y-128453290I216877J-450515D01*
G01*
X163316878Y-127750517D02*
G75*
G02*
X163100001Y-127800002I-216876J450505D01*
G01*
%TO.C,LED17*%
X163305684Y-43300000D02*
X161900000Y-43300000D01*
X161102842Y-44205547D02*
X161102842Y-45794451D01*
X164102841Y-45794451D02*
X164102841Y-44205546D01*
X161900000Y-46699998D02*
X163305684Y-46699998D01*
X163522562Y-43250515D02*
G75*
G02*
X163305685Y-43299983I-216862J450615D01*
G01*
X163522562Y-43250515D02*
G75*
G02*
X164171141Y-43953288I216878J-450515D01*
G01*
X161900000Y-43300000D02*
G75*
G02*
X161683122Y-43250515I0J500000D01*
G01*
X161034543Y-43953288D02*
G75*
G02*
X161683121Y-43250520I431697J252258D01*
G01*
X161034543Y-43953288D02*
G75*
G02*
X161102842Y-44205547I-431713J-252262D01*
G01*
X164102841Y-44205546D02*
G75*
G02*
X164171141Y-43953288I500009J-4D01*
G01*
X161102842Y-45794451D02*
G75*
G02*
X161034543Y-46046709I-500009J3D01*
G01*
X164171141Y-46046710D02*
G75*
G02*
X164102842Y-45794452I431710J252261D01*
G01*
X164171141Y-46046710D02*
G75*
G02*
X163522562Y-46749483I-431701J-252258D01*
G01*
X163305684Y-46699998D02*
G75*
G02*
X163522562Y-46749483I2J-499990D01*
G01*
X161683122Y-46749483D02*
G75*
G02*
X161034545Y-46046710I-216877J450515D01*
G01*
X161683122Y-46749483D02*
G75*
G02*
X161899999Y-46699998I216876J-450505D01*
G01*
%TD*%
M02*
