%TF.GenerationSoftware,KiCad,Pcbnew,10.0.4*%
%TF.CreationDate,2026-09-28T23:47:19-04:00*%
%TF.ProjectId,KSPMacroPad,4b53504d-6163-4726-9f50-61642e6b6963,3*%
%TF.SameCoordinates,Original*%
%TF.FileFunction,Legend,Bot*%
%TF.FilePolarity,Positive*%
%FSLAX46Y46*%
G04 Gerber Fmt 4.6, Leading zero omitted, Abs format (unit mm)*
G04 Created by KiCad (PCBNEW 10.0.4) date 2026-09-28 23:47:19*
%MOMM*%
%LPD*%
G01*
G04 APERTURE LIST*
%ADD10C,0.100000*%
%ADD11C,0.150000*%
%ADD12C,0.200000*%
%ADD13C,0.101600*%
%ADD14C,0.120000*%
%ADD15C,0.127000*%
%ADD16C,0.254000*%
%ADD17C,0.025400*%
G04 APERTURE END LIST*
D10*
X69761664Y-76835789D02*
X68763807Y-76835789D01*
X68763807Y-76835789D02*
X68582378Y-76745074D01*
X68582378Y-76745074D02*
X68491664Y-76563646D01*
X68491664Y-76563646D02*
X68491664Y-76200789D01*
X68491664Y-76200789D02*
X68582378Y-76019360D01*
X69670950Y-76835789D02*
X69761664Y-76654360D01*
X69761664Y-76654360D02*
X69761664Y-76200789D01*
X69761664Y-76200789D02*
X69670950Y-76019360D01*
X69670950Y-76019360D02*
X69489521Y-75928646D01*
X69489521Y-75928646D02*
X69308092Y-75928646D01*
X69308092Y-75928646D02*
X69126664Y-76019360D01*
X69126664Y-76019360D02*
X69035950Y-76200789D01*
X69035950Y-76200789D02*
X69035950Y-76654360D01*
X69035950Y-76654360D02*
X68945235Y-76835789D01*
X69761664Y-79194360D02*
X68491664Y-79194360D01*
X68673092Y-79194360D02*
X68582378Y-79285074D01*
X68582378Y-79285074D02*
X68491664Y-79466503D01*
X68491664Y-79466503D02*
X68491664Y-79738646D01*
X68491664Y-79738646D02*
X68582378Y-79920074D01*
X68582378Y-79920074D02*
X68763807Y-80010789D01*
X68763807Y-80010789D02*
X69761664Y-80010789D01*
X68763807Y-80010789D02*
X68582378Y-80101503D01*
X68582378Y-80101503D02*
X68491664Y-80282931D01*
X68491664Y-80282931D02*
X68491664Y-80555074D01*
X68491664Y-80555074D02*
X68582378Y-80736503D01*
X68582378Y-80736503D02*
X68763807Y-80827217D01*
X68763807Y-80827217D02*
X69761664Y-80827217D01*
X69761664Y-81734360D02*
X68491664Y-81734360D01*
X67856664Y-81734360D02*
X67947378Y-81643646D01*
X67947378Y-81643646D02*
X68038092Y-81734360D01*
X68038092Y-81734360D02*
X67947378Y-81825074D01*
X67947378Y-81825074D02*
X67856664Y-81734360D01*
X67856664Y-81734360D02*
X68038092Y-81734360D01*
X68491664Y-82641503D02*
X69761664Y-82641503D01*
X68673092Y-82641503D02*
X68582378Y-82732217D01*
X68582378Y-82732217D02*
X68491664Y-82913646D01*
X68491664Y-82913646D02*
X68491664Y-83185789D01*
X68491664Y-83185789D02*
X68582378Y-83367217D01*
X68582378Y-83367217D02*
X68763807Y-83457932D01*
X68763807Y-83457932D02*
X69761664Y-83457932D01*
X68491664Y-84092931D02*
X68491664Y-84818645D01*
X67856664Y-84365074D02*
X69489521Y-84365074D01*
X69489521Y-84365074D02*
X69670950Y-84455788D01*
X69670950Y-84455788D02*
X69761664Y-84637217D01*
X69761664Y-84637217D02*
X69761664Y-84818645D01*
X68491664Y-85272216D02*
X69761664Y-85725788D01*
X68491664Y-86179359D02*
X69761664Y-85725788D01*
X69761664Y-85725788D02*
X70215235Y-85544359D01*
X70215235Y-85544359D02*
X70305950Y-85453645D01*
X70305950Y-85453645D02*
X70396664Y-85272216D01*
X68491664Y-86632931D02*
X68491664Y-87358645D01*
X67856664Y-86905074D02*
X69489521Y-86905074D01*
X69489521Y-86905074D02*
X69670950Y-86995788D01*
X69670950Y-86995788D02*
X69761664Y-87177217D01*
X69761664Y-87177217D02*
X69761664Y-87358645D01*
X69761664Y-87993645D02*
X67856664Y-87993645D01*
X69761664Y-88810074D02*
X68763807Y-88810074D01*
X68763807Y-88810074D02*
X68582378Y-88719359D01*
X68582378Y-88719359D02*
X68491664Y-88537931D01*
X68491664Y-88537931D02*
X68491664Y-88265788D01*
X68491664Y-88265788D02*
X68582378Y-88084359D01*
X68582378Y-88084359D02*
X68673092Y-87993645D01*
X69670950Y-90442930D02*
X69761664Y-90261502D01*
X69761664Y-90261502D02*
X69761664Y-89898645D01*
X69761664Y-89898645D02*
X69670950Y-89717216D01*
X69670950Y-89717216D02*
X69489521Y-89626502D01*
X69489521Y-89626502D02*
X68763807Y-89626502D01*
X68763807Y-89626502D02*
X68582378Y-89717216D01*
X68582378Y-89717216D02*
X68491664Y-89898645D01*
X68491664Y-89898645D02*
X68491664Y-90261502D01*
X68491664Y-90261502D02*
X68582378Y-90442930D01*
X68582378Y-90442930D02*
X68763807Y-90533645D01*
X68763807Y-90533645D02*
X68945235Y-90533645D01*
X68945235Y-90533645D02*
X69126664Y-89626502D01*
X68491664Y-91077930D02*
X68491664Y-91803644D01*
X67856664Y-91350073D02*
X69489521Y-91350073D01*
X69489521Y-91350073D02*
X69670950Y-91440787D01*
X69670950Y-91440787D02*
X69761664Y-91622216D01*
X69761664Y-91622216D02*
X69761664Y-91803644D01*
X69670950Y-93164358D02*
X69761664Y-92982930D01*
X69761664Y-92982930D02*
X69761664Y-92620073D01*
X69761664Y-92620073D02*
X69670950Y-92438644D01*
X69670950Y-92438644D02*
X69489521Y-92347930D01*
X69489521Y-92347930D02*
X68763807Y-92347930D01*
X68763807Y-92347930D02*
X68582378Y-92438644D01*
X68582378Y-92438644D02*
X68491664Y-92620073D01*
X68491664Y-92620073D02*
X68491664Y-92982930D01*
X68491664Y-92982930D02*
X68582378Y-93164358D01*
X68582378Y-93164358D02*
X68763807Y-93255073D01*
X68763807Y-93255073D02*
X68945235Y-93255073D01*
X68945235Y-93255073D02*
X69126664Y-92347930D01*
X69670950Y-94887930D02*
X69761664Y-94706501D01*
X69761664Y-94706501D02*
X69761664Y-94343644D01*
X69761664Y-94343644D02*
X69670950Y-94162215D01*
X69670950Y-94162215D02*
X69580235Y-94071501D01*
X69580235Y-94071501D02*
X69398807Y-93980787D01*
X69398807Y-93980787D02*
X68854521Y-93980787D01*
X68854521Y-93980787D02*
X68673092Y-94071501D01*
X68673092Y-94071501D02*
X68582378Y-94162215D01*
X68582378Y-94162215D02*
X68491664Y-94343644D01*
X68491664Y-94343644D02*
X68491664Y-94706501D01*
X68491664Y-94706501D02*
X68582378Y-94887930D01*
X69761664Y-95704358D02*
X67856664Y-95704358D01*
X69761664Y-96520787D02*
X68763807Y-96520787D01*
X68763807Y-96520787D02*
X68582378Y-96430072D01*
X68582378Y-96430072D02*
X68491664Y-96248644D01*
X68491664Y-96248644D02*
X68491664Y-95976501D01*
X68491664Y-95976501D02*
X68582378Y-95795072D01*
X68582378Y-95795072D02*
X68673092Y-95704358D01*
X69761664Y-97427929D02*
X68491664Y-97427929D01*
X68673092Y-97427929D02*
X68582378Y-97518643D01*
X68582378Y-97518643D02*
X68491664Y-97700072D01*
X68491664Y-97700072D02*
X68491664Y-97972215D01*
X68491664Y-97972215D02*
X68582378Y-98153643D01*
X68582378Y-98153643D02*
X68763807Y-98244358D01*
X68763807Y-98244358D02*
X69761664Y-98244358D01*
X68763807Y-98244358D02*
X68582378Y-98335072D01*
X68582378Y-98335072D02*
X68491664Y-98516500D01*
X68491664Y-98516500D02*
X68491664Y-98788643D01*
X68491664Y-98788643D02*
X68582378Y-98970072D01*
X68582378Y-98970072D02*
X68763807Y-99060786D01*
X68763807Y-99060786D02*
X69761664Y-99060786D01*
X69761664Y-100784358D02*
X68763807Y-100784358D01*
X68763807Y-100784358D02*
X68582378Y-100693643D01*
X68582378Y-100693643D02*
X68491664Y-100512215D01*
X68491664Y-100512215D02*
X68491664Y-100149358D01*
X68491664Y-100149358D02*
X68582378Y-99967929D01*
X69670950Y-100784358D02*
X69761664Y-100602929D01*
X69761664Y-100602929D02*
X69761664Y-100149358D01*
X69761664Y-100149358D02*
X69670950Y-99967929D01*
X69670950Y-99967929D02*
X69489521Y-99877215D01*
X69489521Y-99877215D02*
X69308092Y-99877215D01*
X69308092Y-99877215D02*
X69126664Y-99967929D01*
X69126664Y-99967929D02*
X69035950Y-100149358D01*
X69035950Y-100149358D02*
X69035950Y-100602929D01*
X69035950Y-100602929D02*
X68945235Y-100784358D01*
X68491664Y-101691500D02*
X69761664Y-101691500D01*
X68673092Y-101691500D02*
X68582378Y-101782214D01*
X68582378Y-101782214D02*
X68491664Y-101963643D01*
X68491664Y-101963643D02*
X68491664Y-102235786D01*
X68491664Y-102235786D02*
X68582378Y-102417214D01*
X68582378Y-102417214D02*
X68763807Y-102507929D01*
X68763807Y-102507929D02*
X69761664Y-102507929D01*
X68491664Y-104866500D02*
X70396664Y-104866500D01*
X68582378Y-104866500D02*
X68491664Y-105047929D01*
X68491664Y-105047929D02*
X68491664Y-105410786D01*
X68491664Y-105410786D02*
X68582378Y-105592214D01*
X68582378Y-105592214D02*
X68673092Y-105682929D01*
X68673092Y-105682929D02*
X68854521Y-105773643D01*
X68854521Y-105773643D02*
X69398807Y-105773643D01*
X69398807Y-105773643D02*
X69580235Y-105682929D01*
X69580235Y-105682929D02*
X69670950Y-105592214D01*
X69670950Y-105592214D02*
X69761664Y-105410786D01*
X69761664Y-105410786D02*
X69761664Y-105047929D01*
X69761664Y-105047929D02*
X69670950Y-104866500D01*
X69761664Y-106590071D02*
X68491664Y-106590071D01*
X68854521Y-106590071D02*
X68673092Y-106680785D01*
X68673092Y-106680785D02*
X68582378Y-106771500D01*
X68582378Y-106771500D02*
X68491664Y-106952928D01*
X68491664Y-106952928D02*
X68491664Y-107134357D01*
X69761664Y-108041500D02*
X69670950Y-107860071D01*
X69670950Y-107860071D02*
X69580235Y-107769357D01*
X69580235Y-107769357D02*
X69398807Y-107678643D01*
X69398807Y-107678643D02*
X68854521Y-107678643D01*
X68854521Y-107678643D02*
X68673092Y-107769357D01*
X68673092Y-107769357D02*
X68582378Y-107860071D01*
X68582378Y-107860071D02*
X68491664Y-108041500D01*
X68491664Y-108041500D02*
X68491664Y-108313643D01*
X68491664Y-108313643D02*
X68582378Y-108495071D01*
X68582378Y-108495071D02*
X68673092Y-108585786D01*
X68673092Y-108585786D02*
X68854521Y-108676500D01*
X68854521Y-108676500D02*
X69398807Y-108676500D01*
X69398807Y-108676500D02*
X69580235Y-108585786D01*
X69580235Y-108585786D02*
X69670950Y-108495071D01*
X69670950Y-108495071D02*
X69761664Y-108313643D01*
X69761664Y-108313643D02*
X69761664Y-108041500D01*
X68491664Y-109492928D02*
X70124521Y-109492928D01*
X70124521Y-109492928D02*
X70305950Y-109402214D01*
X70305950Y-109402214D02*
X70396664Y-109220785D01*
X70396664Y-109220785D02*
X70396664Y-109130071D01*
X67856664Y-109492928D02*
X67947378Y-109402214D01*
X67947378Y-109402214D02*
X68038092Y-109492928D01*
X68038092Y-109492928D02*
X67947378Y-109583642D01*
X67947378Y-109583642D02*
X67856664Y-109492928D01*
X67856664Y-109492928D02*
X68038092Y-109492928D01*
X69670950Y-111125785D02*
X69761664Y-110944357D01*
X69761664Y-110944357D02*
X69761664Y-110581500D01*
X69761664Y-110581500D02*
X69670950Y-110400071D01*
X69670950Y-110400071D02*
X69489521Y-110309357D01*
X69489521Y-110309357D02*
X68763807Y-110309357D01*
X68763807Y-110309357D02*
X68582378Y-110400071D01*
X68582378Y-110400071D02*
X68491664Y-110581500D01*
X68491664Y-110581500D02*
X68491664Y-110944357D01*
X68491664Y-110944357D02*
X68582378Y-111125785D01*
X68582378Y-111125785D02*
X68763807Y-111216500D01*
X68763807Y-111216500D02*
X68945235Y-111216500D01*
X68945235Y-111216500D02*
X69126664Y-110309357D01*
X69670950Y-112849357D02*
X69761664Y-112667928D01*
X69761664Y-112667928D02*
X69761664Y-112305071D01*
X69761664Y-112305071D02*
X69670950Y-112123642D01*
X69670950Y-112123642D02*
X69580235Y-112032928D01*
X69580235Y-112032928D02*
X69398807Y-111942214D01*
X69398807Y-111942214D02*
X68854521Y-111942214D01*
X68854521Y-111942214D02*
X68673092Y-112032928D01*
X68673092Y-112032928D02*
X68582378Y-112123642D01*
X68582378Y-112123642D02*
X68491664Y-112305071D01*
X68491664Y-112305071D02*
X68491664Y-112667928D01*
X68491664Y-112667928D02*
X68582378Y-112849357D01*
X68491664Y-113393642D02*
X68491664Y-114119356D01*
X67856664Y-113665785D02*
X69489521Y-113665785D01*
X69489521Y-113665785D02*
X69670950Y-113756499D01*
X69670950Y-113756499D02*
X69761664Y-113937928D01*
X69761664Y-113937928D02*
X69761664Y-114119356D01*
D11*
X156074819Y-82785714D02*
X155074819Y-82785714D01*
X155074819Y-82785714D02*
X155074819Y-83023809D01*
X155074819Y-83023809D02*
X155122438Y-83166666D01*
X155122438Y-83166666D02*
X155217676Y-83261904D01*
X155217676Y-83261904D02*
X155312914Y-83309523D01*
X155312914Y-83309523D02*
X155503390Y-83357142D01*
X155503390Y-83357142D02*
X155646247Y-83357142D01*
X155646247Y-83357142D02*
X155836723Y-83309523D01*
X155836723Y-83309523D02*
X155931961Y-83261904D01*
X155931961Y-83261904D02*
X156027200Y-83166666D01*
X156027200Y-83166666D02*
X156074819Y-83023809D01*
X156074819Y-83023809D02*
X156074819Y-82785714D01*
X156074819Y-84309523D02*
X156074819Y-83738095D01*
X156074819Y-84023809D02*
X155074819Y-84023809D01*
X155074819Y-84023809D02*
X155217676Y-83928571D01*
X155217676Y-83928571D02*
X155312914Y-83833333D01*
X155312914Y-83833333D02*
X155360533Y-83738095D01*
X155408152Y-85166666D02*
X156074819Y-85166666D01*
X155027200Y-84928571D02*
X155741485Y-84690476D01*
X155741485Y-84690476D02*
X155741485Y-85309523D01*
X155754819Y-87548095D02*
X154754819Y-87548095D01*
X155754819Y-88119523D02*
X155183390Y-87690952D01*
X154754819Y-88119523D02*
X155326247Y-87548095D01*
X136074819Y-63261905D02*
X135074819Y-63261905D01*
X135074819Y-63261905D02*
X135074819Y-63500000D01*
X135074819Y-63500000D02*
X135122438Y-63642857D01*
X135122438Y-63642857D02*
X135217676Y-63738095D01*
X135217676Y-63738095D02*
X135312914Y-63785714D01*
X135312914Y-63785714D02*
X135503390Y-63833333D01*
X135503390Y-63833333D02*
X135646247Y-63833333D01*
X135646247Y-63833333D02*
X135836723Y-63785714D01*
X135836723Y-63785714D02*
X135931961Y-63738095D01*
X135931961Y-63738095D02*
X136027200Y-63642857D01*
X136027200Y-63642857D02*
X136074819Y-63500000D01*
X136074819Y-63500000D02*
X136074819Y-63261905D01*
X136074819Y-64309524D02*
X136074819Y-64500000D01*
X136074819Y-64500000D02*
X136027200Y-64595238D01*
X136027200Y-64595238D02*
X135979580Y-64642857D01*
X135979580Y-64642857D02*
X135836723Y-64738095D01*
X135836723Y-64738095D02*
X135646247Y-64785714D01*
X135646247Y-64785714D02*
X135265295Y-64785714D01*
X135265295Y-64785714D02*
X135170057Y-64738095D01*
X135170057Y-64738095D02*
X135122438Y-64690476D01*
X135122438Y-64690476D02*
X135074819Y-64595238D01*
X135074819Y-64595238D02*
X135074819Y-64404762D01*
X135074819Y-64404762D02*
X135122438Y-64309524D01*
X135122438Y-64309524D02*
X135170057Y-64261905D01*
X135170057Y-64261905D02*
X135265295Y-64214286D01*
X135265295Y-64214286D02*
X135503390Y-64214286D01*
X135503390Y-64214286D02*
X135598628Y-64261905D01*
X135598628Y-64261905D02*
X135646247Y-64309524D01*
X135646247Y-64309524D02*
X135693866Y-64404762D01*
X135693866Y-64404762D02*
X135693866Y-64595238D01*
X135693866Y-64595238D02*
X135646247Y-64690476D01*
X135646247Y-64690476D02*
X135598628Y-64738095D01*
X135598628Y-64738095D02*
X135503390Y-64785714D01*
X135754819Y-67548095D02*
X134754819Y-67548095D01*
X135754819Y-68119523D02*
X135183390Y-67690952D01*
X134754819Y-68119523D02*
X135326247Y-67548095D01*
X95574819Y-83071905D02*
X94574819Y-83071905D01*
X94574819Y-83071905D02*
X94574819Y-83310000D01*
X94574819Y-83310000D02*
X94622438Y-83452857D01*
X94622438Y-83452857D02*
X94717676Y-83548095D01*
X94717676Y-83548095D02*
X94812914Y-83595714D01*
X94812914Y-83595714D02*
X95003390Y-83643333D01*
X95003390Y-83643333D02*
X95146247Y-83643333D01*
X95146247Y-83643333D02*
X95336723Y-83595714D01*
X95336723Y-83595714D02*
X95431961Y-83548095D01*
X95431961Y-83548095D02*
X95527200Y-83452857D01*
X95527200Y-83452857D02*
X95574819Y-83310000D01*
X95574819Y-83310000D02*
X95574819Y-83071905D01*
X94670057Y-84024286D02*
X94622438Y-84071905D01*
X94622438Y-84071905D02*
X94574819Y-84167143D01*
X94574819Y-84167143D02*
X94574819Y-84405238D01*
X94574819Y-84405238D02*
X94622438Y-84500476D01*
X94622438Y-84500476D02*
X94670057Y-84548095D01*
X94670057Y-84548095D02*
X94765295Y-84595714D01*
X94765295Y-84595714D02*
X94860533Y-84595714D01*
X94860533Y-84595714D02*
X95003390Y-84548095D01*
X95003390Y-84548095D02*
X95574819Y-83976667D01*
X95574819Y-83976667D02*
X95574819Y-84595714D01*
X95254819Y-87358095D02*
X94254819Y-87358095D01*
X95254819Y-87929523D02*
X94683390Y-87500952D01*
X94254819Y-87929523D02*
X94826247Y-87358095D01*
X116074819Y-62761905D02*
X115074819Y-62761905D01*
X115074819Y-62761905D02*
X115074819Y-63000000D01*
X115074819Y-63000000D02*
X115122438Y-63142857D01*
X115122438Y-63142857D02*
X115217676Y-63238095D01*
X115217676Y-63238095D02*
X115312914Y-63285714D01*
X115312914Y-63285714D02*
X115503390Y-63333333D01*
X115503390Y-63333333D02*
X115646247Y-63333333D01*
X115646247Y-63333333D02*
X115836723Y-63285714D01*
X115836723Y-63285714D02*
X115931961Y-63238095D01*
X115931961Y-63238095D02*
X116027200Y-63142857D01*
X116027200Y-63142857D02*
X116074819Y-63000000D01*
X116074819Y-63000000D02*
X116074819Y-62761905D01*
X115074819Y-64238095D02*
X115074819Y-63761905D01*
X115074819Y-63761905D02*
X115551009Y-63714286D01*
X115551009Y-63714286D02*
X115503390Y-63761905D01*
X115503390Y-63761905D02*
X115455771Y-63857143D01*
X115455771Y-63857143D02*
X115455771Y-64095238D01*
X115455771Y-64095238D02*
X115503390Y-64190476D01*
X115503390Y-64190476D02*
X115551009Y-64238095D01*
X115551009Y-64238095D02*
X115646247Y-64285714D01*
X115646247Y-64285714D02*
X115884342Y-64285714D01*
X115884342Y-64285714D02*
X115979580Y-64238095D01*
X115979580Y-64238095D02*
X116027200Y-64190476D01*
X116027200Y-64190476D02*
X116074819Y-64095238D01*
X116074819Y-64095238D02*
X116074819Y-63857143D01*
X116074819Y-63857143D02*
X116027200Y-63761905D01*
X116027200Y-63761905D02*
X115979580Y-63714286D01*
X115754819Y-67048095D02*
X114754819Y-67048095D01*
X115754819Y-67619523D02*
X115183390Y-67190952D01*
X114754819Y-67619523D02*
X115326247Y-67048095D01*
X95574819Y-103261905D02*
X94574819Y-103261905D01*
X94574819Y-103261905D02*
X94574819Y-103500000D01*
X94574819Y-103500000D02*
X94622438Y-103642857D01*
X94622438Y-103642857D02*
X94717676Y-103738095D01*
X94717676Y-103738095D02*
X94812914Y-103785714D01*
X94812914Y-103785714D02*
X95003390Y-103833333D01*
X95003390Y-103833333D02*
X95146247Y-103833333D01*
X95146247Y-103833333D02*
X95336723Y-103785714D01*
X95336723Y-103785714D02*
X95431961Y-103738095D01*
X95431961Y-103738095D02*
X95527200Y-103642857D01*
X95527200Y-103642857D02*
X95574819Y-103500000D01*
X95574819Y-103500000D02*
X95574819Y-103261905D01*
X94574819Y-104166667D02*
X94574819Y-104785714D01*
X94574819Y-104785714D02*
X94955771Y-104452381D01*
X94955771Y-104452381D02*
X94955771Y-104595238D01*
X94955771Y-104595238D02*
X95003390Y-104690476D01*
X95003390Y-104690476D02*
X95051009Y-104738095D01*
X95051009Y-104738095D02*
X95146247Y-104785714D01*
X95146247Y-104785714D02*
X95384342Y-104785714D01*
X95384342Y-104785714D02*
X95479580Y-104738095D01*
X95479580Y-104738095D02*
X95527200Y-104690476D01*
X95527200Y-104690476D02*
X95574819Y-104595238D01*
X95574819Y-104595238D02*
X95574819Y-104309524D01*
X95574819Y-104309524D02*
X95527200Y-104214286D01*
X95527200Y-104214286D02*
X95479580Y-104166667D01*
X95254819Y-107548095D02*
X94254819Y-107548095D01*
X95254819Y-108119523D02*
X94683390Y-107690952D01*
X94254819Y-108119523D02*
X94826247Y-107548095D01*
X136074819Y-102785714D02*
X135074819Y-102785714D01*
X135074819Y-102785714D02*
X135074819Y-103023809D01*
X135074819Y-103023809D02*
X135122438Y-103166666D01*
X135122438Y-103166666D02*
X135217676Y-103261904D01*
X135217676Y-103261904D02*
X135312914Y-103309523D01*
X135312914Y-103309523D02*
X135503390Y-103357142D01*
X135503390Y-103357142D02*
X135646247Y-103357142D01*
X135646247Y-103357142D02*
X135836723Y-103309523D01*
X135836723Y-103309523D02*
X135931961Y-103261904D01*
X135931961Y-103261904D02*
X136027200Y-103166666D01*
X136027200Y-103166666D02*
X136074819Y-103023809D01*
X136074819Y-103023809D02*
X136074819Y-102785714D01*
X136074819Y-104309523D02*
X136074819Y-103738095D01*
X136074819Y-104023809D02*
X135074819Y-104023809D01*
X135074819Y-104023809D02*
X135217676Y-103928571D01*
X135217676Y-103928571D02*
X135312914Y-103833333D01*
X135312914Y-103833333D02*
X135360533Y-103738095D01*
X136074819Y-105261904D02*
X136074819Y-104690476D01*
X136074819Y-104976190D02*
X135074819Y-104976190D01*
X135074819Y-104976190D02*
X135217676Y-104880952D01*
X135217676Y-104880952D02*
X135312914Y-104785714D01*
X135312914Y-104785714D02*
X135360533Y-104690476D01*
X135754819Y-107548095D02*
X134754819Y-107548095D01*
X135754819Y-108119523D02*
X135183390Y-107690952D01*
X134754819Y-108119523D02*
X135326247Y-107548095D01*
X156074819Y-122595714D02*
X155074819Y-122595714D01*
X155074819Y-122595714D02*
X155074819Y-122833809D01*
X155074819Y-122833809D02*
X155122438Y-122976666D01*
X155122438Y-122976666D02*
X155217676Y-123071904D01*
X155217676Y-123071904D02*
X155312914Y-123119523D01*
X155312914Y-123119523D02*
X155503390Y-123167142D01*
X155503390Y-123167142D02*
X155646247Y-123167142D01*
X155646247Y-123167142D02*
X155836723Y-123119523D01*
X155836723Y-123119523D02*
X155931961Y-123071904D01*
X155931961Y-123071904D02*
X156027200Y-122976666D01*
X156027200Y-122976666D02*
X156074819Y-122833809D01*
X156074819Y-122833809D02*
X156074819Y-122595714D01*
X156074819Y-124119523D02*
X156074819Y-123548095D01*
X156074819Y-123833809D02*
X155074819Y-123833809D01*
X155074819Y-123833809D02*
X155217676Y-123738571D01*
X155217676Y-123738571D02*
X155312914Y-123643333D01*
X155312914Y-123643333D02*
X155360533Y-123548095D01*
X155074819Y-124976666D02*
X155074819Y-124786190D01*
X155074819Y-124786190D02*
X155122438Y-124690952D01*
X155122438Y-124690952D02*
X155170057Y-124643333D01*
X155170057Y-124643333D02*
X155312914Y-124548095D01*
X155312914Y-124548095D02*
X155503390Y-124500476D01*
X155503390Y-124500476D02*
X155884342Y-124500476D01*
X155884342Y-124500476D02*
X155979580Y-124548095D01*
X155979580Y-124548095D02*
X156027200Y-124595714D01*
X156027200Y-124595714D02*
X156074819Y-124690952D01*
X156074819Y-124690952D02*
X156074819Y-124881428D01*
X156074819Y-124881428D02*
X156027200Y-124976666D01*
X156027200Y-124976666D02*
X155979580Y-125024285D01*
X155979580Y-125024285D02*
X155884342Y-125071904D01*
X155884342Y-125071904D02*
X155646247Y-125071904D01*
X155646247Y-125071904D02*
X155551009Y-125024285D01*
X155551009Y-125024285D02*
X155503390Y-124976666D01*
X155503390Y-124976666D02*
X155455771Y-124881428D01*
X155455771Y-124881428D02*
X155455771Y-124690952D01*
X155455771Y-124690952D02*
X155503390Y-124595714D01*
X155503390Y-124595714D02*
X155551009Y-124548095D01*
X155551009Y-124548095D02*
X155646247Y-124500476D01*
X155754819Y-127358095D02*
X154754819Y-127358095D01*
X155754819Y-127929523D02*
X155183390Y-127500952D01*
X154754819Y-127929523D02*
X155326247Y-127358095D01*
D12*
X71952219Y-128404761D02*
X71952219Y-127928571D01*
X71952219Y-127928571D02*
X70952219Y-127928571D01*
X71428409Y-128738095D02*
X71428409Y-129071428D01*
X71952219Y-129214285D02*
X71952219Y-128738095D01*
X71952219Y-128738095D02*
X70952219Y-128738095D01*
X70952219Y-128738095D02*
X70952219Y-129214285D01*
X71952219Y-129642857D02*
X70952219Y-129642857D01*
X70952219Y-129642857D02*
X70952219Y-129880952D01*
X70952219Y-129880952D02*
X70999838Y-130023809D01*
X70999838Y-130023809D02*
X71095076Y-130119047D01*
X71095076Y-130119047D02*
X71190314Y-130166666D01*
X71190314Y-130166666D02*
X71380790Y-130214285D01*
X71380790Y-130214285D02*
X71523647Y-130214285D01*
X71523647Y-130214285D02*
X71714123Y-130166666D01*
X71714123Y-130166666D02*
X71809361Y-130119047D01*
X71809361Y-130119047D02*
X71904600Y-130023809D01*
X71904600Y-130023809D02*
X71952219Y-129880952D01*
X71952219Y-129880952D02*
X71952219Y-129642857D01*
X71047457Y-130595238D02*
X70999838Y-130642857D01*
X70999838Y-130642857D02*
X70952219Y-130738095D01*
X70952219Y-130738095D02*
X70952219Y-130976190D01*
X70952219Y-130976190D02*
X70999838Y-131071428D01*
X70999838Y-131071428D02*
X71047457Y-131119047D01*
X71047457Y-131119047D02*
X71142695Y-131166666D01*
X71142695Y-131166666D02*
X71237933Y-131166666D01*
X71237933Y-131166666D02*
X71380790Y-131119047D01*
X71380790Y-131119047D02*
X71952219Y-130547619D01*
X71952219Y-130547619D02*
X71952219Y-131166666D01*
X70952219Y-131785714D02*
X70952219Y-131880952D01*
X70952219Y-131880952D02*
X70999838Y-131976190D01*
X70999838Y-131976190D02*
X71047457Y-132023809D01*
X71047457Y-132023809D02*
X71142695Y-132071428D01*
X71142695Y-132071428D02*
X71333171Y-132119047D01*
X71333171Y-132119047D02*
X71571266Y-132119047D01*
X71571266Y-132119047D02*
X71761742Y-132071428D01*
X71761742Y-132071428D02*
X71856980Y-132023809D01*
X71856980Y-132023809D02*
X71904600Y-131976190D01*
X71904600Y-131976190D02*
X71952219Y-131880952D01*
X71952219Y-131880952D02*
X71952219Y-131785714D01*
X71952219Y-131785714D02*
X71904600Y-131690476D01*
X71904600Y-131690476D02*
X71856980Y-131642857D01*
X71856980Y-131642857D02*
X71761742Y-131595238D01*
X71761742Y-131595238D02*
X71571266Y-131547619D01*
X71571266Y-131547619D02*
X71333171Y-131547619D01*
X71333171Y-131547619D02*
X71142695Y-131595238D01*
X71142695Y-131595238D02*
X71047457Y-131642857D01*
X71047457Y-131642857D02*
X70999838Y-131690476D01*
X70999838Y-131690476D02*
X70952219Y-131785714D01*
X71952219Y-42904761D02*
X71952219Y-42428571D01*
X71952219Y-42428571D02*
X70952219Y-42428571D01*
X71428409Y-43238095D02*
X71428409Y-43571428D01*
X71952219Y-43714285D02*
X71952219Y-43238095D01*
X71952219Y-43238095D02*
X70952219Y-43238095D01*
X70952219Y-43238095D02*
X70952219Y-43714285D01*
X71952219Y-44142857D02*
X70952219Y-44142857D01*
X70952219Y-44142857D02*
X70952219Y-44380952D01*
X70952219Y-44380952D02*
X70999838Y-44523809D01*
X70999838Y-44523809D02*
X71095076Y-44619047D01*
X71095076Y-44619047D02*
X71190314Y-44666666D01*
X71190314Y-44666666D02*
X71380790Y-44714285D01*
X71380790Y-44714285D02*
X71523647Y-44714285D01*
X71523647Y-44714285D02*
X71714123Y-44666666D01*
X71714123Y-44666666D02*
X71809361Y-44619047D01*
X71809361Y-44619047D02*
X71904600Y-44523809D01*
X71904600Y-44523809D02*
X71952219Y-44380952D01*
X71952219Y-44380952D02*
X71952219Y-44142857D01*
X71952219Y-45666666D02*
X71952219Y-45095238D01*
X71952219Y-45380952D02*
X70952219Y-45380952D01*
X70952219Y-45380952D02*
X71095076Y-45285714D01*
X71095076Y-45285714D02*
X71190314Y-45190476D01*
X71190314Y-45190476D02*
X71237933Y-45095238D01*
X71380790Y-46238095D02*
X71333171Y-46142857D01*
X71333171Y-46142857D02*
X71285552Y-46095238D01*
X71285552Y-46095238D02*
X71190314Y-46047619D01*
X71190314Y-46047619D02*
X71142695Y-46047619D01*
X71142695Y-46047619D02*
X71047457Y-46095238D01*
X71047457Y-46095238D02*
X70999838Y-46142857D01*
X70999838Y-46142857D02*
X70952219Y-46238095D01*
X70952219Y-46238095D02*
X70952219Y-46428571D01*
X70952219Y-46428571D02*
X70999838Y-46523809D01*
X70999838Y-46523809D02*
X71047457Y-46571428D01*
X71047457Y-46571428D02*
X71142695Y-46619047D01*
X71142695Y-46619047D02*
X71190314Y-46619047D01*
X71190314Y-46619047D02*
X71285552Y-46571428D01*
X71285552Y-46571428D02*
X71333171Y-46523809D01*
X71333171Y-46523809D02*
X71380790Y-46428571D01*
X71380790Y-46428571D02*
X71380790Y-46238095D01*
X71380790Y-46238095D02*
X71428409Y-46142857D01*
X71428409Y-46142857D02*
X71476028Y-46095238D01*
X71476028Y-46095238D02*
X71571266Y-46047619D01*
X71571266Y-46047619D02*
X71761742Y-46047619D01*
X71761742Y-46047619D02*
X71856980Y-46095238D01*
X71856980Y-46095238D02*
X71904600Y-46142857D01*
X71904600Y-46142857D02*
X71952219Y-46238095D01*
X71952219Y-46238095D02*
X71952219Y-46428571D01*
X71952219Y-46428571D02*
X71904600Y-46523809D01*
X71904600Y-46523809D02*
X71856980Y-46571428D01*
X71856980Y-46571428D02*
X71761742Y-46619047D01*
X71761742Y-46619047D02*
X71571266Y-46619047D01*
X71571266Y-46619047D02*
X71476028Y-46571428D01*
X71476028Y-46571428D02*
X71428409Y-46523809D01*
X71428409Y-46523809D02*
X71380790Y-46428571D01*
D11*
X161324819Y-82833333D02*
X160848628Y-82500000D01*
X161324819Y-82261905D02*
X160324819Y-82261905D01*
X160324819Y-82261905D02*
X160324819Y-82642857D01*
X160324819Y-82642857D02*
X160372438Y-82738095D01*
X160372438Y-82738095D02*
X160420057Y-82785714D01*
X160420057Y-82785714D02*
X160515295Y-82833333D01*
X160515295Y-82833333D02*
X160658152Y-82833333D01*
X160658152Y-82833333D02*
X160753390Y-82785714D01*
X160753390Y-82785714D02*
X160801009Y-82738095D01*
X160801009Y-82738095D02*
X160848628Y-82642857D01*
X160848628Y-82642857D02*
X160848628Y-82261905D01*
X160324819Y-83166667D02*
X160324819Y-83833333D01*
X160324819Y-83833333D02*
X161324819Y-83404762D01*
D12*
X159952219Y-128404761D02*
X159952219Y-127928571D01*
X159952219Y-127928571D02*
X158952219Y-127928571D01*
X159428409Y-128738095D02*
X159428409Y-129071428D01*
X159952219Y-129214285D02*
X159952219Y-128738095D01*
X159952219Y-128738095D02*
X158952219Y-128738095D01*
X158952219Y-128738095D02*
X158952219Y-129214285D01*
X159952219Y-129642857D02*
X158952219Y-129642857D01*
X158952219Y-129642857D02*
X158952219Y-129880952D01*
X158952219Y-129880952D02*
X158999838Y-130023809D01*
X158999838Y-130023809D02*
X159095076Y-130119047D01*
X159095076Y-130119047D02*
X159190314Y-130166666D01*
X159190314Y-130166666D02*
X159380790Y-130214285D01*
X159380790Y-130214285D02*
X159523647Y-130214285D01*
X159523647Y-130214285D02*
X159714123Y-130166666D01*
X159714123Y-130166666D02*
X159809361Y-130119047D01*
X159809361Y-130119047D02*
X159904600Y-130023809D01*
X159904600Y-130023809D02*
X159952219Y-129880952D01*
X159952219Y-129880952D02*
X159952219Y-129642857D01*
X159952219Y-131166666D02*
X159952219Y-130595238D01*
X159952219Y-130880952D02*
X158952219Y-130880952D01*
X158952219Y-130880952D02*
X159095076Y-130785714D01*
X159095076Y-130785714D02*
X159190314Y-130690476D01*
X159190314Y-130690476D02*
X159237933Y-130595238D01*
X159952219Y-131642857D02*
X159952219Y-131833333D01*
X159952219Y-131833333D02*
X159904600Y-131928571D01*
X159904600Y-131928571D02*
X159856980Y-131976190D01*
X159856980Y-131976190D02*
X159714123Y-132071428D01*
X159714123Y-132071428D02*
X159523647Y-132119047D01*
X159523647Y-132119047D02*
X159142695Y-132119047D01*
X159142695Y-132119047D02*
X159047457Y-132071428D01*
X159047457Y-132071428D02*
X158999838Y-132023809D01*
X158999838Y-132023809D02*
X158952219Y-131928571D01*
X158952219Y-131928571D02*
X158952219Y-131738095D01*
X158952219Y-131738095D02*
X158999838Y-131642857D01*
X158999838Y-131642857D02*
X159047457Y-131595238D01*
X159047457Y-131595238D02*
X159142695Y-131547619D01*
X159142695Y-131547619D02*
X159380790Y-131547619D01*
X159380790Y-131547619D02*
X159476028Y-131595238D01*
X159476028Y-131595238D02*
X159523647Y-131642857D01*
X159523647Y-131642857D02*
X159571266Y-131738095D01*
X159571266Y-131738095D02*
X159571266Y-131928571D01*
X159571266Y-131928571D02*
X159523647Y-132023809D01*
X159523647Y-132023809D02*
X159476028Y-132071428D01*
X159476028Y-132071428D02*
X159380790Y-132119047D01*
D11*
X161324819Y-122413333D02*
X160848628Y-122080000D01*
X161324819Y-121841905D02*
X160324819Y-121841905D01*
X160324819Y-121841905D02*
X160324819Y-122222857D01*
X160324819Y-122222857D02*
X160372438Y-122318095D01*
X160372438Y-122318095D02*
X160420057Y-122365714D01*
X160420057Y-122365714D02*
X160515295Y-122413333D01*
X160515295Y-122413333D02*
X160658152Y-122413333D01*
X160658152Y-122413333D02*
X160753390Y-122365714D01*
X160753390Y-122365714D02*
X160801009Y-122318095D01*
X160801009Y-122318095D02*
X160848628Y-122222857D01*
X160848628Y-122222857D02*
X160848628Y-121841905D01*
X160324819Y-123318095D02*
X160324819Y-122841905D01*
X160324819Y-122841905D02*
X160801009Y-122794286D01*
X160801009Y-122794286D02*
X160753390Y-122841905D01*
X160753390Y-122841905D02*
X160705771Y-122937143D01*
X160705771Y-122937143D02*
X160705771Y-123175238D01*
X160705771Y-123175238D02*
X160753390Y-123270476D01*
X160753390Y-123270476D02*
X160801009Y-123318095D01*
X160801009Y-123318095D02*
X160896247Y-123365714D01*
X160896247Y-123365714D02*
X161134342Y-123365714D01*
X161134342Y-123365714D02*
X161229580Y-123318095D01*
X161229580Y-123318095D02*
X161277200Y-123270476D01*
X161277200Y-123270476D02*
X161324819Y-123175238D01*
X161324819Y-123175238D02*
X161324819Y-122937143D01*
X161324819Y-122937143D02*
X161277200Y-122841905D01*
X161277200Y-122841905D02*
X161229580Y-122794286D01*
X133584819Y-47357142D02*
X133108628Y-47023809D01*
X133584819Y-46785714D02*
X132584819Y-46785714D01*
X132584819Y-46785714D02*
X132584819Y-47166666D01*
X132584819Y-47166666D02*
X132632438Y-47261904D01*
X132632438Y-47261904D02*
X132680057Y-47309523D01*
X132680057Y-47309523D02*
X132775295Y-47357142D01*
X132775295Y-47357142D02*
X132918152Y-47357142D01*
X132918152Y-47357142D02*
X133013390Y-47309523D01*
X133013390Y-47309523D02*
X133061009Y-47261904D01*
X133061009Y-47261904D02*
X133108628Y-47166666D01*
X133108628Y-47166666D02*
X133108628Y-46785714D01*
X133584819Y-48309523D02*
X133584819Y-47738095D01*
X133584819Y-48023809D02*
X132584819Y-48023809D01*
X132584819Y-48023809D02*
X132727676Y-47928571D01*
X132727676Y-47928571D02*
X132822914Y-47833333D01*
X132822914Y-47833333D02*
X132870533Y-47738095D01*
X132680057Y-48690476D02*
X132632438Y-48738095D01*
X132632438Y-48738095D02*
X132584819Y-48833333D01*
X132584819Y-48833333D02*
X132584819Y-49071428D01*
X132584819Y-49071428D02*
X132632438Y-49166666D01*
X132632438Y-49166666D02*
X132680057Y-49214285D01*
X132680057Y-49214285D02*
X132775295Y-49261904D01*
X132775295Y-49261904D02*
X132870533Y-49261904D01*
X132870533Y-49261904D02*
X133013390Y-49214285D01*
X133013390Y-49214285D02*
X133584819Y-48642857D01*
X133584819Y-48642857D02*
X133584819Y-49261904D01*
X95384819Y-62761905D02*
X94384819Y-62761905D01*
X94384819Y-62761905D02*
X94384819Y-63000000D01*
X94384819Y-63000000D02*
X94432438Y-63142857D01*
X94432438Y-63142857D02*
X94527676Y-63238095D01*
X94527676Y-63238095D02*
X94622914Y-63285714D01*
X94622914Y-63285714D02*
X94813390Y-63333333D01*
X94813390Y-63333333D02*
X94956247Y-63333333D01*
X94956247Y-63333333D02*
X95146723Y-63285714D01*
X95146723Y-63285714D02*
X95241961Y-63238095D01*
X95241961Y-63238095D02*
X95337200Y-63142857D01*
X95337200Y-63142857D02*
X95384819Y-63000000D01*
X95384819Y-63000000D02*
X95384819Y-62761905D01*
X95384819Y-64285714D02*
X95384819Y-63714286D01*
X95384819Y-64000000D02*
X94384819Y-64000000D01*
X94384819Y-64000000D02*
X94527676Y-63904762D01*
X94527676Y-63904762D02*
X94622914Y-63809524D01*
X94622914Y-63809524D02*
X94670533Y-63714286D01*
X95064819Y-67048095D02*
X94064819Y-67048095D01*
X95064819Y-67619523D02*
X94493390Y-67190952D01*
X94064819Y-67619523D02*
X94636247Y-67048095D01*
X144666666Y-136824819D02*
X144999999Y-136348628D01*
X145238094Y-136824819D02*
X145238094Y-135824819D01*
X145238094Y-135824819D02*
X144857142Y-135824819D01*
X144857142Y-135824819D02*
X144761904Y-135872438D01*
X144761904Y-135872438D02*
X144714285Y-135920057D01*
X144714285Y-135920057D02*
X144666666Y-136015295D01*
X144666666Y-136015295D02*
X144666666Y-136158152D01*
X144666666Y-136158152D02*
X144714285Y-136253390D01*
X144714285Y-136253390D02*
X144761904Y-136301009D01*
X144761904Y-136301009D02*
X144857142Y-136348628D01*
X144857142Y-136348628D02*
X145238094Y-136348628D01*
X143809523Y-136158152D02*
X143809523Y-136824819D01*
X144047618Y-135777200D02*
X144285713Y-136491485D01*
X144285713Y-136491485D02*
X143666666Y-136491485D01*
X156074819Y-62285714D02*
X155074819Y-62285714D01*
X155074819Y-62285714D02*
X155074819Y-62523809D01*
X155074819Y-62523809D02*
X155122438Y-62666666D01*
X155122438Y-62666666D02*
X155217676Y-62761904D01*
X155217676Y-62761904D02*
X155312914Y-62809523D01*
X155312914Y-62809523D02*
X155503390Y-62857142D01*
X155503390Y-62857142D02*
X155646247Y-62857142D01*
X155646247Y-62857142D02*
X155836723Y-62809523D01*
X155836723Y-62809523D02*
X155931961Y-62761904D01*
X155931961Y-62761904D02*
X156027200Y-62666666D01*
X156027200Y-62666666D02*
X156074819Y-62523809D01*
X156074819Y-62523809D02*
X156074819Y-62285714D01*
X156074819Y-63809523D02*
X156074819Y-63238095D01*
X156074819Y-63523809D02*
X155074819Y-63523809D01*
X155074819Y-63523809D02*
X155217676Y-63428571D01*
X155217676Y-63428571D02*
X155312914Y-63333333D01*
X155312914Y-63333333D02*
X155360533Y-63238095D01*
X155074819Y-64142857D02*
X155074819Y-64761904D01*
X155074819Y-64761904D02*
X155455771Y-64428571D01*
X155455771Y-64428571D02*
X155455771Y-64571428D01*
X155455771Y-64571428D02*
X155503390Y-64666666D01*
X155503390Y-64666666D02*
X155551009Y-64714285D01*
X155551009Y-64714285D02*
X155646247Y-64761904D01*
X155646247Y-64761904D02*
X155884342Y-64761904D01*
X155884342Y-64761904D02*
X155979580Y-64714285D01*
X155979580Y-64714285D02*
X156027200Y-64666666D01*
X156027200Y-64666666D02*
X156074819Y-64571428D01*
X156074819Y-64571428D02*
X156074819Y-64285714D01*
X156074819Y-64285714D02*
X156027200Y-64190476D01*
X156027200Y-64190476D02*
X155979580Y-64142857D01*
X155754819Y-67048095D02*
X154754819Y-67048095D01*
X155754819Y-67619523D02*
X155183390Y-67190952D01*
X154754819Y-67619523D02*
X155326247Y-67048095D01*
X75824819Y-53777142D02*
X75348628Y-53443809D01*
X75824819Y-53205714D02*
X74824819Y-53205714D01*
X74824819Y-53205714D02*
X74824819Y-53586666D01*
X74824819Y-53586666D02*
X74872438Y-53681904D01*
X74872438Y-53681904D02*
X74920057Y-53729523D01*
X74920057Y-53729523D02*
X75015295Y-53777142D01*
X75015295Y-53777142D02*
X75158152Y-53777142D01*
X75158152Y-53777142D02*
X75253390Y-53729523D01*
X75253390Y-53729523D02*
X75301009Y-53681904D01*
X75301009Y-53681904D02*
X75348628Y-53586666D01*
X75348628Y-53586666D02*
X75348628Y-53205714D01*
X75824819Y-54729523D02*
X75824819Y-54158095D01*
X75824819Y-54443809D02*
X74824819Y-54443809D01*
X74824819Y-54443809D02*
X74967676Y-54348571D01*
X74967676Y-54348571D02*
X75062914Y-54253333D01*
X75062914Y-54253333D02*
X75110533Y-54158095D01*
X74824819Y-55062857D02*
X74824819Y-55681904D01*
X74824819Y-55681904D02*
X75205771Y-55348571D01*
X75205771Y-55348571D02*
X75205771Y-55491428D01*
X75205771Y-55491428D02*
X75253390Y-55586666D01*
X75253390Y-55586666D02*
X75301009Y-55634285D01*
X75301009Y-55634285D02*
X75396247Y-55681904D01*
X75396247Y-55681904D02*
X75634342Y-55681904D01*
X75634342Y-55681904D02*
X75729580Y-55634285D01*
X75729580Y-55634285D02*
X75777200Y-55586666D01*
X75777200Y-55586666D02*
X75824819Y-55491428D01*
X75824819Y-55491428D02*
X75824819Y-55205714D01*
X75824819Y-55205714D02*
X75777200Y-55110476D01*
X75777200Y-55110476D02*
X75729580Y-55062857D01*
X134222857Y-38084819D02*
X134556190Y-37608628D01*
X134794285Y-38084819D02*
X134794285Y-37084819D01*
X134794285Y-37084819D02*
X134413333Y-37084819D01*
X134413333Y-37084819D02*
X134318095Y-37132438D01*
X134318095Y-37132438D02*
X134270476Y-37180057D01*
X134270476Y-37180057D02*
X134222857Y-37275295D01*
X134222857Y-37275295D02*
X134222857Y-37418152D01*
X134222857Y-37418152D02*
X134270476Y-37513390D01*
X134270476Y-37513390D02*
X134318095Y-37561009D01*
X134318095Y-37561009D02*
X134413333Y-37608628D01*
X134413333Y-37608628D02*
X134794285Y-37608628D01*
X133270476Y-38084819D02*
X133841904Y-38084819D01*
X133556190Y-38084819D02*
X133556190Y-37084819D01*
X133556190Y-37084819D02*
X133651428Y-37227676D01*
X133651428Y-37227676D02*
X133746666Y-37322914D01*
X133746666Y-37322914D02*
X133841904Y-37370533D01*
X132651428Y-37084819D02*
X132556190Y-37084819D01*
X132556190Y-37084819D02*
X132460952Y-37132438D01*
X132460952Y-37132438D02*
X132413333Y-37180057D01*
X132413333Y-37180057D02*
X132365714Y-37275295D01*
X132365714Y-37275295D02*
X132318095Y-37465771D01*
X132318095Y-37465771D02*
X132318095Y-37703866D01*
X132318095Y-37703866D02*
X132365714Y-37894342D01*
X132365714Y-37894342D02*
X132413333Y-37989580D01*
X132413333Y-37989580D02*
X132460952Y-38037200D01*
X132460952Y-38037200D02*
X132556190Y-38084819D01*
X132556190Y-38084819D02*
X132651428Y-38084819D01*
X132651428Y-38084819D02*
X132746666Y-38037200D01*
X132746666Y-38037200D02*
X132794285Y-37989580D01*
X132794285Y-37989580D02*
X132841904Y-37894342D01*
X132841904Y-37894342D02*
X132889523Y-37703866D01*
X132889523Y-37703866D02*
X132889523Y-37465771D01*
X132889523Y-37465771D02*
X132841904Y-37275295D01*
X132841904Y-37275295D02*
X132794285Y-37180057D01*
X132794285Y-37180057D02*
X132746666Y-37132438D01*
X132746666Y-37132438D02*
X132651428Y-37084819D01*
X136074819Y-82595714D02*
X135074819Y-82595714D01*
X135074819Y-82595714D02*
X135074819Y-82833809D01*
X135074819Y-82833809D02*
X135122438Y-82976666D01*
X135122438Y-82976666D02*
X135217676Y-83071904D01*
X135217676Y-83071904D02*
X135312914Y-83119523D01*
X135312914Y-83119523D02*
X135503390Y-83167142D01*
X135503390Y-83167142D02*
X135646247Y-83167142D01*
X135646247Y-83167142D02*
X135836723Y-83119523D01*
X135836723Y-83119523D02*
X135931961Y-83071904D01*
X135931961Y-83071904D02*
X136027200Y-82976666D01*
X136027200Y-82976666D02*
X136074819Y-82833809D01*
X136074819Y-82833809D02*
X136074819Y-82595714D01*
X136074819Y-84119523D02*
X136074819Y-83548095D01*
X136074819Y-83833809D02*
X135074819Y-83833809D01*
X135074819Y-83833809D02*
X135217676Y-83738571D01*
X135217676Y-83738571D02*
X135312914Y-83643333D01*
X135312914Y-83643333D02*
X135360533Y-83548095D01*
X135074819Y-84738571D02*
X135074819Y-84833809D01*
X135074819Y-84833809D02*
X135122438Y-84929047D01*
X135122438Y-84929047D02*
X135170057Y-84976666D01*
X135170057Y-84976666D02*
X135265295Y-85024285D01*
X135265295Y-85024285D02*
X135455771Y-85071904D01*
X135455771Y-85071904D02*
X135693866Y-85071904D01*
X135693866Y-85071904D02*
X135884342Y-85024285D01*
X135884342Y-85024285D02*
X135979580Y-84976666D01*
X135979580Y-84976666D02*
X136027200Y-84929047D01*
X136027200Y-84929047D02*
X136074819Y-84833809D01*
X136074819Y-84833809D02*
X136074819Y-84738571D01*
X136074819Y-84738571D02*
X136027200Y-84643333D01*
X136027200Y-84643333D02*
X135979580Y-84595714D01*
X135979580Y-84595714D02*
X135884342Y-84548095D01*
X135884342Y-84548095D02*
X135693866Y-84500476D01*
X135693866Y-84500476D02*
X135455771Y-84500476D01*
X135455771Y-84500476D02*
X135265295Y-84548095D01*
X135265295Y-84548095D02*
X135170057Y-84595714D01*
X135170057Y-84595714D02*
X135122438Y-84643333D01*
X135122438Y-84643333D02*
X135074819Y-84738571D01*
X135754819Y-87358095D02*
X134754819Y-87358095D01*
X135754819Y-87929523D02*
X135183390Y-87500952D01*
X134754819Y-87929523D02*
X135326247Y-87358095D01*
X155084819Y-45833333D02*
X154608628Y-45500000D01*
X155084819Y-45261905D02*
X154084819Y-45261905D01*
X154084819Y-45261905D02*
X154084819Y-45642857D01*
X154084819Y-45642857D02*
X154132438Y-45738095D01*
X154132438Y-45738095D02*
X154180057Y-45785714D01*
X154180057Y-45785714D02*
X154275295Y-45833333D01*
X154275295Y-45833333D02*
X154418152Y-45833333D01*
X154418152Y-45833333D02*
X154513390Y-45785714D01*
X154513390Y-45785714D02*
X154561009Y-45738095D01*
X154561009Y-45738095D02*
X154608628Y-45642857D01*
X154608628Y-45642857D02*
X154608628Y-45261905D01*
X155084819Y-46309524D02*
X155084819Y-46500000D01*
X155084819Y-46500000D02*
X155037200Y-46595238D01*
X155037200Y-46595238D02*
X154989580Y-46642857D01*
X154989580Y-46642857D02*
X154846723Y-46738095D01*
X154846723Y-46738095D02*
X154656247Y-46785714D01*
X154656247Y-46785714D02*
X154275295Y-46785714D01*
X154275295Y-46785714D02*
X154180057Y-46738095D01*
X154180057Y-46738095D02*
X154132438Y-46690476D01*
X154132438Y-46690476D02*
X154084819Y-46595238D01*
X154084819Y-46595238D02*
X154084819Y-46404762D01*
X154084819Y-46404762D02*
X154132438Y-46309524D01*
X154132438Y-46309524D02*
X154180057Y-46261905D01*
X154180057Y-46261905D02*
X154275295Y-46214286D01*
X154275295Y-46214286D02*
X154513390Y-46214286D01*
X154513390Y-46214286D02*
X154608628Y-46261905D01*
X154608628Y-46261905D02*
X154656247Y-46309524D01*
X154656247Y-46309524D02*
X154703866Y-46404762D01*
X154703866Y-46404762D02*
X154703866Y-46595238D01*
X154703866Y-46595238D02*
X154656247Y-46690476D01*
X154656247Y-46690476D02*
X154608628Y-46738095D01*
X154608628Y-46738095D02*
X154513390Y-46785714D01*
X104666666Y-136824819D02*
X104999999Y-136348628D01*
X105238094Y-136824819D02*
X105238094Y-135824819D01*
X105238094Y-135824819D02*
X104857142Y-135824819D01*
X104857142Y-135824819D02*
X104761904Y-135872438D01*
X104761904Y-135872438D02*
X104714285Y-135920057D01*
X104714285Y-135920057D02*
X104666666Y-136015295D01*
X104666666Y-136015295D02*
X104666666Y-136158152D01*
X104666666Y-136158152D02*
X104714285Y-136253390D01*
X104714285Y-136253390D02*
X104761904Y-136301009D01*
X104761904Y-136301009D02*
X104857142Y-136348628D01*
X104857142Y-136348628D02*
X105238094Y-136348628D01*
X104285713Y-135920057D02*
X104238094Y-135872438D01*
X104238094Y-135872438D02*
X104142856Y-135824819D01*
X104142856Y-135824819D02*
X103904761Y-135824819D01*
X103904761Y-135824819D02*
X103809523Y-135872438D01*
X103809523Y-135872438D02*
X103761904Y-135920057D01*
X103761904Y-135920057D02*
X103714285Y-136015295D01*
X103714285Y-136015295D02*
X103714285Y-136110533D01*
X103714285Y-136110533D02*
X103761904Y-136253390D01*
X103761904Y-136253390D02*
X104333332Y-136824819D01*
X104333332Y-136824819D02*
X103714285Y-136824819D01*
X135574819Y-122595714D02*
X134574819Y-122595714D01*
X134574819Y-122595714D02*
X134574819Y-122833809D01*
X134574819Y-122833809D02*
X134622438Y-122976666D01*
X134622438Y-122976666D02*
X134717676Y-123071904D01*
X134717676Y-123071904D02*
X134812914Y-123119523D01*
X134812914Y-123119523D02*
X135003390Y-123167142D01*
X135003390Y-123167142D02*
X135146247Y-123167142D01*
X135146247Y-123167142D02*
X135336723Y-123119523D01*
X135336723Y-123119523D02*
X135431961Y-123071904D01*
X135431961Y-123071904D02*
X135527200Y-122976666D01*
X135527200Y-122976666D02*
X135574819Y-122833809D01*
X135574819Y-122833809D02*
X135574819Y-122595714D01*
X135574819Y-124119523D02*
X135574819Y-123548095D01*
X135574819Y-123833809D02*
X134574819Y-123833809D01*
X134574819Y-123833809D02*
X134717676Y-123738571D01*
X134717676Y-123738571D02*
X134812914Y-123643333D01*
X134812914Y-123643333D02*
X134860533Y-123548095D01*
X134670057Y-124500476D02*
X134622438Y-124548095D01*
X134622438Y-124548095D02*
X134574819Y-124643333D01*
X134574819Y-124643333D02*
X134574819Y-124881428D01*
X134574819Y-124881428D02*
X134622438Y-124976666D01*
X134622438Y-124976666D02*
X134670057Y-125024285D01*
X134670057Y-125024285D02*
X134765295Y-125071904D01*
X134765295Y-125071904D02*
X134860533Y-125071904D01*
X134860533Y-125071904D02*
X135003390Y-125024285D01*
X135003390Y-125024285D02*
X135574819Y-124452857D01*
X135574819Y-124452857D02*
X135574819Y-125071904D01*
X135254819Y-127358095D02*
X134254819Y-127358095D01*
X135254819Y-127929523D02*
X134683390Y-127500952D01*
X134254819Y-127929523D02*
X134826247Y-127358095D01*
D12*
X159952219Y-42904761D02*
X159952219Y-42428571D01*
X159952219Y-42428571D02*
X158952219Y-42428571D01*
X159428409Y-43238095D02*
X159428409Y-43571428D01*
X159952219Y-43714285D02*
X159952219Y-43238095D01*
X159952219Y-43238095D02*
X158952219Y-43238095D01*
X158952219Y-43238095D02*
X158952219Y-43714285D01*
X159952219Y-44142857D02*
X158952219Y-44142857D01*
X158952219Y-44142857D02*
X158952219Y-44380952D01*
X158952219Y-44380952D02*
X158999838Y-44523809D01*
X158999838Y-44523809D02*
X159095076Y-44619047D01*
X159095076Y-44619047D02*
X159190314Y-44666666D01*
X159190314Y-44666666D02*
X159380790Y-44714285D01*
X159380790Y-44714285D02*
X159523647Y-44714285D01*
X159523647Y-44714285D02*
X159714123Y-44666666D01*
X159714123Y-44666666D02*
X159809361Y-44619047D01*
X159809361Y-44619047D02*
X159904600Y-44523809D01*
X159904600Y-44523809D02*
X159952219Y-44380952D01*
X159952219Y-44380952D02*
X159952219Y-44142857D01*
X159952219Y-45666666D02*
X159952219Y-45095238D01*
X159952219Y-45380952D02*
X158952219Y-45380952D01*
X158952219Y-45380952D02*
X159095076Y-45285714D01*
X159095076Y-45285714D02*
X159190314Y-45190476D01*
X159190314Y-45190476D02*
X159237933Y-45095238D01*
X158952219Y-46000000D02*
X158952219Y-46666666D01*
X158952219Y-46666666D02*
X159952219Y-46238095D01*
D11*
X126584819Y-47437142D02*
X126108628Y-47103809D01*
X126584819Y-46865714D02*
X125584819Y-46865714D01*
X125584819Y-46865714D02*
X125584819Y-47246666D01*
X125584819Y-47246666D02*
X125632438Y-47341904D01*
X125632438Y-47341904D02*
X125680057Y-47389523D01*
X125680057Y-47389523D02*
X125775295Y-47437142D01*
X125775295Y-47437142D02*
X125918152Y-47437142D01*
X125918152Y-47437142D02*
X126013390Y-47389523D01*
X126013390Y-47389523D02*
X126061009Y-47341904D01*
X126061009Y-47341904D02*
X126108628Y-47246666D01*
X126108628Y-47246666D02*
X126108628Y-46865714D01*
X126584819Y-48389523D02*
X126584819Y-47818095D01*
X126584819Y-48103809D02*
X125584819Y-48103809D01*
X125584819Y-48103809D02*
X125727676Y-48008571D01*
X125727676Y-48008571D02*
X125822914Y-47913333D01*
X125822914Y-47913333D02*
X125870533Y-47818095D01*
X126584819Y-49341904D02*
X126584819Y-48770476D01*
X126584819Y-49056190D02*
X125584819Y-49056190D01*
X125584819Y-49056190D02*
X125727676Y-48960952D01*
X125727676Y-48960952D02*
X125822914Y-48865714D01*
X125822914Y-48865714D02*
X125870533Y-48770476D01*
X95574819Y-123071905D02*
X94574819Y-123071905D01*
X94574819Y-123071905D02*
X94574819Y-123310000D01*
X94574819Y-123310000D02*
X94622438Y-123452857D01*
X94622438Y-123452857D02*
X94717676Y-123548095D01*
X94717676Y-123548095D02*
X94812914Y-123595714D01*
X94812914Y-123595714D02*
X95003390Y-123643333D01*
X95003390Y-123643333D02*
X95146247Y-123643333D01*
X95146247Y-123643333D02*
X95336723Y-123595714D01*
X95336723Y-123595714D02*
X95431961Y-123548095D01*
X95431961Y-123548095D02*
X95527200Y-123452857D01*
X95527200Y-123452857D02*
X95574819Y-123310000D01*
X95574819Y-123310000D02*
X95574819Y-123071905D01*
X94908152Y-124500476D02*
X95574819Y-124500476D01*
X94527200Y-124262381D02*
X95241485Y-124024286D01*
X95241485Y-124024286D02*
X95241485Y-124643333D01*
X95254819Y-127358095D02*
X94254819Y-127358095D01*
X95254819Y-127929523D02*
X94683390Y-127500952D01*
X94254819Y-127929523D02*
X94826247Y-127358095D01*
D13*
X116287833Y-49676985D02*
X116287833Y-50396652D01*
X116287833Y-50396652D02*
X116245500Y-50481318D01*
X116245500Y-50481318D02*
X116203166Y-50523652D01*
X116203166Y-50523652D02*
X116118500Y-50565985D01*
X116118500Y-50565985D02*
X115949166Y-50565985D01*
X115949166Y-50565985D02*
X115864500Y-50523652D01*
X115864500Y-50523652D02*
X115822166Y-50481318D01*
X115822166Y-50481318D02*
X115779833Y-50396652D01*
X115779833Y-50396652D02*
X115779833Y-49676985D01*
X114890833Y-50565985D02*
X115398833Y-50565985D01*
X115144833Y-50565985D02*
X115144833Y-49676985D01*
X115144833Y-49676985D02*
X115229500Y-49803985D01*
X115229500Y-49803985D02*
X115314167Y-49888652D01*
X115314167Y-49888652D02*
X115398833Y-49930985D01*
D11*
X120372404Y-46527200D02*
X120229547Y-46574819D01*
X120229547Y-46574819D02*
X119991452Y-46574819D01*
X119991452Y-46574819D02*
X119896214Y-46527200D01*
X119896214Y-46527200D02*
X119848595Y-46479580D01*
X119848595Y-46479580D02*
X119800976Y-46384342D01*
X119800976Y-46384342D02*
X119800976Y-46289104D01*
X119800976Y-46289104D02*
X119848595Y-46193866D01*
X119848595Y-46193866D02*
X119896214Y-46146247D01*
X119896214Y-46146247D02*
X119991452Y-46098628D01*
X119991452Y-46098628D02*
X120181928Y-46051009D01*
X120181928Y-46051009D02*
X120277166Y-46003390D01*
X120277166Y-46003390D02*
X120324785Y-45955771D01*
X120324785Y-45955771D02*
X120372404Y-45860533D01*
X120372404Y-45860533D02*
X120372404Y-45765295D01*
X120372404Y-45765295D02*
X120324785Y-45670057D01*
X120324785Y-45670057D02*
X120277166Y-45622438D01*
X120277166Y-45622438D02*
X120181928Y-45574819D01*
X120181928Y-45574819D02*
X119943833Y-45574819D01*
X119943833Y-45574819D02*
X119800976Y-45622438D01*
X118991452Y-46527200D02*
X119086690Y-46574819D01*
X119086690Y-46574819D02*
X119277166Y-46574819D01*
X119277166Y-46574819D02*
X119372404Y-46527200D01*
X119372404Y-46527200D02*
X119420023Y-46431961D01*
X119420023Y-46431961D02*
X119420023Y-46051009D01*
X119420023Y-46051009D02*
X119372404Y-45955771D01*
X119372404Y-45955771D02*
X119277166Y-45908152D01*
X119277166Y-45908152D02*
X119086690Y-45908152D01*
X119086690Y-45908152D02*
X118991452Y-45955771D01*
X118991452Y-45955771D02*
X118943833Y-46051009D01*
X118943833Y-46051009D02*
X118943833Y-46146247D01*
X118943833Y-46146247D02*
X119420023Y-46241485D01*
X118134309Y-46527200D02*
X118229547Y-46574819D01*
X118229547Y-46574819D02*
X118420023Y-46574819D01*
X118420023Y-46574819D02*
X118515261Y-46527200D01*
X118515261Y-46527200D02*
X118562880Y-46431961D01*
X118562880Y-46431961D02*
X118562880Y-46051009D01*
X118562880Y-46051009D02*
X118515261Y-45955771D01*
X118515261Y-45955771D02*
X118420023Y-45908152D01*
X118420023Y-45908152D02*
X118229547Y-45908152D01*
X118229547Y-45908152D02*
X118134309Y-45955771D01*
X118134309Y-45955771D02*
X118086690Y-46051009D01*
X118086690Y-46051009D02*
X118086690Y-46146247D01*
X118086690Y-46146247D02*
X118562880Y-46241485D01*
X117277166Y-46527200D02*
X117372404Y-46574819D01*
X117372404Y-46574819D02*
X117562880Y-46574819D01*
X117562880Y-46574819D02*
X117658118Y-46527200D01*
X117658118Y-46527200D02*
X117705737Y-46431961D01*
X117705737Y-46431961D02*
X117705737Y-46051009D01*
X117705737Y-46051009D02*
X117658118Y-45955771D01*
X117658118Y-45955771D02*
X117562880Y-45908152D01*
X117562880Y-45908152D02*
X117372404Y-45908152D01*
X117372404Y-45908152D02*
X117277166Y-45955771D01*
X117277166Y-45955771D02*
X117229547Y-46051009D01*
X117229547Y-46051009D02*
X117229547Y-46146247D01*
X117229547Y-46146247D02*
X117705737Y-46241485D01*
X116372404Y-46574819D02*
X116372404Y-45574819D01*
X116372404Y-46527200D02*
X116467642Y-46574819D01*
X116467642Y-46574819D02*
X116658118Y-46574819D01*
X116658118Y-46574819D02*
X116753356Y-46527200D01*
X116753356Y-46527200D02*
X116800975Y-46479580D01*
X116800975Y-46479580D02*
X116848594Y-46384342D01*
X116848594Y-46384342D02*
X116848594Y-46098628D01*
X116848594Y-46098628D02*
X116800975Y-46003390D01*
X116800975Y-46003390D02*
X116753356Y-45955771D01*
X116753356Y-45955771D02*
X116658118Y-45908152D01*
X116658118Y-45908152D02*
X116467642Y-45908152D01*
X116467642Y-45908152D02*
X116372404Y-45955771D01*
X115181927Y-46527200D02*
X115039070Y-46574819D01*
X115039070Y-46574819D02*
X114800975Y-46574819D01*
X114800975Y-46574819D02*
X114705737Y-46527200D01*
X114705737Y-46527200D02*
X114658118Y-46479580D01*
X114658118Y-46479580D02*
X114610499Y-46384342D01*
X114610499Y-46384342D02*
X114610499Y-46289104D01*
X114610499Y-46289104D02*
X114658118Y-46193866D01*
X114658118Y-46193866D02*
X114705737Y-46146247D01*
X114705737Y-46146247D02*
X114800975Y-46098628D01*
X114800975Y-46098628D02*
X114991451Y-46051009D01*
X114991451Y-46051009D02*
X115086689Y-46003390D01*
X115086689Y-46003390D02*
X115134308Y-45955771D01*
X115134308Y-45955771D02*
X115181927Y-45860533D01*
X115181927Y-45860533D02*
X115181927Y-45765295D01*
X115181927Y-45765295D02*
X115134308Y-45670057D01*
X115134308Y-45670057D02*
X115086689Y-45622438D01*
X115086689Y-45622438D02*
X114991451Y-45574819D01*
X114991451Y-45574819D02*
X114753356Y-45574819D01*
X114753356Y-45574819D02*
X114610499Y-45622438D01*
X114324784Y-45908152D02*
X113943832Y-45908152D01*
X114181927Y-45574819D02*
X114181927Y-46431961D01*
X114181927Y-46431961D02*
X114134308Y-46527200D01*
X114134308Y-46527200D02*
X114039070Y-46574819D01*
X114039070Y-46574819D02*
X113943832Y-46574819D01*
X113181927Y-45908152D02*
X113181927Y-46574819D01*
X113610498Y-45908152D02*
X113610498Y-46431961D01*
X113610498Y-46431961D02*
X113562879Y-46527200D01*
X113562879Y-46527200D02*
X113467641Y-46574819D01*
X113467641Y-46574819D02*
X113324784Y-46574819D01*
X113324784Y-46574819D02*
X113229546Y-46527200D01*
X113229546Y-46527200D02*
X113181927Y-46479580D01*
X112277165Y-46574819D02*
X112277165Y-45574819D01*
X112277165Y-46527200D02*
X112372403Y-46574819D01*
X112372403Y-46574819D02*
X112562879Y-46574819D01*
X112562879Y-46574819D02*
X112658117Y-46527200D01*
X112658117Y-46527200D02*
X112705736Y-46479580D01*
X112705736Y-46479580D02*
X112753355Y-46384342D01*
X112753355Y-46384342D02*
X112753355Y-46098628D01*
X112753355Y-46098628D02*
X112705736Y-46003390D01*
X112705736Y-46003390D02*
X112658117Y-45955771D01*
X112658117Y-45955771D02*
X112562879Y-45908152D01*
X112562879Y-45908152D02*
X112372403Y-45908152D01*
X112372403Y-45908152D02*
X112277165Y-45955771D01*
X111800974Y-46574819D02*
X111800974Y-45908152D01*
X111800974Y-45574819D02*
X111848593Y-45622438D01*
X111848593Y-45622438D02*
X111800974Y-45670057D01*
X111800974Y-45670057D02*
X111753355Y-45622438D01*
X111753355Y-45622438D02*
X111800974Y-45574819D01*
X111800974Y-45574819D02*
X111800974Y-45670057D01*
X111181927Y-46574819D02*
X111277165Y-46527200D01*
X111277165Y-46527200D02*
X111324784Y-46479580D01*
X111324784Y-46479580D02*
X111372403Y-46384342D01*
X111372403Y-46384342D02*
X111372403Y-46098628D01*
X111372403Y-46098628D02*
X111324784Y-46003390D01*
X111324784Y-46003390D02*
X111277165Y-45955771D01*
X111277165Y-45955771D02*
X111181927Y-45908152D01*
X111181927Y-45908152D02*
X111039070Y-45908152D01*
X111039070Y-45908152D02*
X110943832Y-45955771D01*
X110943832Y-45955771D02*
X110896213Y-46003390D01*
X110896213Y-46003390D02*
X110848594Y-46098628D01*
X110848594Y-46098628D02*
X110848594Y-46384342D01*
X110848594Y-46384342D02*
X110896213Y-46479580D01*
X110896213Y-46479580D02*
X110943832Y-46527200D01*
X110943832Y-46527200D02*
X111039070Y-46574819D01*
X111039070Y-46574819D02*
X111181927Y-46574819D01*
X117134308Y-47574819D02*
X116467642Y-48574819D01*
X116467642Y-47574819D02*
X117134308Y-48574819D01*
X116086689Y-48574819D02*
X116086689Y-47574819D01*
X115658118Y-48289104D02*
X115181928Y-48289104D01*
X115753356Y-48574819D02*
X115420023Y-47574819D01*
X115420023Y-47574819D02*
X115086690Y-48574819D01*
X114562880Y-47574819D02*
X114372404Y-47574819D01*
X114372404Y-47574819D02*
X114277166Y-47622438D01*
X114277166Y-47622438D02*
X114181928Y-47717676D01*
X114181928Y-47717676D02*
X114134309Y-47908152D01*
X114134309Y-47908152D02*
X114134309Y-48241485D01*
X114134309Y-48241485D02*
X114181928Y-48431961D01*
X114181928Y-48431961D02*
X114277166Y-48527200D01*
X114277166Y-48527200D02*
X114372404Y-48574819D01*
X114372404Y-48574819D02*
X114562880Y-48574819D01*
X114562880Y-48574819D02*
X114658118Y-48527200D01*
X114658118Y-48527200D02*
X114753356Y-48431961D01*
X114753356Y-48431961D02*
X114800975Y-48241485D01*
X114800975Y-48241485D02*
X114800975Y-47908152D01*
X114800975Y-47908152D02*
X114753356Y-47717676D01*
X114753356Y-47717676D02*
X114658118Y-47622438D01*
X114658118Y-47622438D02*
X114562880Y-47574819D01*
X116074819Y-123261905D02*
X115074819Y-123261905D01*
X115074819Y-123261905D02*
X115074819Y-123500000D01*
X115074819Y-123500000D02*
X115122438Y-123642857D01*
X115122438Y-123642857D02*
X115217676Y-123738095D01*
X115217676Y-123738095D02*
X115312914Y-123785714D01*
X115312914Y-123785714D02*
X115503390Y-123833333D01*
X115503390Y-123833333D02*
X115646247Y-123833333D01*
X115646247Y-123833333D02*
X115836723Y-123785714D01*
X115836723Y-123785714D02*
X115931961Y-123738095D01*
X115931961Y-123738095D02*
X116027200Y-123642857D01*
X116027200Y-123642857D02*
X116074819Y-123500000D01*
X116074819Y-123500000D02*
X116074819Y-123261905D01*
X115503390Y-124404762D02*
X115455771Y-124309524D01*
X115455771Y-124309524D02*
X115408152Y-124261905D01*
X115408152Y-124261905D02*
X115312914Y-124214286D01*
X115312914Y-124214286D02*
X115265295Y-124214286D01*
X115265295Y-124214286D02*
X115170057Y-124261905D01*
X115170057Y-124261905D02*
X115122438Y-124309524D01*
X115122438Y-124309524D02*
X115074819Y-124404762D01*
X115074819Y-124404762D02*
X115074819Y-124595238D01*
X115074819Y-124595238D02*
X115122438Y-124690476D01*
X115122438Y-124690476D02*
X115170057Y-124738095D01*
X115170057Y-124738095D02*
X115265295Y-124785714D01*
X115265295Y-124785714D02*
X115312914Y-124785714D01*
X115312914Y-124785714D02*
X115408152Y-124738095D01*
X115408152Y-124738095D02*
X115455771Y-124690476D01*
X115455771Y-124690476D02*
X115503390Y-124595238D01*
X115503390Y-124595238D02*
X115503390Y-124404762D01*
X115503390Y-124404762D02*
X115551009Y-124309524D01*
X115551009Y-124309524D02*
X115598628Y-124261905D01*
X115598628Y-124261905D02*
X115693866Y-124214286D01*
X115693866Y-124214286D02*
X115884342Y-124214286D01*
X115884342Y-124214286D02*
X115979580Y-124261905D01*
X115979580Y-124261905D02*
X116027200Y-124309524D01*
X116027200Y-124309524D02*
X116074819Y-124404762D01*
X116074819Y-124404762D02*
X116074819Y-124595238D01*
X116074819Y-124595238D02*
X116027200Y-124690476D01*
X116027200Y-124690476D02*
X115979580Y-124738095D01*
X115979580Y-124738095D02*
X115884342Y-124785714D01*
X115884342Y-124785714D02*
X115693866Y-124785714D01*
X115693866Y-124785714D02*
X115598628Y-124738095D01*
X115598628Y-124738095D02*
X115551009Y-124690476D01*
X115551009Y-124690476D02*
X115503390Y-124595238D01*
X115754819Y-127548095D02*
X114754819Y-127548095D01*
X115754819Y-128119523D02*
X115183390Y-127690952D01*
X114754819Y-128119523D02*
X115326247Y-127548095D01*
X116074819Y-83261905D02*
X115074819Y-83261905D01*
X115074819Y-83261905D02*
X115074819Y-83500000D01*
X115074819Y-83500000D02*
X115122438Y-83642857D01*
X115122438Y-83642857D02*
X115217676Y-83738095D01*
X115217676Y-83738095D02*
X115312914Y-83785714D01*
X115312914Y-83785714D02*
X115503390Y-83833333D01*
X115503390Y-83833333D02*
X115646247Y-83833333D01*
X115646247Y-83833333D02*
X115836723Y-83785714D01*
X115836723Y-83785714D02*
X115931961Y-83738095D01*
X115931961Y-83738095D02*
X116027200Y-83642857D01*
X116027200Y-83642857D02*
X116074819Y-83500000D01*
X116074819Y-83500000D02*
X116074819Y-83261905D01*
X115074819Y-84690476D02*
X115074819Y-84500000D01*
X115074819Y-84500000D02*
X115122438Y-84404762D01*
X115122438Y-84404762D02*
X115170057Y-84357143D01*
X115170057Y-84357143D02*
X115312914Y-84261905D01*
X115312914Y-84261905D02*
X115503390Y-84214286D01*
X115503390Y-84214286D02*
X115884342Y-84214286D01*
X115884342Y-84214286D02*
X115979580Y-84261905D01*
X115979580Y-84261905D02*
X116027200Y-84309524D01*
X116027200Y-84309524D02*
X116074819Y-84404762D01*
X116074819Y-84404762D02*
X116074819Y-84595238D01*
X116074819Y-84595238D02*
X116027200Y-84690476D01*
X116027200Y-84690476D02*
X115979580Y-84738095D01*
X115979580Y-84738095D02*
X115884342Y-84785714D01*
X115884342Y-84785714D02*
X115646247Y-84785714D01*
X115646247Y-84785714D02*
X115551009Y-84738095D01*
X115551009Y-84738095D02*
X115503390Y-84690476D01*
X115503390Y-84690476D02*
X115455771Y-84595238D01*
X115455771Y-84595238D02*
X115455771Y-84404762D01*
X115455771Y-84404762D02*
X115503390Y-84309524D01*
X115503390Y-84309524D02*
X115551009Y-84261905D01*
X115551009Y-84261905D02*
X115646247Y-84214286D01*
X115754819Y-87548095D02*
X114754819Y-87548095D01*
X115754819Y-88119523D02*
X115183390Y-87690952D01*
X114754819Y-88119523D02*
X115326247Y-87548095D01*
X156074819Y-102595714D02*
X155074819Y-102595714D01*
X155074819Y-102595714D02*
X155074819Y-102833809D01*
X155074819Y-102833809D02*
X155122438Y-102976666D01*
X155122438Y-102976666D02*
X155217676Y-103071904D01*
X155217676Y-103071904D02*
X155312914Y-103119523D01*
X155312914Y-103119523D02*
X155503390Y-103167142D01*
X155503390Y-103167142D02*
X155646247Y-103167142D01*
X155646247Y-103167142D02*
X155836723Y-103119523D01*
X155836723Y-103119523D02*
X155931961Y-103071904D01*
X155931961Y-103071904D02*
X156027200Y-102976666D01*
X156027200Y-102976666D02*
X156074819Y-102833809D01*
X156074819Y-102833809D02*
X156074819Y-102595714D01*
X156074819Y-104119523D02*
X156074819Y-103548095D01*
X156074819Y-103833809D02*
X155074819Y-103833809D01*
X155074819Y-103833809D02*
X155217676Y-103738571D01*
X155217676Y-103738571D02*
X155312914Y-103643333D01*
X155312914Y-103643333D02*
X155360533Y-103548095D01*
X155074819Y-105024285D02*
X155074819Y-104548095D01*
X155074819Y-104548095D02*
X155551009Y-104500476D01*
X155551009Y-104500476D02*
X155503390Y-104548095D01*
X155503390Y-104548095D02*
X155455771Y-104643333D01*
X155455771Y-104643333D02*
X155455771Y-104881428D01*
X155455771Y-104881428D02*
X155503390Y-104976666D01*
X155503390Y-104976666D02*
X155551009Y-105024285D01*
X155551009Y-105024285D02*
X155646247Y-105071904D01*
X155646247Y-105071904D02*
X155884342Y-105071904D01*
X155884342Y-105071904D02*
X155979580Y-105024285D01*
X155979580Y-105024285D02*
X156027200Y-104976666D01*
X156027200Y-104976666D02*
X156074819Y-104881428D01*
X156074819Y-104881428D02*
X156074819Y-104643333D01*
X156074819Y-104643333D02*
X156027200Y-104548095D01*
X156027200Y-104548095D02*
X155979580Y-104500476D01*
X155754819Y-107358095D02*
X154754819Y-107358095D01*
X155754819Y-107929523D02*
X155183390Y-107500952D01*
X154754819Y-107929523D02*
X155326247Y-107358095D01*
X116074819Y-102951905D02*
X115074819Y-102951905D01*
X115074819Y-102951905D02*
X115074819Y-103190000D01*
X115074819Y-103190000D02*
X115122438Y-103332857D01*
X115122438Y-103332857D02*
X115217676Y-103428095D01*
X115217676Y-103428095D02*
X115312914Y-103475714D01*
X115312914Y-103475714D02*
X115503390Y-103523333D01*
X115503390Y-103523333D02*
X115646247Y-103523333D01*
X115646247Y-103523333D02*
X115836723Y-103475714D01*
X115836723Y-103475714D02*
X115931961Y-103428095D01*
X115931961Y-103428095D02*
X116027200Y-103332857D01*
X116027200Y-103332857D02*
X116074819Y-103190000D01*
X116074819Y-103190000D02*
X116074819Y-102951905D01*
X115074819Y-103856667D02*
X115074819Y-104523333D01*
X115074819Y-104523333D02*
X116074819Y-104094762D01*
X115754819Y-107238095D02*
X114754819Y-107238095D01*
X115754819Y-107809523D02*
X115183390Y-107380952D01*
X114754819Y-107809523D02*
X115326247Y-107238095D01*
X77759580Y-44083333D02*
X77807200Y-44035714D01*
X77807200Y-44035714D02*
X77854819Y-43892857D01*
X77854819Y-43892857D02*
X77854819Y-43797619D01*
X77854819Y-43797619D02*
X77807200Y-43654762D01*
X77807200Y-43654762D02*
X77711961Y-43559524D01*
X77711961Y-43559524D02*
X77616723Y-43511905D01*
X77616723Y-43511905D02*
X77426247Y-43464286D01*
X77426247Y-43464286D02*
X77283390Y-43464286D01*
X77283390Y-43464286D02*
X77092914Y-43511905D01*
X77092914Y-43511905D02*
X76997676Y-43559524D01*
X76997676Y-43559524D02*
X76902438Y-43654762D01*
X76902438Y-43654762D02*
X76854819Y-43797619D01*
X76854819Y-43797619D02*
X76854819Y-43892857D01*
X76854819Y-43892857D02*
X76902438Y-44035714D01*
X76902438Y-44035714D02*
X76950057Y-44083333D01*
X77854819Y-45035714D02*
X77854819Y-44464286D01*
X77854819Y-44750000D02*
X76854819Y-44750000D01*
X76854819Y-44750000D02*
X76997676Y-44654762D01*
X76997676Y-44654762D02*
X77092914Y-44559524D01*
X77092914Y-44559524D02*
X77140533Y-44464286D01*
D10*
%TO.C,LED16*%
X149200001Y-130897158D02*
X148300001Y-131797158D01*
X149200001Y-131797158D01*
X149200001Y-130897158D01*
G36*
X149200001Y-131797158D02*
G01*
X148300001Y-131797158D01*
X149200001Y-130897158D01*
X149200001Y-131797158D01*
G37*
%TO.C,LED3*%
X89200001Y-110897158D02*
X88300001Y-111797158D01*
X89200001Y-111797158D01*
X89200001Y-110897158D01*
G36*
X89200001Y-111797158D02*
G01*
X88300001Y-111797158D01*
X89200001Y-110897158D01*
X89200001Y-111797158D01*
G37*
%TO.C,LED4*%
X89200001Y-130897158D02*
X88300001Y-131797158D01*
X89200001Y-131797158D01*
X89200001Y-130897158D01*
G36*
X89200001Y-131797158D02*
G01*
X88300001Y-131797158D01*
X89200001Y-130897158D01*
X89200001Y-131797158D01*
G37*
%TO.C,LED7*%
X109200001Y-110897158D02*
X108300001Y-111797158D01*
X109200001Y-111797158D01*
X109200001Y-110897158D01*
G36*
X109200001Y-111797158D02*
G01*
X108300001Y-111797158D01*
X109200001Y-110897158D01*
X109200001Y-111797158D01*
G37*
%TO.C,LED8*%
X109200001Y-130897158D02*
X108300001Y-131797158D01*
X109200001Y-131797158D01*
X109200001Y-130897158D01*
G36*
X109200001Y-131797158D02*
G01*
X108300001Y-131797158D01*
X109200001Y-130897158D01*
X109200001Y-131797158D01*
G37*
%TO.C,LED11*%
X129200001Y-110897158D02*
X128300001Y-111797158D01*
X129200001Y-111797158D01*
X129200001Y-110897158D01*
G36*
X129200001Y-111797158D02*
G01*
X128300001Y-111797158D01*
X129200001Y-110897158D01*
X129200001Y-111797158D01*
G37*
%TO.C,LED12*%
X129200001Y-130897158D02*
X128300001Y-131797158D01*
X129200001Y-131797158D01*
X129200001Y-130897158D01*
G36*
X129200001Y-131797158D02*
G01*
X128300001Y-131797158D01*
X129200001Y-130897158D01*
X129200001Y-131797158D01*
G37*
%TO.C,LED15*%
X149200001Y-110897158D02*
X148300001Y-111797158D01*
X149200001Y-111797158D01*
X149200001Y-110897158D01*
G36*
X149200001Y-111797158D02*
G01*
X148300001Y-111797158D01*
X149200001Y-110897158D01*
X149200001Y-111797158D01*
G37*
%TO.C,LED9*%
X129200001Y-70897158D02*
X128300001Y-71797158D01*
X129200001Y-71797158D01*
X129200001Y-70897158D01*
G36*
X129200001Y-71797158D02*
G01*
X128300001Y-71797158D01*
X129200001Y-70897158D01*
X129200001Y-71797158D01*
G37*
%TO.C,LED5*%
X109200001Y-70897158D02*
X108300001Y-71797158D01*
X109200001Y-71797158D01*
X109200001Y-70897158D01*
G36*
X109200001Y-71797158D02*
G01*
X108300001Y-71797158D01*
X109200001Y-70897158D01*
X109200001Y-71797158D01*
G37*
%TO.C,LED14*%
X149200001Y-90897158D02*
X148300001Y-91797158D01*
X149200001Y-91797158D01*
X149200001Y-90897158D01*
G36*
X149200001Y-91797158D02*
G01*
X148300001Y-91797158D01*
X149200001Y-90897158D01*
X149200001Y-91797158D01*
G37*
%TO.C,LED2*%
X89200001Y-90897158D02*
X88300001Y-91797158D01*
X89200001Y-91797158D01*
X89200001Y-90897158D01*
G36*
X89200001Y-91797158D02*
G01*
X88300001Y-91797158D01*
X89200001Y-90897158D01*
X89200001Y-91797158D01*
G37*
%TO.C,LED1*%
X89200001Y-70897158D02*
X88300001Y-71797158D01*
X89200001Y-71797158D01*
X89200001Y-70897158D01*
G36*
X89200001Y-71797158D02*
G01*
X88300001Y-71797158D01*
X89200001Y-70897158D01*
X89200001Y-71797158D01*
G37*
%TO.C,LED6*%
X109200001Y-90897158D02*
X108300001Y-91797158D01*
X109200001Y-91797158D01*
X109200001Y-90897158D01*
G36*
X109200001Y-91797158D02*
G01*
X108300001Y-91797158D01*
X109200001Y-90897158D01*
X109200001Y-91797158D01*
G37*
%TO.C,LED13*%
X149200001Y-70897158D02*
X148300001Y-71797158D01*
X149200001Y-71797158D01*
X149200001Y-70897158D01*
G36*
X149200001Y-71797158D02*
G01*
X148300001Y-71797158D01*
X149200001Y-70897158D01*
X149200001Y-71797158D01*
G37*
%TO.C,LED10*%
X129200001Y-90897158D02*
X128300001Y-91797158D01*
X129200001Y-91797158D01*
X129200001Y-90897158D01*
G36*
X129200001Y-91797158D02*
G01*
X128300001Y-91797158D01*
X129200001Y-90897158D01*
X129200001Y-91797158D01*
G37*
%TO.C,D14*%
D14*
X153500000Y-81230000D02*
X153500000Y-81880000D01*
X153500000Y-86770000D02*
X153500000Y-86120000D01*
X154620000Y-85280000D02*
X152380000Y-85280000D01*
X154620000Y-85400000D02*
X152380000Y-85400000D01*
X154620000Y-85520000D02*
X152380000Y-85520000D01*
X152380000Y-81880000D02*
X154620000Y-81880000D01*
X154620000Y-86120000D01*
X152380000Y-86120000D01*
X152380000Y-81880000D01*
%TO.C,D9*%
X133500000Y-61230000D02*
X133500000Y-61880000D01*
X133500000Y-66770000D02*
X133500000Y-66120000D01*
X134620000Y-65280000D02*
X132380000Y-65280000D01*
X134620000Y-65400000D02*
X132380000Y-65400000D01*
X134620000Y-65520000D02*
X132380000Y-65520000D01*
X132380000Y-61880000D02*
X134620000Y-61880000D01*
X134620000Y-66120000D01*
X132380000Y-66120000D01*
X132380000Y-61880000D01*
%TO.C,D2*%
X93000000Y-81040000D02*
X93000000Y-81690000D01*
X93000000Y-86580000D02*
X93000000Y-85930000D01*
X94120000Y-85090000D02*
X91880000Y-85090000D01*
X94120000Y-85210000D02*
X91880000Y-85210000D01*
X94120000Y-85330000D02*
X91880000Y-85330000D01*
X91880000Y-81690000D02*
X94120000Y-81690000D01*
X94120000Y-85930000D01*
X91880000Y-85930000D01*
X91880000Y-81690000D01*
%TO.C,D5*%
X113500000Y-60730000D02*
X113500000Y-61380000D01*
X113500000Y-66270000D02*
X113500000Y-65620000D01*
X114620000Y-64780000D02*
X112380000Y-64780000D01*
X114620000Y-64900000D02*
X112380000Y-64900000D01*
X114620000Y-65020000D02*
X112380000Y-65020000D01*
X112380000Y-61380000D02*
X114620000Y-61380000D01*
X114620000Y-65620000D01*
X112380000Y-65620000D01*
X112380000Y-61380000D01*
%TO.C,D3*%
X93000000Y-101230000D02*
X93000000Y-101880000D01*
X93000000Y-106770000D02*
X93000000Y-106120000D01*
X94120000Y-105280000D02*
X91880000Y-105280000D01*
X94120000Y-105400000D02*
X91880000Y-105400000D01*
X94120000Y-105520000D02*
X91880000Y-105520000D01*
X91880000Y-101880000D02*
X94120000Y-101880000D01*
X94120000Y-106120000D01*
X91880000Y-106120000D01*
X91880000Y-101880000D01*
%TO.C,D11*%
X133500000Y-101230000D02*
X133500000Y-101880000D01*
X133500000Y-106770000D02*
X133500000Y-106120000D01*
X134620000Y-105280000D02*
X132380000Y-105280000D01*
X134620000Y-105400000D02*
X132380000Y-105400000D01*
X134620000Y-105520000D02*
X132380000Y-105520000D01*
X132380000Y-101880000D02*
X134620000Y-101880000D01*
X134620000Y-106120000D01*
X132380000Y-106120000D01*
X132380000Y-101880000D01*
%TO.C,D16*%
X153500000Y-121040000D02*
X153500000Y-121690000D01*
X153500000Y-126580000D02*
X153500000Y-125930000D01*
X154620000Y-125090000D02*
X152380000Y-125090000D01*
X154620000Y-125210000D02*
X152380000Y-125210000D01*
X154620000Y-125330000D02*
X152380000Y-125330000D01*
X152380000Y-121690000D02*
X154620000Y-121690000D01*
X154620000Y-125930000D01*
X152380000Y-125930000D01*
X152380000Y-121690000D01*
%TO.C,R7*%
X158500000Y-78960000D02*
X158500000Y-79730000D01*
X158500000Y-87040000D02*
X158500000Y-86270000D01*
X157130000Y-79730000D02*
X159870000Y-79730000D01*
X159870000Y-86270000D01*
X157130000Y-86270000D01*
X157130000Y-79730000D01*
%TO.C,R5*%
X158500000Y-118540000D02*
X158500000Y-119310000D01*
X158500000Y-126620000D02*
X158500000Y-125850000D01*
X157130000Y-119310000D02*
X159870000Y-119310000D01*
X159870000Y-125850000D01*
X157130000Y-125850000D01*
X157130000Y-119310000D01*
%TO.C,R12*%
X135500000Y-43960000D02*
X135500000Y-44730000D01*
X135500000Y-52040000D02*
X135500000Y-51270000D01*
X134130000Y-44730000D02*
X136870000Y-44730000D01*
X136870000Y-51270000D01*
X134130000Y-51270000D01*
X134130000Y-44730000D01*
%TO.C,D1*%
X92810000Y-60730000D02*
X92810000Y-61380000D01*
X92810000Y-66270000D02*
X92810000Y-65620000D01*
X93930000Y-64780000D02*
X91690000Y-64780000D01*
X93930000Y-64900000D02*
X91690000Y-64900000D01*
X93930000Y-65020000D02*
X91690000Y-65020000D01*
X91690000Y-61380000D02*
X93930000Y-61380000D01*
X93930000Y-65620000D01*
X91690000Y-65620000D01*
X91690000Y-61380000D01*
%TO.C,R4*%
X140460000Y-134000000D02*
X141230000Y-134000000D01*
X148540000Y-134000000D02*
X147770000Y-134000000D01*
X141230000Y-132630000D02*
X147770000Y-132630000D01*
X147770000Y-135370000D01*
X141230000Y-135370000D01*
X141230000Y-132630000D01*
%TO.C,D13*%
X153500000Y-60730000D02*
X153500000Y-61380000D01*
X153500000Y-66270000D02*
X153500000Y-65620000D01*
X154620000Y-64780000D02*
X152380000Y-64780000D01*
X154620000Y-64900000D02*
X152380000Y-64900000D01*
X154620000Y-65020000D02*
X152380000Y-65020000D01*
X152380000Y-61380000D02*
X154620000Y-61380000D01*
X154620000Y-65620000D01*
X152380000Y-65620000D01*
X152380000Y-61380000D01*
%TO.C,R13*%
X73000000Y-50380000D02*
X73000000Y-51150000D01*
X73000000Y-58460000D02*
X73000000Y-57690000D01*
X71630000Y-51150000D02*
X74370000Y-51150000D01*
X74370000Y-57690000D01*
X71630000Y-57690000D01*
X71630000Y-51150000D01*
%TO.C,R10*%
X129540000Y-40000000D02*
X130310000Y-40000000D01*
X137620000Y-40000000D02*
X136850000Y-40000000D01*
X130310000Y-38630000D02*
X136850000Y-38630000D01*
X136850000Y-41370000D01*
X130310000Y-41370000D01*
X130310000Y-38630000D01*
%TO.C,D10*%
X133500000Y-81040000D02*
X133500000Y-81690000D01*
X133500000Y-86580000D02*
X133500000Y-85930000D01*
X134620000Y-85090000D02*
X132380000Y-85090000D01*
X134620000Y-85210000D02*
X132380000Y-85210000D01*
X134620000Y-85330000D02*
X132380000Y-85330000D01*
X132380000Y-81690000D02*
X134620000Y-81690000D01*
X134620000Y-85930000D01*
X132380000Y-85930000D01*
X132380000Y-81690000D01*
%TO.C,R9*%
X157000000Y-50040000D02*
X157000000Y-49270000D01*
X157000000Y-41960000D02*
X157000000Y-42730000D01*
X155630000Y-42730000D02*
X158370000Y-42730000D01*
X158370000Y-49270000D01*
X155630000Y-49270000D01*
X155630000Y-42730000D01*
%TO.C,R2*%
X100460000Y-134000000D02*
X101230000Y-134000000D01*
X108540000Y-134000000D02*
X107770000Y-134000000D01*
X101230000Y-132630000D02*
X107770000Y-132630000D01*
X107770000Y-135370000D01*
X101230000Y-135370000D01*
X101230000Y-132630000D01*
%TO.C,D12*%
X133000000Y-121040000D02*
X133000000Y-121690000D01*
X133000000Y-126580000D02*
X133000000Y-125930000D01*
X134120000Y-125090000D02*
X131880000Y-125090000D01*
X134120000Y-125210000D02*
X131880000Y-125210000D01*
X134120000Y-125330000D02*
X131880000Y-125330000D01*
X131880000Y-121690000D02*
X134120000Y-121690000D01*
X134120000Y-125930000D01*
X131880000Y-125930000D01*
X131880000Y-121690000D01*
%TO.C,R11*%
X128500000Y-44040000D02*
X128500000Y-44810000D01*
X128500000Y-52120000D02*
X128500000Y-51350000D01*
X127130000Y-44810000D02*
X129870000Y-44810000D01*
X129870000Y-51350000D01*
X127130000Y-51350000D01*
X127130000Y-44810000D01*
%TO.C,D4*%
X93000000Y-121040000D02*
X93000000Y-121690000D01*
X93000000Y-126580000D02*
X93000000Y-125930000D01*
X94120000Y-125090000D02*
X91880000Y-125090000D01*
X94120000Y-125210000D02*
X91880000Y-125210000D01*
X94120000Y-125330000D02*
X91880000Y-125330000D01*
X91880000Y-121690000D02*
X94120000Y-121690000D01*
X94120000Y-125930000D01*
X91880000Y-125930000D01*
X91880000Y-121690000D01*
%TO.C,U1*%
D15*
X106710500Y-56120000D02*
X106710500Y-39120000D01*
X108710500Y-37120910D02*
X122510500Y-37120910D01*
X111110500Y-35695970D02*
X111110500Y-43049270D01*
X111110500Y-43049270D02*
X120110500Y-43049270D01*
X120110500Y-35695970D02*
X111110500Y-35695970D01*
X120110500Y-43049270D02*
X120110500Y-35695970D01*
X122510500Y-58120000D02*
X108710500Y-58120000D01*
X124510500Y-39120000D02*
X124510500Y-56120000D01*
D14*
X106710500Y-39120000D02*
G75*
G02*
X108710500Y-37120000I2044610J-44610D01*
G01*
X108710500Y-58120000D02*
G75*
G02*
X106710500Y-56120000I0J2000000D01*
G01*
X122510500Y-37120000D02*
G75*
G02*
X124510500Y-39120000I-44612J-2044612D01*
G01*
X124510500Y-56120000D02*
G75*
G02*
X122510500Y-58120000I-2044857J44857D01*
G01*
D16*
X126737500Y-38820000D02*
G75*
G02*
X126483500Y-38820000I-127000J0D01*
G01*
X126483500Y-38820000D02*
G75*
G02*
X126737500Y-38820000I127000J0D01*
G01*
D17*
X124498215Y-39058295D02*
X124495167Y-39009527D01*
X124491103Y-38960506D01*
X124498215Y-39058295D01*
X106721008Y-56141574D02*
X106722787Y-56190850D01*
X106725835Y-56239618D01*
X106729899Y-56288639D01*
X106735232Y-56337407D01*
X106741836Y-56386175D01*
X106749456Y-56434690D01*
X106758347Y-56482950D01*
X106768252Y-56530955D01*
X106721008Y-56141574D01*
%TO.C,D8*%
D14*
X113500000Y-121230000D02*
X113500000Y-121880000D01*
X113500000Y-126770000D02*
X113500000Y-126120000D01*
X114620000Y-125280000D02*
X112380000Y-125280000D01*
X114620000Y-125400000D02*
X112380000Y-125400000D01*
X114620000Y-125520000D02*
X112380000Y-125520000D01*
X112380000Y-121880000D02*
X114620000Y-121880000D01*
X114620000Y-126120000D01*
X112380000Y-126120000D01*
X112380000Y-121880000D01*
%TO.C,D6*%
X113500000Y-81230000D02*
X113500000Y-81880000D01*
X113500000Y-86770000D02*
X113500000Y-86120000D01*
X114620000Y-85280000D02*
X112380000Y-85280000D01*
X114620000Y-85400000D02*
X112380000Y-85400000D01*
X114620000Y-85520000D02*
X112380000Y-85520000D01*
X112380000Y-81880000D02*
X114620000Y-81880000D01*
X114620000Y-86120000D01*
X112380000Y-86120000D01*
X112380000Y-81880000D01*
%TO.C,D15*%
X153500000Y-101040000D02*
X153500000Y-101690000D01*
X153500000Y-106580000D02*
X153500000Y-105930000D01*
X154620000Y-105090000D02*
X152380000Y-105090000D01*
X154620000Y-105210000D02*
X152380000Y-105210000D01*
X154620000Y-105330000D02*
X152380000Y-105330000D01*
X152380000Y-101690000D02*
X154620000Y-101690000D01*
X154620000Y-105930000D01*
X152380000Y-105930000D01*
X152380000Y-101690000D01*
%TO.C,D7*%
X113500000Y-100920000D02*
X113500000Y-101570000D01*
X113500000Y-106460000D02*
X113500000Y-105810000D01*
X114620000Y-104970000D02*
X112380000Y-104970000D01*
X114620000Y-105090000D02*
X112380000Y-105090000D01*
X114620000Y-105210000D02*
X112380000Y-105210000D01*
X112380000Y-101570000D02*
X114620000Y-101570000D01*
X114620000Y-105810000D01*
X112380000Y-105810000D01*
X112380000Y-101570000D01*
%TO.C,C1*%
X71960000Y-41970000D02*
X70696000Y-41970000D01*
X71960000Y-42010000D02*
X70658000Y-42010000D01*
X71960000Y-42050000D02*
X70621000Y-42050000D01*
X71960000Y-42090000D02*
X70585000Y-42090000D01*
X71960000Y-42130000D02*
X70550000Y-42130000D01*
X71960000Y-42170000D02*
X70517000Y-42170000D01*
X71960000Y-42210000D02*
X70484000Y-42210000D01*
X71960000Y-42250000D02*
X70453000Y-42250000D01*
X71960000Y-42290000D02*
X70423000Y-42290000D01*
X71960000Y-42330000D02*
X70393000Y-42330000D01*
X71960000Y-42370000D02*
X70364000Y-42370000D01*
X71960000Y-42410000D02*
X70337000Y-42410000D01*
X71960000Y-42450000D02*
X70310000Y-42450000D01*
X71960000Y-42490000D02*
X70284000Y-42490000D01*
X71960000Y-42530000D02*
X70259000Y-42530000D01*
X71960000Y-42570000D02*
X70235000Y-42570000D01*
X71960000Y-42610000D02*
X70211000Y-42610000D01*
X71960000Y-42650000D02*
X70188000Y-42650000D01*
X71960000Y-42690000D02*
X70166000Y-42690000D01*
X71960000Y-42730000D02*
X70145000Y-42730000D01*
X71960000Y-42770000D02*
X70124000Y-42770000D01*
X71960000Y-42810000D02*
X70104000Y-42810000D01*
X71960000Y-42850000D02*
X70085000Y-42850000D01*
X71960000Y-42890000D02*
X70066000Y-42890000D01*
X71960000Y-42930000D02*
X70048000Y-42930000D01*
X71960000Y-42970000D02*
X70031000Y-42970000D01*
X71960000Y-43010000D02*
X70014000Y-43010000D01*
X71960000Y-43050000D02*
X69998000Y-43050000D01*
X71960000Y-43090000D02*
X69983000Y-43090000D01*
X71960000Y-43130000D02*
X69968000Y-43130000D01*
X71960000Y-43170000D02*
X69953000Y-43170000D01*
X71960000Y-43210000D02*
X69940000Y-43210000D01*
X71960000Y-43250000D02*
X69927000Y-43250000D01*
X71960000Y-43290000D02*
X69914000Y-43290000D01*
X71960000Y-43330000D02*
X69902000Y-43330000D01*
X71960000Y-43370000D02*
X69891000Y-43370000D01*
X71960000Y-43410000D02*
X69880000Y-43410000D01*
X71960000Y-43450000D02*
X69869000Y-43450000D01*
X71960000Y-43490000D02*
X69860000Y-43490000D01*
X71960000Y-43530000D02*
X69850000Y-43530000D01*
X71960000Y-43570000D02*
X69841000Y-43570000D01*
X71960000Y-43610000D02*
X69833000Y-43610000D01*
X71960000Y-43650000D02*
X69826000Y-43650000D01*
X71960000Y-43690000D02*
X69818000Y-43690000D01*
X71960000Y-43730000D02*
X69812000Y-43730000D01*
X71960000Y-43770000D02*
X69805000Y-43770000D01*
X71960000Y-43810000D02*
X69800000Y-43810000D01*
X71960000Y-43850000D02*
X69795000Y-43850000D01*
X71960000Y-43890000D02*
X69790000Y-43890000D01*
X71960000Y-43930000D02*
X69786000Y-43930000D01*
X71960000Y-43970000D02*
X69782000Y-43970000D01*
X71960000Y-44010000D02*
X69779000Y-44010000D01*
X73402000Y-41010000D02*
X72598000Y-41010000D01*
X73633000Y-41050000D02*
X72367000Y-41050000D01*
X73801000Y-41090000D02*
X72199000Y-41090000D01*
X73939000Y-41130000D02*
X72061000Y-41130000D01*
X74058000Y-41170000D02*
X71942000Y-41170000D01*
X74165000Y-41210000D02*
X71835000Y-41210000D01*
X74261000Y-41250000D02*
X71739000Y-41250000D01*
X74350000Y-41290000D02*
X71650000Y-41290000D01*
X74432000Y-41330000D02*
X71568000Y-41330000D01*
X74509000Y-41370000D02*
X71491000Y-41370000D01*
X74581000Y-41410000D02*
X71419000Y-41410000D01*
X74649000Y-41450000D02*
X71351000Y-41450000D01*
X74714000Y-41490000D02*
X71286000Y-41490000D01*
X74775000Y-41530000D02*
X71225000Y-41530000D01*
X74834000Y-41570000D02*
X71166000Y-41570000D01*
X74839000Y-47750241D02*
X74839000Y-47120241D01*
X74890000Y-41610000D02*
X71110000Y-41610000D01*
X74943000Y-41650000D02*
X71057000Y-41650000D01*
X74995000Y-41690000D02*
X71005000Y-41690000D01*
X75044000Y-41730000D02*
X70956000Y-41730000D01*
X75091000Y-41770000D02*
X70909000Y-41770000D01*
X75137000Y-41810000D02*
X70863000Y-41810000D01*
X75154000Y-47435241D02*
X74524000Y-47435241D01*
X75181000Y-41850000D02*
X70819000Y-41850000D01*
X75223000Y-41890000D02*
X70777000Y-41890000D01*
X75264000Y-41930000D02*
X70736000Y-41930000D01*
X75304000Y-41970000D02*
X74040000Y-41970000D01*
X75342000Y-42010000D02*
X74040000Y-42010000D01*
X75379000Y-42050000D02*
X74040000Y-42050000D01*
X75415000Y-42090000D02*
X74040000Y-42090000D01*
X75450000Y-42130000D02*
X74040000Y-42130000D01*
X75483000Y-42170000D02*
X74040000Y-42170000D01*
X75516000Y-42210000D02*
X74040000Y-42210000D01*
X75547000Y-42250000D02*
X74040000Y-42250000D01*
X75577000Y-42290000D02*
X74040000Y-42290000D01*
X75607000Y-42330000D02*
X74040000Y-42330000D01*
X75636000Y-42370000D02*
X74040000Y-42370000D01*
X75663000Y-42410000D02*
X74040000Y-42410000D01*
X75690000Y-42450000D02*
X74040000Y-42450000D01*
X75716000Y-42490000D02*
X74040000Y-42490000D01*
X75741000Y-42530000D02*
X74040000Y-42530000D01*
X75765000Y-42570000D02*
X74040000Y-42570000D01*
X75789000Y-42610000D02*
X74040000Y-42610000D01*
X75812000Y-42650000D02*
X74040000Y-42650000D01*
X75834000Y-42690000D02*
X74040000Y-42690000D01*
X75855000Y-42730000D02*
X74040000Y-42730000D01*
X75876000Y-42770000D02*
X74040000Y-42770000D01*
X75896000Y-42810000D02*
X74040000Y-42810000D01*
X75915000Y-42850000D02*
X74040000Y-42850000D01*
X75934000Y-42890000D02*
X74040000Y-42890000D01*
X75952000Y-42930000D02*
X74040000Y-42930000D01*
X75969000Y-42970000D02*
X74040000Y-42970000D01*
X75986000Y-43010000D02*
X74040000Y-43010000D01*
X76002000Y-43050000D02*
X74040000Y-43050000D01*
X76017000Y-43090000D02*
X74040000Y-43090000D01*
X76032000Y-43130000D02*
X74040000Y-43130000D01*
X76047000Y-43170000D02*
X74040000Y-43170000D01*
X76060000Y-43210000D02*
X74040000Y-43210000D01*
X76073000Y-43250000D02*
X74040000Y-43250000D01*
X76086000Y-43290000D02*
X74040000Y-43290000D01*
X76098000Y-43330000D02*
X74040000Y-43330000D01*
X76109000Y-43370000D02*
X74040000Y-43370000D01*
X76120000Y-43410000D02*
X74040000Y-43410000D01*
X76131000Y-43450000D02*
X74040000Y-43450000D01*
X76140000Y-43490000D02*
X74040000Y-43490000D01*
X76150000Y-43530000D02*
X74040000Y-43530000D01*
X76159000Y-43570000D02*
X74040000Y-43570000D01*
X76167000Y-43610000D02*
X74040000Y-43610000D01*
X76174000Y-43650000D02*
X74040000Y-43650000D01*
X76182000Y-43690000D02*
X74040000Y-43690000D01*
X76188000Y-43730000D02*
X74040000Y-43730000D01*
X76195000Y-43770000D02*
X74040000Y-43770000D01*
X76200000Y-43810000D02*
X74040000Y-43810000D01*
X76205000Y-43850000D02*
X74040000Y-43850000D01*
X76210000Y-43890000D02*
X74040000Y-43890000D01*
X76214000Y-43930000D02*
X74040000Y-43930000D01*
X76218000Y-43970000D02*
X74040000Y-43970000D01*
X76221000Y-44010000D02*
X74040000Y-44010000D01*
X76224000Y-44050000D02*
X69776000Y-44050000D01*
X76226000Y-44090000D02*
X69774000Y-44090000D01*
X76228000Y-44130000D02*
X69772000Y-44130000D01*
X76229000Y-44170000D02*
X69771000Y-44170000D01*
X76230000Y-44210000D02*
X69770000Y-44210000D01*
X76230000Y-44250000D02*
X69770000Y-44250000D01*
X76270000Y-44250000D02*
G75*
G02*
X69730000Y-44250000I-3270000J0D01*
G01*
X69730000Y-44250000D02*
G75*
G02*
X76270000Y-44250000I3270000J0D01*
G01*
%TD*%
M02*
