%TF.GenerationSoftware,KiCad,Pcbnew,10.0.4*%
%TF.CreationDate,2026-09-28T23:47:19-04:00*%
%TF.ProjectId,KSPMacroPad,4b53504d-6163-4726-9f50-61642e6b6963,3*%
%TF.SameCoordinates,Original*%
%TF.FileFunction,Soldermask,Top*%
%TF.FilePolarity,Negative*%
%FSLAX46Y46*%
G04 Gerber Fmt 4.6, Leading zero omitted, Abs format (unit mm)*
G04 Created by KiCad (PCBNEW 10.0.4) date 2026-09-28 23:47:19*
%MOMM*%
%LPD*%
G01*
G04 APERTURE LIST*
G04 Aperture macros list*
%AMRoundRect*
0 Rectangle with rounded corners*
0 $1 Rounding radius*
0 $2 $3 $4 $5 $6 $7 $8 $9 X,Y pos of 4 corners*
0 Add a 4 corners polygon primitive as box body*
4,1,4,$2,$3,$4,$5,$6,$7,$8,$9,$2,$3,0*
0 Add four circle primitives for the rounded corners*
1,1,$1+$1,$2,$3*
1,1,$1+$1,$4,$5*
1,1,$1+$1,$6,$7*
1,1,$1+$1,$8,$9*
0 Add four rect primitives between the rounded corners*
20,1,$1+$1,$2,$3,$4,$5,0*
20,1,$1+$1,$4,$5,$6,$7,0*
20,1,$1+$1,$6,$7,$8,$9,0*
20,1,$1+$1,$8,$9,$2,$3,0*%
G04 Aperture macros list end*
%ADD10C,3.200000*%
%ADD11C,2.000000*%
%ADD12R,3.200000X2.000000*%
%ADD13R,2.000000X2.000000*%
%ADD14C,1.701800*%
%ADD15C,3.987800*%
%ADD16R,1.700000X1.700000*%
%ADD17O,1.700000X1.700000*%
%ADD18RoundRect,0.250000X0.550000X-0.550000X0.550000X0.550000X-0.550000X0.550000X-0.550000X-0.550000X0*%
%ADD19C,1.600000*%
%ADD20RoundRect,0.082000X0.328000X0.718000X-0.328000X0.718000X-0.328000X-0.718000X0.328000X-0.718000X0*%
%ADD21RoundRect,0.082000X-0.328000X-0.718000X0.328000X-0.718000X0.328000X0.718000X-0.328000X0.718000X0*%
%ADD22R,3.500000X1.700000*%
%ADD23O,3.600000X1.700000*%
%ADD24O,3.700000X1.700000*%
G04 APERTURE END LIST*
D10*
%TO.C,SCRW3*%
X156500000Y-132000000D03*
%TD*%
%TO.C,SCRW2*%
X115500000Y-96000000D03*
%TD*%
%TO.C,SCRW1*%
X70500000Y-71000000D03*
%TD*%
D11*
%TO.C,ENCDR_LEFT1*%
X91500000Y-43500000D03*
X91500000Y-48500000D03*
D12*
X84500000Y-51600000D03*
X84500000Y-40400000D03*
D11*
X77000000Y-46000000D03*
X77000000Y-48500000D03*
D13*
X77000000Y-43500000D03*
%TD*%
D11*
%TO.C,ENCDR_RIGHT1*%
X153000000Y-43500000D03*
X153000000Y-48500000D03*
D12*
X146000000Y-51600000D03*
X146000000Y-40400000D03*
D11*
X138500000Y-46000000D03*
X138500000Y-48500000D03*
D13*
X138500000Y-43500000D03*
%TD*%
D14*
%TO.C,SW1*%
X90080000Y-65000000D03*
D15*
X85000000Y-65000000D03*
D14*
X79920000Y-65000000D03*
%TD*%
%TO.C,SW2*%
X90080000Y-85000000D03*
D15*
X85000000Y-85000000D03*
D14*
X79920000Y-85000000D03*
%TD*%
%TO.C,SW3*%
X90080000Y-105000000D03*
D15*
X85000000Y-105000000D03*
D14*
X79920000Y-105000000D03*
%TD*%
%TO.C,SW4*%
X90080000Y-125000000D03*
D15*
X85000000Y-125000000D03*
D14*
X79920000Y-125000000D03*
%TD*%
%TO.C,SW5*%
X110080000Y-65000000D03*
D15*
X105000000Y-65000000D03*
D14*
X99920000Y-65000000D03*
%TD*%
%TO.C,SW6*%
X110080000Y-85000000D03*
D15*
X105000000Y-85000000D03*
D14*
X99920000Y-85000000D03*
%TD*%
%TO.C,SW7*%
X110080000Y-105000000D03*
D15*
X105000000Y-105000000D03*
D14*
X99920000Y-105000000D03*
%TD*%
%TO.C,SW8*%
X110080000Y-125000000D03*
D15*
X105000000Y-125000000D03*
D14*
X99920000Y-125000000D03*
%TD*%
%TO.C,SW9*%
X130080000Y-65000000D03*
D15*
X125000000Y-65000000D03*
D14*
X119920000Y-65000000D03*
%TD*%
%TO.C,SW10*%
X130080000Y-85000000D03*
D15*
X125000000Y-85000000D03*
D14*
X119920000Y-85000000D03*
%TD*%
%TO.C,SW11*%
X130080000Y-105000000D03*
D15*
X125000000Y-105000000D03*
D14*
X119920000Y-105000000D03*
%TD*%
%TO.C,SW12*%
X130080000Y-125000000D03*
D15*
X125000000Y-125000000D03*
D14*
X119920000Y-125000000D03*
%TD*%
%TO.C,SW13*%
X150080000Y-65000000D03*
D15*
X145000000Y-65000000D03*
D14*
X139920000Y-65000000D03*
%TD*%
%TO.C,SW14*%
X150080000Y-85000000D03*
D15*
X145000000Y-85000000D03*
D14*
X139920000Y-85000000D03*
%TD*%
%TO.C,SW15*%
X150080000Y-105000000D03*
D15*
X145000000Y-105000000D03*
D14*
X139920000Y-105000000D03*
%TD*%
%TO.C,SW16*%
X150080000Y-125000000D03*
D15*
X145000000Y-125000000D03*
D14*
X139920000Y-125000000D03*
%TD*%
D16*
%TO.C,S1*%
X132615000Y-42190000D03*
D17*
X132615000Y-44730000D03*
X132615000Y-47270000D03*
X132615000Y-49810000D03*
%TD*%
D18*
%TO.C,D14*%
X153500000Y-87810000D03*
D19*
X153500000Y-80190000D03*
%TD*%
D18*
%TO.C,D9*%
X133500000Y-67810000D03*
D19*
X133500000Y-60190000D03*
%TD*%
D18*
%TO.C,D2*%
X93000000Y-87620000D03*
D19*
X93000000Y-80000000D03*
%TD*%
D18*
%TO.C,D5*%
X113500000Y-67310000D03*
D19*
X113500000Y-59690000D03*
%TD*%
D18*
%TO.C,D3*%
X93000000Y-107810000D03*
D19*
X93000000Y-100190000D03*
%TD*%
D18*
%TO.C,D11*%
X133500000Y-107810000D03*
D19*
X133500000Y-100190000D03*
%TD*%
D18*
%TO.C,D16*%
X153500000Y-127620000D03*
D19*
X153500000Y-120000000D03*
%TD*%
D20*
%TO.C,LED20*%
X69352842Y-132099999D03*
X67852842Y-132099999D03*
X67852842Y-126899999D03*
X69352842Y-126899999D03*
%TD*%
D21*
%TO.C,LED18*%
X67647158Y-42400001D03*
X69147158Y-42400001D03*
X69147158Y-47600001D03*
X67647158Y-47600001D03*
%TD*%
D19*
%TO.C,R7*%
X158500000Y-88080000D03*
X158500000Y-77920000D03*
%TD*%
D21*
%TO.C,LED19*%
X161647158Y-126900001D03*
X163147158Y-126900001D03*
X163147158Y-132100001D03*
X161647158Y-132100001D03*
%TD*%
D19*
%TO.C,R5*%
X158500000Y-127660000D03*
X158500000Y-117500000D03*
%TD*%
%TO.C,R12*%
X135500000Y-42920000D03*
X135500000Y-53080000D03*
%TD*%
D18*
%TO.C,D1*%
X92810000Y-67310000D03*
D19*
X92810000Y-59690000D03*
%TD*%
%TO.C,R4*%
X139420000Y-134000000D03*
X149580000Y-134000000D03*
%TD*%
D18*
%TO.C,D13*%
X153500000Y-67310000D03*
D19*
X153500000Y-59690000D03*
%TD*%
%TO.C,R13*%
X73000000Y-59500000D03*
X73000000Y-49340000D03*
%TD*%
%TO.C,R10*%
X138660000Y-40000000D03*
X128500000Y-40000000D03*
%TD*%
D18*
%TO.C,D10*%
X133500000Y-87620000D03*
D19*
X133500000Y-80000000D03*
%TD*%
%TO.C,R9*%
X157000000Y-40920000D03*
X157000000Y-51080000D03*
%TD*%
%TO.C,R2*%
X99420000Y-134000000D03*
X109580000Y-134000000D03*
%TD*%
D18*
%TO.C,D12*%
X133000000Y-127620000D03*
D19*
X133000000Y-120000000D03*
%TD*%
D20*
%TO.C,LED17*%
X163352842Y-47599999D03*
X161852842Y-47599999D03*
X161852842Y-42399999D03*
X163352842Y-42399999D03*
%TD*%
D19*
%TO.C,R11*%
X128500000Y-43000000D03*
X128500000Y-53160000D03*
%TD*%
D18*
%TO.C,D4*%
X93000000Y-127620000D03*
D19*
X93000000Y-120000000D03*
%TD*%
D22*
%TO.C,U1*%
X124235500Y-40000000D03*
D23*
X124235500Y-42540000D03*
X124235500Y-45080000D03*
X124235500Y-47620000D03*
X124235500Y-50160000D03*
X124235500Y-52700000D03*
X124235500Y-55240000D03*
X106985500Y-55240000D03*
X106985500Y-52700000D03*
X106985500Y-50160000D03*
D24*
X106985500Y-47620000D03*
X106985500Y-45080000D03*
X106985500Y-42540000D03*
X106985500Y-40000000D03*
%TD*%
D18*
%TO.C,D8*%
X113500000Y-127810000D03*
D19*
X113500000Y-120190000D03*
%TD*%
D18*
%TO.C,D6*%
X113500000Y-87810000D03*
D19*
X113500000Y-80190000D03*
%TD*%
D18*
%TO.C,D15*%
X153500000Y-107620000D03*
D19*
X153500000Y-100000000D03*
%TD*%
D18*
%TO.C,D7*%
X113500000Y-107500000D03*
D19*
X113500000Y-99880000D03*
%TD*%
D18*
%TO.C,C1*%
X73000000Y-45500000D03*
D19*
X73000000Y-43000000D03*
%TD*%
M02*
