M48
; DRILL file KiCad 10.0.4 date 2026-09-28T23:47:39
; FORMAT={-:-/ absolute / metric / decimal}
; #@! TF.CreationDate,2026-09-28T23:47:39-04:00
; #@! TF.GenerationSoftware,Kicad,Pcbnew,10.0.4
; #@! TF.FileFunction,NonPlated,1,2,NPTH
FMAT,2
METRIC
; #@! TA.AperFunction,NonPlated,NPTH,ComponentDrill
T1C1.702
; #@! TA.AperFunction,NonPlated,NPTH,ComponentDrill
T2C3.200
; #@! TA.AperFunction,NonPlated,NPTH,ComponentDrill
T3C3.988
%
G90
G05
T1
X79.92Y-65.0
X79.92Y-85.0
X79.92Y-105.0
X79.92Y-125.0
X90.08Y-65.0
X90.08Y-85.0
X90.08Y-105.0
X90.08Y-125.0
X99.92Y-65.0
X99.92Y-85.0
X99.92Y-105.0
X99.92Y-125.0
X110.08Y-65.0
X110.08Y-85.0
X110.08Y-105.0
X110.08Y-125.0
X119.92Y-65.0
X119.92Y-85.0
X119.92Y-105.0
X119.92Y-125.0
X130.08Y-65.0
X130.08Y-85.0
X130.08Y-105.0
X130.08Y-125.0
X139.92Y-65.0
X139.92Y-85.0
X139.92Y-105.0
X139.92Y-125.0
X150.08Y-65.0
X150.08Y-85.0
X150.08Y-105.0
X150.08Y-125.0
T2
X70.5Y-71.0
X115.5Y-96.0
X156.5Y-132.0
T3
X85.0Y-65.0
X85.0Y-85.0
X85.0Y-105.0
X85.0Y-125.0
X105.0Y-65.0
X105.0Y-85.0
X105.0Y-105.0
X105.0Y-125.0
X125.0Y-65.0
X125.0Y-85.0
X125.0Y-105.0
X125.0Y-125.0
X145.0Y-65.0
X145.0Y-85.0
X145.0Y-105.0
X145.0Y-125.0
M30
