M48
; DRILL file KiCad 10.0.4 date 2026-09-28T23:47:39
; FORMAT={-:-/ absolute / metric / decimal}
; #@! TF.CreationDate,2026-09-28T23:47:39-04:00
; #@! TF.GenerationSoftware,Kicad,Pcbnew,10.0.4
; #@! TF.FileFunction,Plated,1,2,PTH
FMAT,2
METRIC
; #@! TA.AperFunction,Plated,PTH,ViaDrill
T1C0.300
; #@! TA.AperFunction,Plated,PTH,ComponentDrill
T2C0.800
; #@! TA.AperFunction,Plated,PTH,ComponentDrill
T3C1.000
; #@! TA.AperFunction,Plated,PTH,ComponentDrill
T4C1.500
; #@! TA.AperFunction,Plated,PTH,ComponentDrill
T5C1.524
%
G90
G05
T1
X75.488Y-41.538
X81.072Y-132.1
X87.538Y-38.386
X87.948Y-123.379
X89.88Y-127.605
X91.388Y-110.144
X92.867Y-130.512
X100.971Y-45.293
X101.722Y-43.999
X105.0Y-94.0
X107.6Y-106.893
X108.249Y-91.621
X119.921Y-68.123
X121.228Y-69.851
X121.974Y-106.984
X122.4Y-92.941
X127.247Y-88.215
X128.052Y-88.171
X128.904Y-109.258
X128.927Y-68.686
X129.009Y-78.446
X129.346Y-88.674
X130.0Y-93.541
X130.483Y-42.471
X137.905Y-130.0
X138.505Y-112.3
X138.505Y-132.337
X140.02Y-131.0
X141.024Y-89.675
X141.1Y-129.208
X141.263Y-132.337
X141.49Y-72.2
X141.708Y-92.301
X141.709Y-111.572
X142.612Y-71.587
X145.864Y-57.761
X147.0Y-127.5
X147.359Y-88.228
X147.4Y-126.483
X148.923Y-108.722
X149.204Y-78.446
X149.392Y-50.396
X159.167Y-135.118
T2
X73.0Y-43.0
X73.0Y-45.5
X73.0Y-49.34
X73.0Y-59.5
X92.81Y-59.69
X92.81Y-67.31
X93.0Y-80.0
X93.0Y-87.62
X93.0Y-100.19
X93.0Y-107.81
X93.0Y-120.0
X93.0Y-127.62
X99.42Y-134.0
X109.58Y-134.0
X113.5Y-59.69
X113.5Y-67.31
X113.5Y-80.19
X113.5Y-87.81
X113.5Y-99.88
X113.5Y-107.5
X113.5Y-120.19
X113.5Y-127.81
X128.5Y-40.0
X128.5Y-43.0
X128.5Y-53.16
X133.0Y-120.0
X133.0Y-127.62
X133.5Y-60.19
X133.5Y-67.81
X133.5Y-80.0
X133.5Y-87.62
X133.5Y-100.19
X133.5Y-107.81
X135.5Y-42.92
X135.5Y-53.08
X138.66Y-40.0
X139.42Y-134.0
X149.58Y-134.0
X153.5Y-59.69
X153.5Y-67.31
X153.5Y-80.19
X153.5Y-87.81
X153.5Y-100.0
X153.5Y-107.62
X153.5Y-120.0
X153.5Y-127.62
X157.0Y-40.92
X157.0Y-51.08
X158.5Y-77.92
X158.5Y-88.08
X158.5Y-117.5
X158.5Y-127.66
T3
X77.0Y-43.5
X77.0Y-46.0
X77.0Y-48.5
X91.5Y-43.5
X91.5Y-48.5
X107.986Y-40.0
X107.986Y-42.54
X107.986Y-45.08
X107.986Y-47.62
X107.986Y-50.16
X107.986Y-52.7
X107.986Y-55.24
X123.235Y-40.0
X123.235Y-42.54
X123.235Y-45.08
X123.235Y-47.62
X123.235Y-50.16
X123.235Y-52.7
X123.235Y-55.24
X132.615Y-42.19
X132.615Y-44.73
X132.615Y-47.27
X132.615Y-49.81
X138.5Y-43.5
X138.5Y-46.0
X138.5Y-48.5
X153.0Y-43.5
X153.0Y-48.5
T5
X81.19Y-62.46
X81.19Y-82.46
X81.19Y-102.46
X81.19Y-122.46
X87.54Y-59.92
X87.54Y-79.92
X87.54Y-99.92
X87.54Y-119.92
X101.19Y-62.46
X101.19Y-82.46
X101.19Y-102.46
X101.19Y-122.46
X107.54Y-59.92
X107.54Y-79.92
X107.54Y-99.92
X107.54Y-119.92
X121.19Y-62.46
X121.19Y-82.46
X121.19Y-102.46
X121.19Y-122.46
X127.54Y-59.92
X127.54Y-79.92
X127.54Y-99.92
X127.54Y-119.92
X141.19Y-62.46
X141.19Y-82.46
X141.19Y-102.46
X141.19Y-122.46
X147.54Y-59.92
X147.54Y-79.92
X147.54Y-99.92
X147.54Y-119.92
T4
G00X83.85Y-40.4
M15
G01X85.15Y-40.4
M16
G05
G00X83.85Y-51.6
M15
G01X85.15Y-51.6
M16
G05
G00X145.35Y-40.4
M15
G01X146.65Y-40.4
M16
G05
G00X145.35Y-51.6
M15
G01X146.65Y-51.6
M16
G05
M30
