%TF.GenerationSoftware,KiCad,Pcbnew,10.0.4*%
%TF.CreationDate,2026-09-28T23:47:19-04:00*%
%TF.ProjectId,KSPMacroPad,4b53504d-6163-4726-9f50-61642e6b6963,3*%
%TF.SameCoordinates,Original*%
%TF.FileFunction,Copper,L2,Bot*%
%TF.FilePolarity,Positive*%
%FSLAX46Y46*%
G04 Gerber Fmt 4.6, Leading zero omitted, Abs format (unit mm)*
G04 Created by KiCad (PCBNEW 10.0.4) date 2026-09-28 23:47:19*
%MOMM*%
%LPD*%
G01*
G04 APERTURE LIST*
G04 Aperture macros list*
%AMRoundRect*
0 Rectangle with rounded corners*
0 $1 Rounding radius*
0 $2 $3 $4 $5 $6 $7 $8 $9 X,Y pos of 4 corners*
0 Add a 4 corners polygon primitive as box body*
4,1,4,$2,$3,$4,$5,$6,$7,$8,$9,$2,$3,0*
0 Add four circle primitives for the rounded corners*
1,1,$1+$1,$2,$3*
1,1,$1+$1,$4,$5*
1,1,$1+$1,$6,$7*
1,1,$1+$1,$8,$9*
0 Add four rect primitives between the rounded corners*
20,1,$1+$1,$2,$3,$4,$5,0*
20,1,$1+$1,$4,$5,$6,$7,0*
20,1,$1+$1,$6,$7,$8,$9,0*
20,1,$1+$1,$8,$9,$2,$3,0*%
G04 Aperture macros list end*
%TA.AperFunction,SMDPad,CuDef*%
%ADD10RoundRect,0.082000X-0.718000X0.328000X-0.718000X-0.328000X0.718000X-0.328000X0.718000X0.328000X0*%
%TD*%
%TA.AperFunction,ComponentPad*%
%ADD11C,2.000000*%
%TD*%
%TA.AperFunction,ComponentPad*%
%ADD12R,3.200000X2.000000*%
%TD*%
%TA.AperFunction,ComponentPad*%
%ADD13R,2.000000X2.000000*%
%TD*%
%TA.AperFunction,ComponentPad*%
%ADD14C,2.300000*%
%TD*%
%TA.AperFunction,ComponentPad*%
%ADD15R,1.700000X1.700000*%
%TD*%
%TA.AperFunction,ComponentPad*%
%ADD16O,1.700000X1.700000*%
%TD*%
%TA.AperFunction,ComponentPad*%
%ADD17RoundRect,0.250000X0.550000X-0.550000X0.550000X0.550000X-0.550000X0.550000X-0.550000X-0.550000X0*%
%TD*%
%TA.AperFunction,ComponentPad*%
%ADD18C,1.600000*%
%TD*%
%TA.AperFunction,ComponentPad*%
%ADD19R,3.500000X1.700000*%
%TD*%
%TA.AperFunction,ComponentPad*%
%ADD20O,3.600000X1.700000*%
%TD*%
%TA.AperFunction,ComponentPad*%
%ADD21O,3.700000X1.700000*%
%TD*%
%TA.AperFunction,ViaPad*%
%ADD22C,0.600000*%
%TD*%
%TA.AperFunction,Conductor*%
%ADD23C,0.200000*%
%TD*%
G04 APERTURE END LIST*
D10*
%TO.P,LED16,1,VSS_1*%
%TO.N,/LED_GND*%
X142400001Y-129147158D03*
%TO.P,LED16,2,DIN_2*%
%TO.N,Net-(LED15-DOUT)*%
X142400001Y-130647158D03*
%TO.P,LED16,3,VDD_3*%
%TO.N,/LED_5V*%
X147600001Y-130647158D03*
%TO.P,LED16,4,DOUT_4*%
%TO.N,Net-(LED12-DIN)*%
X147600001Y-129147158D03*
%TD*%
D11*
%TO.P,ENCDR_LEFT1,S2,S2_S2*%
%TO.N,unconnected-(ENCDR_LEFT1-PadS2)*%
X91500000Y-43500000D03*
%TO.P,ENCDR_LEFT1,S1,S1_S1*%
%TO.N,unconnected-(ENCDR_LEFT1-PadS1)*%
X91500000Y-48500000D03*
D12*
%TO.P,ENCDR_LEFT1,MP*%
%TO.N,N/C*%
X84500000Y-51600000D03*
X84500000Y-40400000D03*
D11*
%TO.P,ENCDR_LEFT1,C,C_C*%
%TO.N,/an_GND*%
X77000000Y-46000000D03*
%TO.P,ENCDR_LEFT1,B,B_B*%
%TO.N,Net-(U1-PA5_A9_D9_MISO)*%
X77000000Y-48500000D03*
D13*
%TO.P,ENCDR_LEFT1,A,A_A*%
%TO.N,Net-(U1-PA6_A10_D10_MOSI)*%
X77000000Y-43500000D03*
%TD*%
D11*
%TO.P,ENCDR_RIGHT1,S2,S2_S2*%
%TO.N,unconnected-(ENCDR_RIGHT1-PadS2)*%
X153000000Y-43500000D03*
%TO.P,ENCDR_RIGHT1,S1,S1_S1*%
%TO.N,unconnected-(ENCDR_RIGHT1-PadS1)*%
X153000000Y-48500000D03*
D12*
%TO.P,ENCDR_RIGHT1,MP*%
%TO.N,N/C*%
X146000000Y-51600000D03*
X146000000Y-40400000D03*
D11*
%TO.P,ENCDR_RIGHT1,C,C_C*%
%TO.N,/an_GND*%
X138500000Y-46000000D03*
%TO.P,ENCDR_RIGHT1,B,B_B*%
%TO.N,Net-(U1-PA7_A8_D8_SCK)*%
X138500000Y-48500000D03*
D13*
%TO.P,ENCDR_RIGHT1,A,A_A*%
%TO.N,Net-(U1-PB09_A7_D7_RX)*%
X138500000Y-43500000D03*
%TD*%
D10*
%TO.P,LED3,4,DOUT_4*%
%TO.N,Net-(LED3-DOUT)*%
X87600001Y-109147158D03*
%TO.P,LED3,3,VDD_3*%
%TO.N,/LED_5V*%
X87600001Y-110647158D03*
%TO.P,LED3,2,DIN_2*%
%TO.N,Net-(LED2-DOUT)*%
X82400001Y-110647158D03*
%TO.P,LED3,1,VSS_1*%
%TO.N,/LED_GND*%
X82400001Y-109147158D03*
%TD*%
%TO.P,LED4,1,VSS_1*%
%TO.N,/LED_GND*%
X82400001Y-129147158D03*
%TO.P,LED4,2,DIN_2*%
%TO.N,Net-(LED4-DIN)*%
X82400001Y-130647158D03*
%TO.P,LED4,3,VDD_3*%
%TO.N,/LED_5V*%
X87600001Y-130647158D03*
%TO.P,LED4,4,DOUT_4*%
%TO.N,Net-(LED19-DIN)*%
X87600001Y-129147158D03*
%TD*%
%TO.P,LED7,4,DOUT_4*%
%TO.N,Net-(LED11-DIN)*%
X107600001Y-109147158D03*
%TO.P,LED7,3,VDD_3*%
%TO.N,/LED_5V*%
X107600001Y-110647158D03*
%TO.P,LED7,2,DIN_2*%
%TO.N,Net-(LED3-DOUT)*%
X102400001Y-110647158D03*
%TO.P,LED7,1,VSS_1*%
%TO.N,/LED_GND*%
X102400001Y-109147158D03*
%TD*%
%TO.P,LED8,4,DOUT_4*%
%TO.N,Net-(LED4-DIN)*%
X107600001Y-129147158D03*
%TO.P,LED8,3,VDD_3*%
%TO.N,/LED_5V*%
X107600001Y-130647158D03*
%TO.P,LED8,2,DIN_2*%
%TO.N,Net-(LED12-DOUT)*%
X102400001Y-130647158D03*
%TO.P,LED8,1,VSS_1*%
%TO.N,/LED_GND*%
X102400001Y-129147158D03*
%TD*%
%TO.P,LED11,4,DOUT_4*%
%TO.N,Net-(LED11-DOUT)*%
X127600001Y-109147158D03*
%TO.P,LED11,3,VDD_3*%
%TO.N,/LED_5V*%
X127600001Y-110647158D03*
%TO.P,LED11,2,DIN_2*%
%TO.N,Net-(LED11-DIN)*%
X122400001Y-110647158D03*
%TO.P,LED11,1,VSS_1*%
%TO.N,/LED_GND*%
X122400001Y-109147158D03*
%TD*%
%TO.P,LED12,4,DOUT_4*%
%TO.N,Net-(LED12-DOUT)*%
X127600001Y-129147158D03*
%TO.P,LED12,3,VDD_3*%
%TO.N,/LED_5V*%
X127600001Y-130647158D03*
%TO.P,LED12,2,DIN_2*%
%TO.N,Net-(LED12-DIN)*%
X122400001Y-130647158D03*
%TO.P,LED12,1,VSS_1*%
%TO.N,/LED_GND*%
X122400001Y-129147158D03*
%TD*%
%TO.P,LED15,4,DOUT_4*%
%TO.N,Net-(LED15-DOUT)*%
X147600001Y-109147158D03*
%TO.P,LED15,3,VDD_3*%
%TO.N,/LED_5V*%
X147600001Y-110647158D03*
%TO.P,LED15,2,DIN_2*%
%TO.N,Net-(LED11-DOUT)*%
X142400001Y-110647158D03*
%TO.P,LED15,1,VSS_1*%
%TO.N,/LED_GND*%
X142400001Y-109147158D03*
%TD*%
D14*
%TO.P,SW1,2,2_2*%
%TO.N,Net-(D1-A)*%
X87540000Y-59920000D03*
%TO.P,SW1,1,1_1*%
%TO.N,/col1_2*%
X81190000Y-62460000D03*
%TD*%
%TO.P,SW2,2,2_2*%
%TO.N,Net-(D2-A)*%
X87540000Y-79920000D03*
%TO.P,SW2,1,1_1*%
%TO.N,/col1_2*%
X81190000Y-82460000D03*
%TD*%
%TO.P,SW3,2,2_2*%
%TO.N,Net-(D3-A)*%
X87540000Y-99920000D03*
%TO.P,SW3,1,1_1*%
%TO.N,/col1_2*%
X81190000Y-102460000D03*
%TD*%
%TO.P,SW4,2,2_2*%
%TO.N,Net-(D4-A)*%
X87540000Y-119920000D03*
%TO.P,SW4,1,1_1*%
%TO.N,/col1_2*%
X81190000Y-122460000D03*
%TD*%
%TO.P,SW5,2,2_2*%
%TO.N,Net-(D5-A)*%
X107540000Y-59920000D03*
%TO.P,SW5,1,1_1*%
%TO.N,Net-(R2-Pad1)*%
X101190000Y-62460000D03*
%TD*%
%TO.P,SW6,2,2_2*%
%TO.N,Net-(D6-A)*%
X107540000Y-79920000D03*
%TO.P,SW6,1,1_1*%
%TO.N,Net-(R2-Pad1)*%
X101190000Y-82460000D03*
%TD*%
%TO.P,SW7,2,2_2*%
%TO.N,Net-(D7-A)*%
X107540000Y-99920000D03*
%TO.P,SW7,1,1_1*%
%TO.N,Net-(R2-Pad1)*%
X101190000Y-102460000D03*
%TD*%
%TO.P,SW8,2,2_2*%
%TO.N,Net-(D8-A)*%
X107540000Y-119920000D03*
%TO.P,SW8,1,1_1*%
%TO.N,Net-(R2-Pad1)*%
X101190000Y-122460000D03*
%TD*%
%TO.P,SW9,2,2_2*%
%TO.N,Net-(D9-A)*%
X127540000Y-59920000D03*
%TO.P,SW9,1,1_1*%
%TO.N,/col3_4*%
X121190000Y-62460000D03*
%TD*%
%TO.P,SW10,2,2_2*%
%TO.N,Net-(D10-A)*%
X127540000Y-79920000D03*
%TO.P,SW10,1,1_1*%
%TO.N,/col3_4*%
X121190000Y-82460000D03*
%TD*%
%TO.P,SW11,2,2_2*%
%TO.N,Net-(D11-A)*%
X127540000Y-99920000D03*
%TO.P,SW11,1,1_1*%
%TO.N,/col3_4*%
X121190000Y-102460000D03*
%TD*%
%TO.P,SW12,2,2_2*%
%TO.N,Net-(D12-A)*%
X127540000Y-119920000D03*
%TO.P,SW12,1,1_1*%
%TO.N,/col3_4*%
X121190000Y-122460000D03*
%TD*%
%TO.P,SW13,2,2_2*%
%TO.N,Net-(D13-A)*%
X147540000Y-59920000D03*
%TO.P,SW13,1,1_1*%
%TO.N,Net-(R4-Pad1)*%
X141190000Y-62460000D03*
%TD*%
%TO.P,SW14,2,2_2*%
%TO.N,Net-(D14-A)*%
X147540000Y-79920000D03*
%TO.P,SW14,1,1_1*%
%TO.N,Net-(R4-Pad1)*%
X141190000Y-82460000D03*
%TD*%
%TO.P,SW15,2,2_2*%
%TO.N,Net-(D15-A)*%
X147540000Y-99920000D03*
%TO.P,SW15,1,1_1*%
%TO.N,Net-(R4-Pad1)*%
X141190000Y-102460000D03*
%TD*%
%TO.P,SW16,2,2_2*%
%TO.N,Net-(D16-A)*%
X147540000Y-119920000D03*
%TO.P,SW16,1,1_1*%
%TO.N,Net-(R4-Pad1)*%
X141190000Y-122460000D03*
%TD*%
D10*
%TO.P,LED9,1,VSS_1*%
%TO.N,/LED_GND*%
X122400001Y-69147158D03*
%TO.P,LED9,2,DIN_2*%
%TO.N,Net-(LED5-DOUT)*%
X122400001Y-70647158D03*
%TO.P,LED9,3,VDD_3*%
%TO.N,/LED_5V*%
X127600001Y-70647158D03*
%TO.P,LED9,4,DOUT_4*%
%TO.N,Net-(LED13-DIN)*%
X127600001Y-69147158D03*
%TD*%
%TO.P,LED5,1,VSS_1*%
%TO.N,/LED_GND*%
X102400001Y-69147158D03*
%TO.P,LED5,2,DIN_2*%
%TO.N,Net-(LED1-DOUT)*%
X102400001Y-70647158D03*
%TO.P,LED5,3,VDD_3*%
%TO.N,/LED_5V*%
X107600001Y-70647158D03*
%TO.P,LED5,4,DOUT_4*%
%TO.N,Net-(LED5-DOUT)*%
X107600001Y-69147158D03*
%TD*%
%TO.P,LED14,1,VSS_1*%
%TO.N,/LED_GND*%
X142400001Y-89147158D03*
%TO.P,LED14,2,DIN_2*%
%TO.N,Net-(LED14-DIN)*%
X142400001Y-90647158D03*
%TO.P,LED14,3,VDD_3*%
%TO.N,/LED_5V*%
X147600001Y-90647158D03*
%TO.P,LED14,4,DOUT_4*%
%TO.N,Net-(LED10-DIN)*%
X147600001Y-89147158D03*
%TD*%
%TO.P,LED2,1,VSS_1*%
%TO.N,/LED_GND*%
X82400001Y-89147158D03*
%TO.P,LED2,2,DIN_2*%
%TO.N,Net-(LED2-DIN)*%
X82400001Y-90647158D03*
%TO.P,LED2,3,VDD_3*%
%TO.N,/LED_5V*%
X87600001Y-90647158D03*
%TO.P,LED2,4,DOUT_4*%
%TO.N,Net-(LED2-DOUT)*%
X87600001Y-89147158D03*
%TD*%
D15*
%TO.P,S1,1,GND_1*%
%TO.N,/an_GND*%
X132615000Y-42190000D03*
D16*
%TO.P,S1,2,VCC_2*%
%TO.N,Net-(S1-VCC)*%
X132615000Y-44730000D03*
%TO.P,S1,3,SCL_3*%
%TO.N,Net-(S1-SCL)*%
X132615000Y-47270000D03*
%TO.P,S1,4,SDA_4*%
%TO.N,Net-(S1-SDA)*%
X132615000Y-49810000D03*
%TD*%
D10*
%TO.P,LED1,1,VSS_1*%
%TO.N,/LED_GND*%
X82400001Y-69147158D03*
%TO.P,LED1,2,DIN_2*%
%TO.N,Net-(LED1-DIN)*%
X82400001Y-70647158D03*
%TO.P,LED1,3,VDD_3*%
%TO.N,/LED_5V*%
X87600001Y-70647158D03*
%TO.P,LED1,4,DOUT_4*%
%TO.N,Net-(LED1-DOUT)*%
X87600001Y-69147158D03*
%TD*%
%TO.P,LED6,1,VSS_1*%
%TO.N,/LED_GND*%
X102400001Y-89147158D03*
%TO.P,LED6,2,DIN_2*%
%TO.N,Net-(LED10-DOUT)*%
X102400001Y-90647158D03*
%TO.P,LED6,3,VDD_3*%
%TO.N,/LED_5V*%
X107600001Y-90647158D03*
%TO.P,LED6,4,DOUT_4*%
%TO.N,Net-(LED2-DIN)*%
X107600001Y-89147158D03*
%TD*%
%TO.P,LED13,1,VSS_1*%
%TO.N,/LED_GND*%
X142400001Y-69147158D03*
%TO.P,LED13,2,DIN_2*%
%TO.N,Net-(LED13-DIN)*%
X142400001Y-70647158D03*
%TO.P,LED13,3,VDD_3*%
%TO.N,/LED_5V*%
X147600001Y-70647158D03*
%TO.P,LED13,4,DOUT_4*%
%TO.N,Net-(LED13-DOUT)*%
X147600001Y-69147158D03*
%TD*%
%TO.P,LED10,1,VSS_1*%
%TO.N,/LED_GND*%
X122400001Y-89147158D03*
%TO.P,LED10,2,DIN_2*%
%TO.N,Net-(LED10-DIN)*%
X122400001Y-90647158D03*
%TO.P,LED10,3,VDD_3*%
%TO.N,/LED_5V*%
X127600001Y-90647158D03*
%TO.P,LED10,4,DOUT_4*%
%TO.N,Net-(LED10-DOUT)*%
X127600001Y-89147158D03*
%TD*%
D17*
%TO.P,D14,1,K_1*%
%TO.N,Net-(D10-K)*%
X153500000Y-87810000D03*
D18*
%TO.P,D14,2,A_2*%
%TO.N,Net-(D14-A)*%
X153500000Y-80190000D03*
%TD*%
D17*
%TO.P,D9,1,K_1*%
%TO.N,/row1_2*%
X133500000Y-67810000D03*
D18*
%TO.P,D9,2,A_2*%
%TO.N,Net-(D9-A)*%
X133500000Y-60190000D03*
%TD*%
D17*
%TO.P,D2,1,K_1*%
%TO.N,Net-(D10-K)*%
X93000000Y-87620000D03*
D18*
%TO.P,D2,2,A_2*%
%TO.N,Net-(D2-A)*%
X93000000Y-80000000D03*
%TD*%
D17*
%TO.P,D5,1,K_1*%
%TO.N,/row1_2*%
X113500000Y-67310000D03*
D18*
%TO.P,D5,2,A_2*%
%TO.N,Net-(D5-A)*%
X113500000Y-59690000D03*
%TD*%
D17*
%TO.P,D3,1,K_1*%
%TO.N,/row3_4*%
X93000000Y-107810000D03*
D18*
%TO.P,D3,2,A_2*%
%TO.N,Net-(D3-A)*%
X93000000Y-100190000D03*
%TD*%
D17*
%TO.P,D11,1,K_1*%
%TO.N,/row3_4*%
X133500000Y-107810000D03*
D18*
%TO.P,D11,2,A_2*%
%TO.N,Net-(D11-A)*%
X133500000Y-100190000D03*
%TD*%
D17*
%TO.P,D16,1,K_1*%
%TO.N,Net-(D12-K)*%
X153500000Y-127620000D03*
D18*
%TO.P,D16,2,A_2*%
%TO.N,Net-(D16-A)*%
X153500000Y-120000000D03*
%TD*%
%TO.P,R7,1*%
%TO.N,Net-(D10-K)*%
X158500000Y-88080000D03*
%TO.P,R7,2*%
%TO.N,/row1_2*%
X158500000Y-77920000D03*
%TD*%
%TO.P,R5,1*%
%TO.N,Net-(D12-K)*%
X158500000Y-127660000D03*
%TO.P,R5,2*%
%TO.N,/row3_4*%
X158500000Y-117500000D03*
%TD*%
%TO.P,R12,1*%
%TO.N,/an_GND*%
X135500000Y-42920000D03*
%TO.P,R12,2*%
%TO.N,/col3_4*%
X135500000Y-53080000D03*
%TD*%
D17*
%TO.P,D1,1,K_1*%
%TO.N,/row1_2*%
X92810000Y-67310000D03*
D18*
%TO.P,D1,2,A_2*%
%TO.N,Net-(D1-A)*%
X92810000Y-59690000D03*
%TD*%
%TO.P,R4,1*%
%TO.N,Net-(R4-Pad1)*%
X139420000Y-134000000D03*
%TO.P,R4,2*%
%TO.N,/col3_4*%
X149580000Y-134000000D03*
%TD*%
D17*
%TO.P,D13,1,K_1*%
%TO.N,/row1_2*%
X153500000Y-67310000D03*
D18*
%TO.P,D13,2,A_2*%
%TO.N,Net-(D13-A)*%
X153500000Y-59690000D03*
%TD*%
%TO.P,R13,1*%
%TO.N,Net-(LED17-DIN)*%
X73000000Y-59500000D03*
%TO.P,R13,2*%
%TO.N,Net-(U1-PB08_A6_D6_TX)*%
X73000000Y-49340000D03*
%TD*%
%TO.P,R10,1*%
%TO.N,/an_GND*%
X138660000Y-40000000D03*
%TO.P,R10,2*%
%TO.N,/row3_4*%
X128500000Y-40000000D03*
%TD*%
D17*
%TO.P,D10,1,K_1*%
%TO.N,Net-(D10-K)*%
X133500000Y-87620000D03*
D18*
%TO.P,D10,2,A_2*%
%TO.N,Net-(D10-A)*%
X133500000Y-80000000D03*
%TD*%
%TO.P,R9,1*%
%TO.N,/an_GND*%
X157000000Y-40920000D03*
%TO.P,R9,2*%
%TO.N,/row1_2*%
X157000000Y-51080000D03*
%TD*%
%TO.P,R2,1*%
%TO.N,Net-(R2-Pad1)*%
X99420000Y-134000000D03*
%TO.P,R2,2*%
%TO.N,/col1_2*%
X109580000Y-134000000D03*
%TD*%
D17*
%TO.P,D12,1,K_1*%
%TO.N,Net-(D12-K)*%
X133000000Y-127620000D03*
D18*
%TO.P,D12,2,A_2*%
%TO.N,Net-(D12-A)*%
X133000000Y-120000000D03*
%TD*%
%TO.P,R11,1*%
%TO.N,/an_GND*%
X128500000Y-43000000D03*
%TO.P,R11,2*%
%TO.N,/col1_2*%
X128500000Y-53160000D03*
%TD*%
D17*
%TO.P,D4,1,K_1*%
%TO.N,Net-(D12-K)*%
X93000000Y-127620000D03*
D18*
%TO.P,D4,2,A_2*%
%TO.N,Net-(D4-A)*%
X93000000Y-120000000D03*
%TD*%
D19*
%TO.P,U1,1,PA02_A0_D0_1*%
%TO.N,/row1_2*%
X124235500Y-40000000D03*
D20*
%TO.P,U1,2,PA4_A1_D1_2*%
%TO.N,/row3_4*%
X124235500Y-42540000D03*
%TO.P,U1,3,PA10_A2_D2_3*%
%TO.N,/col1_2*%
X124235500Y-45080000D03*
%TO.P,U1,4,PA11_A3_D3_4*%
%TO.N,/col3_4*%
X124235500Y-47620000D03*
%TO.P,U1,5,PA8_A4_D4_SDA_5*%
%TO.N,Net-(S1-SDA)*%
X124235500Y-50160000D03*
%TO.P,U1,6,PA9_A5_D5_SCL_6*%
%TO.N,Net-(S1-SCL)*%
X124235500Y-52700000D03*
%TO.P,U1,7,PB08_A6_D6_TX_7*%
%TO.N,Net-(U1-PB08_A6_D6_TX)*%
X124235500Y-55240000D03*
%TO.P,U1,8,PB09_A7_D7_RX_8*%
%TO.N,Net-(U1-PB09_A7_D7_RX)*%
X106985500Y-55240000D03*
%TO.P,U1,9,PA7_A8_D8_SCK_9*%
%TO.N,Net-(U1-PA7_A8_D8_SCK)*%
X106985500Y-52700000D03*
%TO.P,U1,10,PA5_A9_D9_MISO_10*%
%TO.N,Net-(U1-PA5_A9_D9_MISO)*%
X106985500Y-50160000D03*
D21*
%TO.P,U1,11,PA6_A10_D10_MOSI_11*%
%TO.N,Net-(U1-PA6_A10_D10_MOSI)*%
X106985500Y-47620000D03*
%TO.P,U1,12,3V3_12*%
%TO.N,Net-(S1-VCC)*%
X106985500Y-45080000D03*
%TO.P,U1,13,GND_13*%
%TO.N,/an_GND*%
X106985500Y-42540000D03*
%TO.P,U1,14,5V_14*%
%TO.N,/5V*%
X106985500Y-40000000D03*
%TD*%
D17*
%TO.P,D8,1,K_1*%
%TO.N,Net-(D12-K)*%
X113500000Y-127810000D03*
D18*
%TO.P,D8,2,A_2*%
%TO.N,Net-(D8-A)*%
X113500000Y-120190000D03*
%TD*%
D17*
%TO.P,D6,1,K_1*%
%TO.N,Net-(D10-K)*%
X113500000Y-87810000D03*
D18*
%TO.P,D6,2,A_2*%
%TO.N,Net-(D6-A)*%
X113500000Y-80190000D03*
%TD*%
D17*
%TO.P,D15,1,K_1*%
%TO.N,/row3_4*%
X153500000Y-107620000D03*
D18*
%TO.P,D15,2,A_2*%
%TO.N,Net-(D15-A)*%
X153500000Y-100000000D03*
%TD*%
D17*
%TO.P,D7,1,K_1*%
%TO.N,/row3_4*%
X113500000Y-107500000D03*
D18*
%TO.P,D7,2,A_2*%
%TO.N,Net-(D7-A)*%
X113500000Y-99880000D03*
%TD*%
D17*
%TO.P,C1,1*%
%TO.N,/LED_5V*%
X73000000Y-45500000D03*
D18*
%TO.P,C1,2*%
%TO.N,/LED_GND*%
X73000000Y-43000000D03*
%TD*%
D22*
%TO.N,Net-(LED12-DIN)*%
X147000000Y-127500000D03*
X141100001Y-129207527D03*
X140020000Y-131000000D03*
X137904800Y-130000000D03*
%TO.N,Net-(LED10-DOUT)*%
X128051728Y-88171300D03*
X130000000Y-93540800D03*
X105000000Y-94000000D03*
X129345800Y-88673972D03*
%TO.N,/col3_4*%
X119921400Y-68123300D03*
%TO.N,Net-(LED13-DOUT)*%
X145864500Y-57761400D03*
%TO.N,Net-(U1-PA6_A10_D10_MOSI)*%
X101721600Y-43999200D03*
%TO.N,Net-(LED1-DIN)*%
X87538400Y-38386100D03*
%TO.N,Net-(LED19-DIN)*%
X87948200Y-123378900D03*
%TO.N,Net-(LED11-DOUT)*%
X141708600Y-111572500D03*
X128904400Y-109257900D03*
%TO.N,Net-(LED10-DIN)*%
X147359300Y-88228400D03*
X122400000Y-92940800D03*
%TO.N,Net-(LED14-DIN)*%
X141708000Y-92301200D03*
%TO.N,Net-(LED11-DIN)*%
X121974300Y-106984000D03*
X107600000Y-106892800D03*
%TO.N,Net-(R2-Pad1)*%
X92867400Y-130512300D03*
X91387600Y-110143900D03*
%TO.N,Net-(LED13-DIN)*%
X142612500Y-71586600D03*
X128927100Y-68686100D03*
%TO.N,Net-(LED15-DOUT)*%
X148922900Y-108722200D03*
X138504800Y-112299600D03*
X138504800Y-132336500D03*
X141263000Y-132336500D03*
%TO.N,/LED_5V*%
X75488100Y-41537500D03*
X130482600Y-42470900D03*
X89880100Y-127605400D03*
X129009000Y-78445800D03*
X149204300Y-78445800D03*
X159167100Y-135118500D03*
%TO.N,/LED_GND*%
X149392400Y-50396500D03*
X81071800Y-132100000D03*
X147400400Y-126483500D03*
X100970600Y-45293200D03*
X141023800Y-89674800D03*
X127247100Y-88215200D03*
X108249500Y-91620900D03*
X141490400Y-72199700D03*
X121228400Y-69850800D03*
%TD*%
%TO.N,Net-(LED12-DIN)*%
D23*
X147600001Y-128100001D02*
X147600001Y-129147158D01*
X147000000Y-127500000D02*
X147600001Y-128100001D01*
X140020000Y-130287528D02*
X141100001Y-129207527D01*
X140020000Y-131000000D02*
X140020000Y-130287528D01*
X133404800Y-134500000D02*
X137904800Y-130000000D01*
X124500000Y-134500000D02*
X133404800Y-134500000D01*
X122400001Y-132400001D02*
X124500000Y-134500000D01*
X122400001Y-130647158D02*
X122400001Y-132400001D01*
%TO.N,Net-(LED10-DOUT)*%
X128051728Y-88695431D02*
X128051728Y-88171300D01*
X127600001Y-89147158D02*
X128051728Y-88695431D01*
X130000000Y-89328172D02*
X129345800Y-88673972D01*
X102400001Y-91400001D02*
X105000000Y-94000000D01*
X102400001Y-90647158D02*
X102400001Y-91400001D01*
X130000000Y-93540800D02*
X130000000Y-89328172D01*
%TO.N,/an_GND*%
X135500000Y-43000000D02*
X135500000Y-42920000D01*
X138500000Y-46000000D02*
X135500000Y-43000000D01*
%TO.N,/col1_2*%
X123235500Y-45080000D02*
X126337200Y-45080000D01*
X128500000Y-47242800D02*
X126337200Y-45080000D01*
X128500000Y-53160000D02*
X128500000Y-47242800D01*
X80840000Y-82110000D02*
X81190000Y-82460000D01*
X80840000Y-67422400D02*
X80840000Y-82110000D01*
X81386500Y-66875900D02*
X80840000Y-67422400D01*
X81386500Y-62656500D02*
X81386500Y-66875900D01*
X81190000Y-62460000D02*
X81386500Y-62656500D01*
X80788300Y-122058300D02*
X81190000Y-122460000D01*
X80788300Y-108601800D02*
X80788300Y-122058300D01*
X81348100Y-108042000D02*
X80788300Y-108601800D01*
X81348100Y-102618100D02*
X81348100Y-108042000D01*
X81190000Y-102460000D02*
X81348100Y-102618100D01*
X80432900Y-101702900D02*
X81190000Y-102460000D01*
X80432900Y-87954800D02*
X80432900Y-101702900D01*
X81363200Y-87024500D02*
X80432900Y-87954800D01*
X81363200Y-82633200D02*
X81363200Y-87024500D01*
X81190000Y-82460000D02*
X81363200Y-82633200D01*
%TO.N,/col3_4*%
X123235500Y-47620000D02*
X122133800Y-47620000D01*
X121190000Y-55648300D02*
X121190000Y-62460000D01*
X122986600Y-53851700D02*
X121190000Y-55648300D01*
X125662600Y-53851700D02*
X122986600Y-53851700D01*
X126337200Y-53177100D02*
X125662600Y-53851700D01*
X126337200Y-49682900D02*
X126337200Y-53177100D01*
X125662600Y-49008300D02*
X126337200Y-49682900D01*
X122984300Y-49008300D02*
X125662600Y-49008300D01*
X122133800Y-48157800D02*
X122984300Y-49008300D01*
X122133800Y-47620000D02*
X122133800Y-48157800D01*
X121360100Y-66684600D02*
X119921400Y-68123300D01*
X121360100Y-62630100D02*
X121360100Y-66684600D01*
X121190000Y-62460000D02*
X121360100Y-62630100D01*
X120838500Y-122108500D02*
X121190000Y-122460000D01*
X120838500Y-107716600D02*
X120838500Y-122108500D01*
X121363200Y-107191900D02*
X120838500Y-107716600D01*
X121363200Y-102633200D02*
X121363200Y-107191900D01*
X121190000Y-102460000D02*
X121363200Y-102633200D01*
X120828100Y-102098100D02*
X121190000Y-102460000D01*
X120828100Y-87400300D02*
X120828100Y-102098100D01*
X121363200Y-86865200D02*
X120828100Y-87400300D01*
X121363200Y-82633200D02*
X121363200Y-86865200D01*
X121190000Y-82460000D02*
X121363200Y-82633200D01*
%TO.N,/row3_4*%
X153500000Y-112500000D02*
X153500000Y-107620000D01*
X158500000Y-117500000D02*
X153500000Y-112500000D01*
X128862600Y-40000000D02*
X128500000Y-40000000D01*
X131084300Y-42221700D02*
X128862600Y-40000000D01*
X131084300Y-51535600D02*
X131084300Y-42221700D01*
X131886800Y-52338100D02*
X131084300Y-51535600D01*
X131886800Y-106196800D02*
X131886800Y-52338100D01*
X133500000Y-107810000D02*
X131886800Y-106196800D01*
%TO.N,/row1_2*%
X123235500Y-40000000D02*
X122183800Y-40000000D01*
X118518900Y-62291100D02*
X113500000Y-67310000D01*
X118518900Y-43664900D02*
X118518900Y-62291100D01*
X122183800Y-40000000D02*
X118518900Y-43664900D01*
X157000000Y-63810000D02*
X153500000Y-67310000D01*
X157000000Y-51080000D02*
X157000000Y-63810000D01*
X158500000Y-72310000D02*
X153500000Y-67310000D01*
X158500000Y-77920000D02*
X158500000Y-72310000D01*
%TO.N,Net-(LED13-DOUT)*%
X145864500Y-60919900D02*
X145864500Y-57761400D01*
X147600000Y-62655400D02*
X145864500Y-60919900D01*
X147600000Y-69147200D02*
X147600000Y-62655400D01*
%TO.N,Net-(U1-PB09_A7_D7_RX)*%
X137198300Y-43011900D02*
X137198300Y-43500000D01*
X133008800Y-38822400D02*
X137198300Y-43011900D01*
X122376900Y-38822400D02*
X133008800Y-38822400D01*
X109087200Y-52112100D02*
X122376900Y-38822400D01*
X109087200Y-55240000D02*
X109087200Y-52112100D01*
X107985500Y-55240000D02*
X109087200Y-55240000D01*
X138500000Y-43500000D02*
X137198300Y-43500000D01*
%TO.N,Net-(U1-PA6_A10_D10_MOSI)*%
X107985500Y-47620000D02*
X104833800Y-47620000D01*
X104833800Y-47111400D02*
X101721600Y-43999200D01*
X104833800Y-47620000D02*
X104833800Y-47111400D01*
%TO.N,Net-(LED1-DIN)*%
X82310900Y-70647200D02*
X82400000Y-70647200D01*
X81298000Y-69634300D02*
X82310900Y-70647200D01*
X81298000Y-68658000D02*
X81298000Y-69634300D01*
X82299500Y-67656500D02*
X81298000Y-68658000D01*
X82299500Y-63915200D02*
X82299500Y-67656500D01*
X82895700Y-63319000D02*
X82299500Y-63915200D01*
X82895700Y-61974300D02*
X82895700Y-63319000D01*
X87538400Y-57331600D02*
X82895700Y-61974300D01*
X87538400Y-38386100D02*
X87538400Y-57331600D01*
%TO.N,Net-(LED19-DIN)*%
X87600000Y-123727100D02*
X87948200Y-123378900D01*
X87600000Y-129147200D02*
X87600000Y-123727100D01*
%TO.N,Net-(LED11-DOUT)*%
X127710700Y-109257900D02*
X127600000Y-109147200D01*
X128904400Y-109257900D02*
X127710700Y-109257900D01*
X141708600Y-111338600D02*
X141708600Y-111572500D01*
X142400000Y-110647200D02*
X141708600Y-111338600D01*
%TO.N,Net-(LED2-DOUT)*%
X87765000Y-89147200D02*
X87600000Y-89147200D01*
X88702000Y-90084200D02*
X87765000Y-89147200D01*
X88702000Y-91136400D02*
X88702000Y-90084200D01*
X82850300Y-96988100D02*
X88702000Y-91136400D01*
X82850300Y-103364400D02*
X82850300Y-96988100D01*
X82400000Y-103814700D02*
X82850300Y-103364400D01*
X82400000Y-107558200D02*
X82400000Y-103814700D01*
X81523000Y-108435200D02*
X82400000Y-107558200D01*
X81522900Y-108435200D02*
X81523000Y-108435200D01*
X81190000Y-108768100D02*
X81522900Y-108435200D01*
X81190000Y-109594100D02*
X81190000Y-108768100D01*
X82243100Y-110647200D02*
X81190000Y-109594100D01*
X82400000Y-110647200D02*
X82243100Y-110647200D01*
%TO.N,Net-(LED2-DIN)*%
X82240900Y-90647200D02*
X82400000Y-90647200D01*
X81295900Y-89702200D02*
X82240900Y-90647200D01*
X81295900Y-88645200D02*
X81295900Y-89702200D01*
X82391700Y-87549400D02*
X81295900Y-88645200D01*
X89514300Y-87549400D02*
X82391700Y-87549400D01*
X96086200Y-80977500D02*
X89514300Y-87549400D01*
X104578800Y-80977500D02*
X96086200Y-80977500D01*
X107600000Y-83998700D02*
X104578800Y-80977500D01*
X107600000Y-89147200D02*
X107600000Y-83998700D01*
%TO.N,Net-(LED10-DIN)*%
X147359300Y-88906500D02*
X147359300Y-88228400D01*
X147600000Y-89147200D02*
X147359300Y-88906500D01*
X122400000Y-90647200D02*
X122400000Y-92940800D01*
%TO.N,Net-(LED14-DIN)*%
X141708000Y-91339200D02*
X141708000Y-92301200D01*
X142400000Y-90647200D02*
X141708000Y-91339200D01*
%TO.N,Net-(LED11-DIN)*%
X107600000Y-109147200D02*
X107600000Y-106892800D01*
X121974300Y-107612300D02*
X121974300Y-106984000D01*
X121256700Y-108329900D02*
X121974300Y-107612300D01*
X121256700Y-109647300D02*
X121256700Y-108329900D01*
X122256600Y-110647200D02*
X121256700Y-109647300D01*
X122400000Y-110647200D02*
X122256600Y-110647200D01*
%TO.N,Net-(LED3-DOUT)*%
X91241800Y-109147200D02*
X87600000Y-109147200D01*
X92741800Y-110647200D02*
X91241800Y-109147200D01*
X102400000Y-110647200D02*
X92741800Y-110647200D01*
%TO.N,Net-(R2-Pad1)*%
X101363200Y-82633200D02*
X101190000Y-82460000D01*
X101363200Y-88394600D02*
X101363200Y-82633200D01*
X100844500Y-88913300D02*
X101363200Y-88394600D01*
X100844500Y-102114500D02*
X100844500Y-88913300D01*
X101190000Y-102460000D02*
X100844500Y-102114500D01*
X101190000Y-122460000D02*
X98918100Y-122460000D01*
X98918100Y-123999300D02*
X98918100Y-122460000D01*
X92867400Y-130050000D02*
X98918100Y-123999300D01*
X92867400Y-130512300D02*
X92867400Y-130050000D01*
X98918100Y-117674400D02*
X91387600Y-110143900D01*
X98918100Y-122460000D02*
X98918100Y-117674400D01*
%TO.N,Net-(R4-Pad1)*%
X141343000Y-62613000D02*
X141190000Y-62460000D01*
X141343000Y-68414800D02*
X141343000Y-62613000D01*
X140856200Y-68901600D02*
X141343000Y-68414800D01*
X140856200Y-82126200D02*
X140856200Y-68901600D01*
X141190000Y-82460000D02*
X140856200Y-82126200D01*
X140705200Y-121975200D02*
X141190000Y-122460000D01*
X140705200Y-109052600D02*
X140705200Y-121975200D01*
X141343000Y-108414800D02*
X140705200Y-109052600D01*
X141343000Y-102613000D02*
X141343000Y-108414800D01*
X141190000Y-102460000D02*
X141343000Y-102613000D01*
X140422100Y-101692100D02*
X141190000Y-102460000D01*
X140422100Y-89335700D02*
X140422100Y-101692100D01*
X141343000Y-88414800D02*
X140422100Y-89335700D01*
X141343000Y-82613000D02*
X141343000Y-88414800D01*
X141190000Y-82460000D02*
X141343000Y-82613000D01*
X141363200Y-122633200D02*
X141190000Y-122460000D01*
X141363200Y-128095800D02*
X141363200Y-122633200D01*
X139420000Y-130039000D02*
X141363200Y-128095800D01*
X139420000Y-134000000D02*
X139420000Y-130039000D01*
%TO.N,Net-(LED1-DOUT)*%
X101620400Y-70647200D02*
X102400000Y-70647200D01*
X100120400Y-69147200D02*
X101620400Y-70647200D01*
X87600000Y-69147200D02*
X100120400Y-69147200D01*
%TO.N,Net-(LED13-DIN)*%
X128061100Y-68686100D02*
X127600000Y-69147200D01*
X128927100Y-68686100D02*
X128061100Y-68686100D01*
X142612500Y-70859700D02*
X142612500Y-71586600D01*
X142400000Y-70647200D02*
X142612500Y-70859700D01*
%TO.N,Net-(LED5-DOUT)*%
X121056400Y-70647200D02*
X122400000Y-70647200D01*
X119556400Y-69147200D02*
X121056400Y-70647200D01*
X107600000Y-69147200D02*
X119556400Y-69147200D01*
%TO.N,Net-(LED15-DOUT)*%
X138504800Y-132336500D02*
X138504800Y-112299600D01*
X142400000Y-131199500D02*
X141263000Y-132336500D01*
X142400000Y-130647200D02*
X142400000Y-131199500D01*
X148497900Y-109147200D02*
X148922900Y-108722200D01*
X147600000Y-109147200D02*
X148497900Y-109147200D01*
%TO.N,Net-(LED4-DIN)*%
X107600000Y-128914200D02*
X107600000Y-129147200D01*
X106619700Y-127933900D02*
X107600000Y-128914200D01*
X100404200Y-127933900D02*
X106619700Y-127933900D01*
X96488200Y-131849900D02*
X100404200Y-127933900D01*
X83354000Y-131849900D02*
X96488200Y-131849900D01*
X82400000Y-130895900D02*
X83354000Y-131849900D01*
X82400000Y-130647200D02*
X82400000Y-130895900D01*
%TO.N,/LED_5V*%
X107600000Y-71863900D02*
X107600000Y-70647200D01*
X88816700Y-71863900D02*
X87600000Y-70647200D01*
X107600000Y-71863900D02*
X88816700Y-71863900D01*
X75488100Y-43011900D02*
X75488100Y-41537500D01*
X73000000Y-45500000D02*
X75488100Y-43011900D01*
X128879100Y-70647200D02*
X127600000Y-70647200D01*
X131485100Y-68041200D02*
X128879100Y-70647200D01*
X131485100Y-64369100D02*
X131485100Y-68041200D01*
X130482600Y-63366600D02*
X131485100Y-64369100D01*
X130482600Y-42470900D02*
X130482600Y-63366600D01*
X128743800Y-127631700D02*
X128662600Y-127550500D01*
X128743800Y-129621100D02*
X128743800Y-127631700D01*
X127717700Y-130647200D02*
X128743800Y-129621100D01*
X127600000Y-130647200D02*
X127717700Y-130647200D01*
X115509600Y-126696500D02*
X111497800Y-126696500D01*
X116363600Y-127550500D02*
X115509600Y-126696500D01*
X128662600Y-127550500D02*
X116363600Y-127550500D01*
X111497800Y-114545000D02*
X107600000Y-110647200D01*
X111497800Y-126696500D02*
X111497800Y-114545000D01*
X107731400Y-130647200D02*
X107600000Y-130647200D01*
X111497800Y-126880800D02*
X107731400Y-130647200D01*
X111497800Y-126696500D02*
X111497800Y-126880800D01*
X127717700Y-90647200D02*
X127600000Y-90647200D01*
X129549200Y-109469700D02*
X127985900Y-111033000D01*
X129549200Y-108955700D02*
X129549200Y-109469700D01*
X128656800Y-108063300D02*
X129549200Y-108955700D01*
X128656800Y-101392300D02*
X128656800Y-108063300D01*
X129029200Y-101019900D02*
X128656800Y-101392300D01*
X129029200Y-91958700D02*
X129029200Y-101019900D01*
X127717700Y-90647200D02*
X129029200Y-91958700D01*
X128992500Y-112039700D02*
X127985900Y-111033000D01*
X128992500Y-121205300D02*
X128992500Y-112039700D01*
X128662600Y-121535200D02*
X128992500Y-121205300D01*
X128662600Y-127550500D02*
X128662600Y-121535200D01*
X127985900Y-111033000D02*
X127600000Y-110647200D01*
X107600000Y-114469300D02*
X107600000Y-110647200D01*
X104223400Y-117845900D02*
X107600000Y-114469300D01*
X104223400Y-122176600D02*
X104223400Y-117845900D01*
X102454400Y-123945600D02*
X104223400Y-122176600D01*
X102454400Y-124449300D02*
X102454400Y-123945600D01*
X95761800Y-131141900D02*
X102454400Y-124449300D01*
X92525400Y-131141900D02*
X95761800Y-131141900D01*
X89880100Y-128496600D02*
X92525400Y-131141900D01*
X89880100Y-127605400D02*
X89880100Y-128496600D01*
X87729500Y-130647200D02*
X87600000Y-130647200D01*
X89880100Y-128496600D02*
X87729500Y-130647200D01*
X109047100Y-73311000D02*
X107600000Y-71863900D01*
X109047100Y-80470600D02*
X109047100Y-73311000D01*
X108659000Y-80858700D02*
X109047100Y-80470600D01*
X108659000Y-88416800D02*
X108659000Y-80858700D01*
X108739100Y-88496900D02*
X108659000Y-88416800D01*
X108739100Y-90036400D02*
X108739100Y-88496900D01*
X108128300Y-90647200D02*
X108739100Y-90036400D01*
X108999200Y-91518100D02*
X108128300Y-90647200D01*
X108999200Y-101049900D02*
X108999200Y-91518100D01*
X108673700Y-101375400D02*
X108999200Y-101049900D01*
X108673700Y-108494000D02*
X108673700Y-101375400D01*
X108767200Y-108587500D02*
X108673700Y-108494000D01*
X108767200Y-109570600D02*
X108767200Y-108587500D01*
X107690600Y-110647200D02*
X108767200Y-109570600D01*
X107600000Y-110647200D02*
X107690600Y-110647200D01*
X108128300Y-90647200D02*
X107600000Y-90647200D01*
X149013100Y-72060300D02*
X149013100Y-79249000D01*
X147600000Y-70647200D02*
X149013100Y-72060300D01*
X149204300Y-79057800D02*
X149204300Y-78445800D01*
X149013100Y-79249000D02*
X149204300Y-79057800D01*
X129009000Y-81522000D02*
X129009000Y-78445800D01*
X128662600Y-81868400D02*
X129009000Y-81522000D01*
X128662600Y-88185000D02*
X128662600Y-81868400D01*
X128745800Y-88268200D02*
X128662600Y-88185000D01*
X128745800Y-89619100D02*
X128745800Y-88268200D01*
X127717700Y-90647200D02*
X128745800Y-89619100D01*
X129009000Y-70777100D02*
X129009000Y-78445800D01*
X128879100Y-70647200D02*
X129009000Y-70777100D01*
X94105700Y-123379800D02*
X89880100Y-127605400D01*
X94105700Y-117152900D02*
X94105700Y-123379800D01*
X87600000Y-110647200D02*
X94105700Y-117152900D01*
X148711900Y-89652600D02*
X147717300Y-90647200D01*
X148711900Y-88131900D02*
X148711900Y-89652600D01*
X148649500Y-88069500D02*
X148711900Y-88131900D01*
X148649500Y-81399600D02*
X148649500Y-88069500D01*
X149013100Y-81036000D02*
X148649500Y-81399600D01*
X149013100Y-79249000D02*
X149013100Y-81036000D01*
X147717300Y-90647200D02*
X147600000Y-90647200D01*
X87600000Y-90903000D02*
X87600000Y-90647200D01*
X86642000Y-91861000D02*
X87600000Y-90903000D01*
X82012900Y-91861000D02*
X86642000Y-91861000D01*
X80892100Y-90740200D02*
X82012900Y-91861000D01*
X80892100Y-88261500D02*
X80892100Y-90740200D01*
X81968100Y-87185500D02*
X80892100Y-88261500D01*
X81968100Y-84164000D02*
X81968100Y-87185500D01*
X84506600Y-81625500D02*
X81968100Y-84164000D01*
X84506600Y-75037400D02*
X84506600Y-81625500D01*
X87600000Y-71944000D02*
X84506600Y-75037400D01*
X87600000Y-70647200D02*
X87600000Y-71944000D01*
X154200600Y-135118500D02*
X159167100Y-135118500D01*
X148709200Y-129627100D02*
X154200600Y-135118500D01*
X147689100Y-130647200D02*
X148709200Y-129627100D01*
X147600000Y-130647200D02*
X147689100Y-130647200D01*
X149036900Y-111925100D02*
X147803900Y-110692100D01*
X149036900Y-123865700D02*
X149036900Y-111925100D01*
X148650300Y-124252300D02*
X149036900Y-123865700D01*
X148650300Y-128586700D02*
X148650300Y-124252300D01*
X148709200Y-128645600D02*
X148650300Y-128586700D01*
X148709200Y-129627100D02*
X148709200Y-128645600D01*
X147644900Y-110692100D02*
X147803900Y-110692100D01*
X147600000Y-110647200D02*
X147644900Y-110692100D01*
X151492100Y-94422000D02*
X147717300Y-90647200D01*
X151492100Y-107003900D02*
X151492100Y-94422000D01*
X147803900Y-110692100D02*
X151492100Y-107003900D01*
%TO.N,Net-(LED12-DOUT)*%
X127600000Y-128879000D02*
X127600000Y-129147200D01*
X126678100Y-127957100D02*
X127600000Y-128879000D01*
X118821500Y-127957100D02*
X126678100Y-127957100D01*
X114894700Y-131883900D02*
X118821500Y-127957100D01*
X103378500Y-131883900D02*
X114894700Y-131883900D01*
X102400000Y-130905400D02*
X103378500Y-131883900D01*
X102400000Y-130647200D02*
X102400000Y-130905400D01*
%TO.N,/LED_GND*%
X81071800Y-130337500D02*
X81071800Y-132100000D01*
X82262100Y-129147200D02*
X81071800Y-130337500D01*
X82400000Y-129147200D02*
X82262100Y-129147200D01*
X147260000Y-126343100D02*
X147400400Y-126483500D01*
X145873800Y-127729300D02*
X147260000Y-126343100D01*
X143560200Y-127729300D02*
X145873800Y-127729300D01*
X142400000Y-128889500D02*
X143560200Y-127729300D01*
X142400000Y-129147200D02*
X142400000Y-128889500D01*
X147597100Y-126006000D02*
X147260000Y-126343100D01*
X147597100Y-123941100D02*
X147597100Y-126006000D01*
X141106900Y-117450900D02*
X147597100Y-123941100D01*
X141106900Y-110295600D02*
X141106900Y-117450900D01*
X142255300Y-109147200D02*
X141106900Y-110295600D01*
X142400000Y-109147200D02*
X142255300Y-109147200D01*
X122226500Y-129147200D02*
X122400000Y-129147200D01*
X121240400Y-130133300D02*
X122226500Y-129147200D01*
X121240400Y-132888000D02*
X121240400Y-130133300D01*
X102282200Y-129147200D02*
X102400000Y-129147200D01*
X101259500Y-130169900D02*
X102282200Y-129147200D01*
X101259500Y-132888000D02*
X101259500Y-130169900D01*
X121240400Y-132888000D02*
X101259500Y-132888000D01*
X101259500Y-133771400D02*
X101259500Y-132888000D01*
X99877300Y-135153600D02*
X101259500Y-133771400D01*
X84125400Y-135153600D02*
X99877300Y-135153600D01*
X81071800Y-132100000D02*
X84125400Y-135153600D01*
X102650300Y-46972900D02*
X100970600Y-45293200D01*
X102650300Y-63481800D02*
X102650300Y-46972900D01*
X102400700Y-63731400D02*
X102650300Y-63481800D01*
X102400700Y-67019400D02*
X102400700Y-63731400D01*
X103319400Y-67938100D02*
X102400700Y-67019400D01*
X141381600Y-90032600D02*
X141023800Y-89674800D01*
X142267000Y-89147200D02*
X141381600Y-90032600D01*
X142400000Y-89147200D02*
X142267000Y-89147200D01*
X142400000Y-103732100D02*
X142400000Y-109147200D01*
X142650300Y-103481800D02*
X142400000Y-103732100D01*
X142650300Y-95160200D02*
X142650300Y-103481800D01*
X141106300Y-93616200D02*
X142650300Y-95160200D01*
X141106300Y-90307900D02*
X141106300Y-93616200D01*
X141381600Y-90032600D02*
X141106300Y-90307900D01*
X102269400Y-89147200D02*
X102400000Y-89147200D01*
X101262500Y-90154100D02*
X102269400Y-89147200D01*
X101262500Y-91146500D02*
X101262500Y-90154100D01*
X104993200Y-94877200D02*
X101262500Y-91146500D01*
X104993200Y-101138900D02*
X104993200Y-94877200D01*
X102400000Y-103732100D02*
X104993200Y-101138900D01*
X102400000Y-109147200D02*
X102400000Y-103732100D01*
X122400000Y-108853200D02*
X122400000Y-109147200D01*
X123694700Y-107558500D02*
X122400000Y-108853200D01*
X126086700Y-107558500D02*
X123694700Y-107558500D01*
X127606300Y-106038900D02*
X126086700Y-107558500D01*
X127606300Y-102661700D02*
X127606300Y-106038900D01*
X121290000Y-96345400D02*
X127606300Y-102661700D01*
X121290000Y-90148600D02*
X121290000Y-96345400D01*
X122291400Y-89147200D02*
X121290000Y-90148600D01*
X122400000Y-89147200D02*
X122291400Y-89147200D01*
X102025600Y-68483100D02*
X102400000Y-68857500D01*
X88772400Y-68483100D02*
X102025600Y-68483100D01*
X88225300Y-67936000D02*
X88772400Y-68483100D01*
X83323600Y-67936000D02*
X88225300Y-67936000D01*
X82400000Y-68859600D02*
X83323600Y-67936000D01*
X82400000Y-69147200D02*
X82400000Y-68859600D01*
X102400000Y-69147200D02*
X102400000Y-68857500D01*
X102400000Y-68857500D02*
X103319400Y-67938100D01*
X92402100Y-109147200D02*
X102400000Y-109147200D01*
X90965300Y-107710400D02*
X92402100Y-109147200D01*
X82400000Y-108859500D02*
X82400000Y-109147200D01*
X83549100Y-107710400D02*
X82400000Y-108859500D01*
X90965300Y-107710400D02*
X83549100Y-107710400D01*
X121228400Y-69147200D02*
X122400000Y-69147200D01*
X108656500Y-67938100D02*
X103319400Y-67938100D01*
X109443400Y-68725000D02*
X108656500Y-67938100D01*
X120806200Y-68725000D02*
X109443400Y-68725000D01*
X121228400Y-69147200D02*
X120806200Y-68725000D01*
X91546200Y-107129500D02*
X90965300Y-107710400D01*
X91546200Y-91441500D02*
X91546200Y-107129500D01*
X88059800Y-87955100D02*
X91546200Y-91441500D01*
X83309100Y-87955100D02*
X88059800Y-87955100D01*
X82400000Y-88864200D02*
X83309100Y-87955100D01*
X82400000Y-89147200D02*
X82400000Y-88864200D01*
X121228400Y-69147200D02*
X121228400Y-69850800D01*
X141264400Y-71973700D02*
X141490400Y-72199700D01*
X141264400Y-70177800D02*
X141264400Y-71973700D01*
X142295000Y-69147200D02*
X141264400Y-70177800D01*
X142400000Y-69147200D02*
X142295000Y-69147200D01*
X142650300Y-73359600D02*
X141490400Y-72199700D01*
X142650300Y-83481800D02*
X142650300Y-73359600D01*
X142400000Y-83732100D02*
X142650300Y-83481800D01*
X142400000Y-89147200D02*
X142400000Y-83732100D01*
X142400000Y-63732100D02*
X142400000Y-69147200D01*
X144228900Y-61903200D02*
X142400000Y-63732100D01*
X144228900Y-57512300D02*
X144228900Y-61903200D01*
X149392400Y-52348800D02*
X144228900Y-57512300D01*
X149392400Y-50396500D02*
X149392400Y-52348800D01*
X123454100Y-135101700D02*
X121240400Y-132888000D01*
X139877600Y-135101700D02*
X123454100Y-135101700D01*
X140661300Y-134318000D02*
X139877600Y-135101700D01*
X140661300Y-130796800D02*
X140661300Y-134318000D01*
X142310900Y-129147200D02*
X140661300Y-130796800D01*
X142400000Y-129147200D02*
X142310900Y-129147200D01*
X126907700Y-87875800D02*
X127247100Y-88215200D01*
X123381700Y-87875800D02*
X126907700Y-87875800D01*
X122400000Y-88857500D02*
X123381700Y-87875800D01*
X122400000Y-89147200D02*
X122400000Y-88857500D01*
X104993200Y-94877200D02*
X108249500Y-91620900D01*
%TD*%
M02*
